# Blender 4.3.2
# www.blender.org
mtllib gun.mtl
o Gun
v 0.085839 0.447177 -0.121651
v 0.083879 0.490670 -0.127911
v 0.083925 0.447376 -0.174298
v 0.085641 0.488565 -0.176154
v 0.118549 0.440756 -0.105661
v 0.116573 0.485287 -0.122538
v 0.120904 0.440276 -0.154363
v 0.117702 0.483036 -0.153383
v 0.074371 0.503144 -0.142740
v 0.078226 0.497563 -0.247994
v 0.121344 0.494907 -0.240722
v 0.112349 0.500309 -0.127886
v 0.075257 0.515008 -0.144113
v 0.079112 0.509427 -0.249367
v 0.122231 0.506771 -0.242095
v 0.113235 0.512173 -0.129259
vn -1.0000 -0.0027 0.0016
vn 0.5261 0.0004 -0.8504
vn 0.9969 0.0667 0.0414
vn -0.2634 0.2342 0.9358
vn -0.1914 -0.9815 0.0019
vn -0.7891 -0.6143 0.0019
vn -0.3523 0.1335 0.9263
vn -0.1778 0.5229 0.8336
vn -0.0565 -0.9901 -0.1285
vn 0.9743 0.2177 0.0571
vn 0.0798 0.9958 -0.0454
vn 0.1575 -0.1251 -0.9796
vn 0.9945 -0.0648 0.0824
vn -0.9967 0.0698 -0.0402
vt 0.375000 0.000000
vt 0.625000 0.128859
vt 0.625000 0.250000
vt 0.375000 0.252540
vt 0.625000 0.500000
vt 0.375000 0.500000
vt 0.625000 0.750000
vt 0.375000 0.750000
vt 0.625784 1.014411
vt 0.375000 1.000000
vt 0.127540 0.500000
vt 0.125000 0.750000
vt 0.875000 0.500000
vt 0.875000 0.621141
s 0
usemtl Material.001
f 1/1/1 2/2/1 4/3/1 3/4/1
f 3/4/2 4/3/2 8/5/2 7/6/2
f 7/6/3 8/5/3 6/7/3 5/8/3
f 5/8/4 6/7/4 2/9/4 1/10/4
f 3/11/5 7/6/5 5/8/5 1/12/5
f 4/3/6 2/2/6 9/2/6 10/3/6
f 9/9/7 12/7/7 16/7/7 13/9/7
f 2/9/8 6/7/8 12/7/8 9/9/8
f 8/5/9 4/3/9 10/3/9 11/5/9
f 6/7/10 8/5/10 11/5/10 12/7/10
f 15/5/11 14/13/11 13/14/11 16/7/11
f 11/5/12 10/3/12 14/3/12 15/5/12
f 12/7/13 11/5/13 15/5/13 16/7/13
f 10/3/14 9/2/14 13/2/14 14/3/14
