# Blender 3.6.2
# www.blender.org
mtllib pistol.mtl
o Pistol
v 0.088763 0.505354 -0.160559
v 0.089866 0.505310 -0.158767
v 0.089848 0.505331 -0.160571
v 0.088782 0.505333 -0.158755
v 0.089609 0.491737 -0.156144
v 0.088763 0.505354 -0.160559
v 0.089848 0.505331 -0.160571
v 0.088525 0.491760 -0.156133
v 0.088525 0.491760 -0.156133
v 0.089628 0.491717 -0.154340
v 0.088543 0.491739 -0.154329
v 0.089609 0.491737 -0.156144
v 0.088782 0.505333 -0.158755
v 0.088543 0.491739 -0.154329
v 0.089628 0.491717 -0.154340
v 0.089866 0.505310 -0.158767
v 0.089609 0.491737 -0.156144
v 0.089866 0.505310 -0.158767
v 0.089628 0.491717 -0.154340
v 0.089848 0.505331 -0.160571
v 0.088782 0.505333 -0.158755
v 0.088525 0.491760 -0.156133
v 0.088543 0.491739 -0.154329
v 0.088763 0.505354 -0.160559
v 0.088805 0.505308 -0.156498
v 0.089908 0.505265 -0.154706
v 0.089890 0.505285 -0.156510
v 0.088823 0.505287 -0.154695
v 0.089651 0.491691 -0.152083
v 0.088805 0.505308 -0.156498
v 0.089890 0.505285 -0.156510
v 0.088566 0.491714 -0.152072
v 0.088566 0.491714 -0.152072
v 0.089670 0.491671 -0.150280
v 0.088585 0.491693 -0.150268
v 0.089651 0.491691 -0.152083
v 0.088823 0.505287 -0.154695
v 0.088585 0.491693 -0.150268
v 0.089670 0.491671 -0.150280
v 0.089908 0.505265 -0.154706
v 0.089651 0.491691 -0.152083
v 0.089908 0.505265 -0.154706
v 0.089670 0.491671 -0.150280
v 0.089890 0.505285 -0.156510
v 0.088823 0.505287 -0.154695
v 0.088566 0.491714 -0.152072
v 0.088585 0.491693 -0.150268
v 0.088805 0.505308 -0.156498
v 0.088848 0.505260 -0.152309
v 0.089951 0.505217 -0.150516
v 0.089933 0.505238 -0.152320
v 0.088867 0.505240 -0.150505
v 0.089694 0.491644 -0.147893
v 0.088848 0.505260 -0.152309
v 0.089933 0.505238 -0.152320
v 0.088610 0.491666 -0.147882
v 0.088610 0.491666 -0.147882
v 0.089713 0.491623 -0.146090
v 0.088628 0.491646 -0.146078
v 0.089694 0.491644 -0.147893
v 0.088867 0.505240 -0.150505
v 0.088628 0.491646 -0.146078
v 0.089713 0.491623 -0.146090
v 0.089951 0.505217 -0.150516
v 0.089694 0.491644 -0.147893
v 0.089951 0.505217 -0.150516
v 0.089713 0.491623 -0.146090
v 0.089933 0.505238 -0.152320
v 0.088867 0.505240 -0.150505
v 0.088610 0.491666 -0.147882
v 0.088628 0.491646 -0.146078
v 0.088848 0.505260 -0.152309
v 0.088889 0.505216 -0.148377
v 0.089992 0.505173 -0.146584
v 0.089973 0.505193 -0.148388
v 0.088907 0.505195 -0.146573
v 0.089735 0.491599 -0.143962
v 0.088889 0.505216 -0.148377
v 0.089973 0.505193 -0.148388
v 0.088650 0.491622 -0.143950
v 0.088650 0.491622 -0.143950
v 0.089753 0.491579 -0.142158
v 0.088669 0.491602 -0.142146
v 0.089735 0.491599 -0.143962
v 0.088907 0.505195 -0.146573
v 0.088669 0.491602 -0.142146
v 0.089753 0.491579 -0.142158
v 0.089992 0.505173 -0.146584
v 0.089735 0.491599 -0.143962
v 0.089992 0.505173 -0.146584
v 0.089753 0.491579 -0.142158
v 0.089973 0.505193 -0.148388
v 0.088907 0.505195 -0.146573
v 0.088650 0.491622 -0.143950
v 0.088669 0.491602 -0.142146
v 0.088889 0.505216 -0.148377
v 0.088569 0.491732 -0.240685
v 0.096602 0.497068 -0.240707
v 0.096486 0.491565 -0.240768
v 0.088569 0.491732 -0.240685
v 0.096608 0.491452 -0.228975
v 0.088686 0.491598 -0.228892
v 0.096486 0.491565 -0.240768
v 0.088802 0.497101 -0.228831
v 0.088683 0.497234 -0.240624
v 0.088686 0.491598 -0.228892
v 0.088569 0.491732 -0.240685
v 0.089170 0.496401 -0.166433
v 0.089297 0.502817 -0.167613
v 0.089159 0.496416 -0.167742
v 0.089309 0.502804 -0.166305
v 0.091489 0.508000 -0.214058
v 0.097292 0.507698 -0.196414
v 0.097109 0.507879 -0.214177
v 0.091670 0.507814 -0.196300
v 0.090156 0.503617 -0.196334
v 0.091489 0.508000 -0.214058
v 0.089979 0.503811 -0.214091
v 0.091670 0.507814 -0.196300
v 0.088713 0.490598 -0.167880
v 0.088725 0.490582 -0.166465
v 0.089038 0.490736 -0.167825
v 0.089049 0.490722 -0.166516
v 0.089049 0.490722 -0.166516
v 0.089159 0.496416 -0.167742
v 0.089038 0.490736 -0.167825
v 0.089170 0.496401 -0.166433
v 0.091455 0.507590 -0.167577
v 0.097604 0.507462 -0.166397
v 0.097590 0.507471 -0.167707
v 0.091468 0.507580 -0.166269
v 0.089309 0.502804 -0.166305
v 0.091455 0.507590 -0.167577
v 0.089297 0.502817 -0.167613
v 0.091468 0.507580 -0.166269
v 0.106469 0.504982 -0.160746
v 0.105403 0.504984 -0.158931
v 0.106488 0.504962 -0.158942
v 0.105385 0.505005 -0.160734
v 0.105146 0.491411 -0.156308
v 0.106469 0.504982 -0.160746
v 0.106231 0.491388 -0.156319
v 0.105385 0.505005 -0.160734
v 0.105165 0.491391 -0.154504
v 0.106231 0.491388 -0.156319
v 0.106250 0.491368 -0.154516
v 0.105146 0.491411 -0.156308
v 0.106488 0.504962 -0.158942
v 0.105165 0.491391 -0.154504
v 0.106250 0.491368 -0.154516
v 0.105403 0.504984 -0.158931
v 0.105403 0.504984 -0.158931
v 0.105146 0.491411 -0.156308
v 0.105165 0.491391 -0.154504
v 0.105385 0.505005 -0.160734
v 0.106231 0.491388 -0.156319
v 0.106488 0.504962 -0.158942
v 0.106250 0.491368 -0.154516
v 0.106469 0.504982 -0.160746
v 0.106511 0.504936 -0.156685
v 0.105445 0.504939 -0.154870
v 0.106530 0.504916 -0.154881
v 0.105427 0.504959 -0.156674
v 0.105188 0.491365 -0.152247
v 0.106511 0.504936 -0.156685
v 0.106273 0.491342 -0.152259
v 0.105427 0.504959 -0.156674
v 0.105207 0.491345 -0.150443
v 0.106273 0.491342 -0.152259
v 0.106291 0.491322 -0.150455
v 0.105188 0.491365 -0.152247
v 0.106530 0.504916 -0.154881
v 0.105207 0.491345 -0.150443
v 0.106291 0.491322 -0.150455
v 0.105445 0.504939 -0.154870
v 0.105445 0.504939 -0.154870
v 0.105188 0.491365 -0.152247
v 0.105207 0.491345 -0.150443
v 0.105427 0.504959 -0.156674
v 0.106273 0.491342 -0.152259
v 0.106530 0.504916 -0.154881
v 0.106291 0.491322 -0.150455
v 0.106511 0.504936 -0.156685
v 0.106555 0.504889 -0.152495
v 0.105488 0.504891 -0.150680
v 0.106573 0.504869 -0.150692
v 0.105470 0.504912 -0.152484
v 0.105231 0.491318 -0.148057
v 0.106555 0.504889 -0.152495
v 0.106316 0.491295 -0.148069
v 0.105470 0.504912 -0.152484
v 0.105250 0.491297 -0.146254
v 0.106316 0.491295 -0.148069
v 0.106335 0.491275 -0.146265
v 0.105231 0.491318 -0.148057
v 0.106573 0.504869 -0.150692
v 0.105250 0.491297 -0.146254
v 0.106335 0.491275 -0.146265
v 0.105488 0.504891 -0.150680
v 0.105488 0.504891 -0.150680
v 0.105231 0.491318 -0.148057
v 0.105250 0.491297 -0.146254
v 0.105470 0.504912 -0.152484
v 0.106316 0.491295 -0.148069
v 0.106573 0.504869 -0.150692
v 0.106335 0.491275 -0.146265
v 0.106555 0.504889 -0.152495
v 0.106595 0.504845 -0.148563
v 0.105529 0.504847 -0.146748
v 0.106614 0.504824 -0.146760
v 0.105510 0.504867 -0.148552
v 0.105272 0.491273 -0.144125
v 0.106595 0.504845 -0.148563
v 0.106357 0.491251 -0.144137
v 0.105510 0.504867 -0.148552
v 0.105290 0.491253 -0.142322
v 0.106357 0.491251 -0.144137
v 0.106375 0.491230 -0.142333
v 0.105272 0.491273 -0.144125
v 0.106614 0.504824 -0.146760
v 0.105290 0.491253 -0.142322
v 0.106375 0.491230 -0.142333
v 0.105529 0.504847 -0.146748
v 0.105529 0.504847 -0.146748
v 0.105272 0.491273 -0.144125
v 0.105290 0.491253 -0.142322
v 0.105510 0.504867 -0.148552
v 0.106357 0.491251 -0.144137
v 0.106614 0.504824 -0.146760
v 0.106375 0.491230 -0.142333
v 0.106595 0.504845 -0.148563
v 0.104404 0.491399 -0.240852
v 0.104521 0.496902 -0.240791
v 0.088683 0.497234 -0.240624
v 0.096608 0.491452 -0.228975
v 0.104404 0.491399 -0.240852
v 0.104529 0.491266 -0.229059
v 0.096486 0.491565 -0.240768
v 0.104521 0.496902 -0.240791
v 0.104529 0.491266 -0.229059
v 0.104404 0.491399 -0.240852
v 0.104646 0.496768 -0.228998
v 0.105564 0.496058 -0.166606
v 0.105681 0.502473 -0.167786
v 0.105696 0.502460 -0.166477
v 0.105548 0.496072 -0.167914
v 0.097109 0.507879 -0.214177
v 0.097292 0.507698 -0.196414
v 0.102730 0.507764 -0.214177
v 0.102916 0.507578 -0.196419
v 0.102730 0.507764 -0.214177
v 0.102916 0.507578 -0.196419
v 0.104251 0.503321 -0.196483
v 0.104062 0.503516 -0.214239
v 0.105429 0.490393 -0.167998
v 0.105764 0.490225 -0.166644
v 0.105746 0.490241 -0.168060
v 0.105445 0.490378 -0.166689
v 0.105445 0.490378 -0.166689
v 0.105548 0.496072 -0.167914
v 0.105564 0.496058 -0.166606
v 0.105429 0.490393 -0.167998
v 0.097604 0.507462 -0.166397
v 0.103741 0.507322 -0.166398
v 0.103726 0.507333 -0.167707
v 0.097590 0.507471 -0.167707
v 0.103726 0.507333 -0.167707
v 0.105696 0.502460 -0.166477
v 0.105681 0.502473 -0.167786
v 0.103741 0.507322 -0.166398
v 0.097397 0.483610 -0.138600
v 0.091303 0.485543 -0.136711
v 0.091246 0.483739 -0.138535
v 0.097454 0.485414 -0.136776
v 0.091246 0.483739 -0.138535
v 0.091092 0.477691 -0.141080
v 0.097243 0.477562 -0.141145
v 0.089460 0.485337 -0.143291
v 0.089301 0.479066 -0.145908
v 0.091092 0.477691 -0.141080
v 0.091246 0.483739 -0.138535
v 0.089460 0.485337 -0.143291
v 0.089346 0.483034 -0.149523
v 0.089301 0.479066 -0.145908
v 0.088755 0.447658 -0.135227
v 0.088727 0.458065 -0.158586
v 0.088357 0.438583 -0.154905
v 0.089010 0.461446 -0.138529
v 0.091117 0.436312 -0.159746
v 0.096261 0.438198 -0.156015
v 0.096179 0.436205 -0.159799
v 0.090013 0.438329 -0.155949
v 0.089352 0.490972 -0.164750
v 0.088849 0.491478 -0.208323
v 0.089233 0.485340 -0.164836
v 0.088730 0.485817 -0.208386
v 0.090849 0.463075 -0.135123
v 0.090605 0.449876 -0.132009
v 0.096755 0.449747 -0.132074
v 0.096999 0.462946 -0.135188
v 0.089301 0.479066 -0.145908
v 0.088927 0.468873 -0.161175
v 0.089141 0.471161 -0.145359
v 0.089346 0.483034 -0.149523
v 0.089233 0.485340 -0.164836
v 0.089412 0.445343 -0.134216
v 0.088543 0.439467 -0.139095
v 0.089233 0.439227 -0.138989
v 0.088719 0.445471 -0.134310
v 0.096755 0.449747 -0.132074
v 0.091174 0.448920 -0.132238
v 0.096733 0.448803 -0.132297
v 0.090605 0.449876 -0.132009
v 0.089060 0.438324 -0.153682
v 0.088543 0.439467 -0.139095
v 0.088357 0.438583 -0.154905
v 0.089233 0.439227 -0.138989
v 0.089370 0.438588 -0.157312
v 0.096251 0.438444 -0.157384
v 0.090013 0.438329 -0.155949
v 0.096261 0.438198 -0.156015
v 0.091174 0.448920 -0.132238
v 0.088719 0.445471 -0.134310
v 0.089412 0.445343 -0.134216
v 0.090605 0.449876 -0.132009
v 0.089233 0.485340 -0.164836
v 0.088730 0.485817 -0.208386
v 0.090195 0.482772 -0.166914
v 0.089905 0.483209 -0.208428
v 0.091303 0.485543 -0.136711
v 0.089460 0.485337 -0.143291
v 0.091246 0.483739 -0.138535
v 0.089622 0.490676 -0.138604
v 0.089010 0.461446 -0.138529
v 0.090605 0.449876 -0.132009
v 0.090849 0.463075 -0.135123
v 0.088755 0.447658 -0.135227
v 0.089704 0.490586 -0.130581
v 0.091303 0.485543 -0.136711
v 0.091382 0.485629 -0.129371
v 0.089622 0.490676 -0.138604
v 0.089141 0.471161 -0.145359
v 0.088727 0.458065 -0.158586
v 0.089010 0.461446 -0.138529
v 0.088927 0.468873 -0.161175
v 0.089141 0.471161 -0.145359
v 0.089010 0.461446 -0.138529
v 0.090961 0.471399 -0.140987
v 0.090849 0.463075 -0.135123
v 0.089346 0.483034 -0.149523
v 0.089352 0.490972 -0.164750
v 0.089233 0.485340 -0.164836
v 0.089622 0.490676 -0.138604
v 0.089460 0.485337 -0.143291
v 0.088755 0.447658 -0.135227
v 0.088719 0.445471 -0.134310
v 0.090605 0.449876 -0.132009
v 0.089370 0.438588 -0.157312
v 0.096599 0.456842 -0.161023
v 0.096251 0.438444 -0.157384
v 0.089717 0.456987 -0.160950
v 0.090195 0.482772 -0.166914
v 0.088927 0.468873 -0.161175
v 0.089233 0.485340 -0.164836
v 0.089936 0.468842 -0.163817
v 0.088927 0.468873 -0.161175
v 0.089717 0.456987 -0.160950
v 0.088727 0.458065 -0.158586
v 0.089936 0.468842 -0.163817
v 0.089905 0.483209 -0.208428
v 0.097077 0.482627 -0.166987
v 0.090195 0.482772 -0.166914
v 0.088357 0.438583 -0.154905
v 0.089717 0.456987 -0.160950
v 0.089370 0.438588 -0.157312
v 0.088727 0.458065 -0.158586
v 0.089936 0.468842 -0.163817
v 0.096599 0.456842 -0.161023
v 0.089717 0.456987 -0.160950
v 0.096817 0.468698 -0.163889
v 0.091092 0.477691 -0.141080
v 0.089141 0.471161 -0.145359
v 0.090961 0.471399 -0.140987
v 0.089301 0.479066 -0.145908
v 0.097243 0.477562 -0.141145
v 0.090961 0.471399 -0.140987
v 0.097112 0.471270 -0.141052
v 0.091092 0.477691 -0.141080
v 0.091303 0.485543 -0.136711
v 0.097533 0.485500 -0.129436
v 0.091382 0.485629 -0.129371
v 0.097454 0.485414 -0.136776
v 0.091382 0.485629 -0.129371
v 0.097627 0.490415 -0.130266
v 0.089704 0.490586 -0.130581
v 0.097533 0.485500 -0.129436
v 0.090013 0.438329 -0.155949
v 0.088357 0.438583 -0.154905
v 0.089370 0.438588 -0.157312
v 0.089060 0.438324 -0.153682
v 0.088543 0.439467 -0.139095
v 0.088719 0.445471 -0.134310
v 0.088755 0.447658 -0.135227
v 0.088357 0.438583 -0.154905
v 0.089936 0.468842 -0.163817
v 0.097077 0.482627 -0.166987
v 0.096817 0.468698 -0.163889
v 0.090195 0.482772 -0.166914
v 0.088730 0.485817 -0.208386
v 0.096648 0.483067 -0.208499
v 0.089905 0.483209 -0.208428
v 0.096822 0.491311 -0.208407
v 0.090013 0.438329 -0.155949
v 0.091117 0.436312 -0.159746
v 0.090163 0.436307 -0.157479
v 0.089060 0.438324 -0.153682
v 0.103604 0.485285 -0.136841
v 0.097397 0.483610 -0.138600
v 0.103547 0.483481 -0.138664
v 0.097454 0.485414 -0.136776
v 0.097397 0.483610 -0.138600
v 0.103547 0.483481 -0.138664
v 0.103393 0.477433 -0.141210
v 0.105298 0.485005 -0.143458
v 0.103393 0.477433 -0.141210
v 0.105139 0.478734 -0.146075
v 0.103547 0.483481 -0.138664
v 0.105298 0.485005 -0.143458
v 0.105139 0.478734 -0.146075
v 0.105184 0.482702 -0.149690
v 0.104592 0.447325 -0.135394
v 0.104564 0.457732 -0.158753
v 0.104847 0.461114 -0.138696
v 0.104195 0.438251 -0.155072
v 0.103150 0.462817 -0.135253
v 0.097112 0.471270 -0.141052
v 0.096999 0.462946 -0.135188
v 0.090961 0.471399 -0.140987
v 0.090849 0.463075 -0.135123
v 0.103262 0.471141 -0.141117
v 0.096261 0.438198 -0.156015
v 0.102508 0.438067 -0.156081
v 0.101241 0.436099 -0.159853
v 0.096179 0.436205 -0.159799
v 0.104795 0.491143 -0.208492
v 0.105071 0.485008 -0.165003
v 0.104676 0.485483 -0.208554
v 0.105190 0.490640 -0.164917
v 0.103150 0.462817 -0.135253
v 0.096755 0.449747 -0.132074
v 0.102906 0.449618 -0.132139
v 0.096999 0.462946 -0.135188
v 0.105139 0.478734 -0.146075
v 0.104764 0.468541 -0.161342
v 0.105184 0.482702 -0.149690
v 0.104979 0.470829 -0.145526
v 0.105071 0.485008 -0.165003
v 0.104380 0.439135 -0.139262
v 0.103860 0.445040 -0.134368
v 0.103682 0.438923 -0.139141
v 0.104556 0.445139 -0.134477
v 0.102292 0.448687 -0.132355
v 0.096755 0.449747 -0.132074
v 0.096733 0.448803 -0.132297
v 0.102906 0.449618 -0.132139
v 0.103508 0.438021 -0.153835
v 0.104380 0.439135 -0.139262
v 0.103682 0.438923 -0.139141
v 0.104195 0.438251 -0.155072
v 0.096251 0.438444 -0.157384
v 0.102508 0.438067 -0.156081
v 0.096261 0.438198 -0.156015
v 0.103133 0.438300 -0.157457
v 0.104556 0.445139 -0.134477
v 0.102292 0.448687 -0.132355
v 0.103860 0.445040 -0.134368
v 0.102906 0.449618 -0.132139
v 0.104676 0.485483 -0.208554
v 0.105071 0.485008 -0.165003
v 0.103958 0.482483 -0.167059
v 0.103391 0.482926 -0.208570
v 0.103604 0.485285 -0.136841
v 0.105298 0.485005 -0.143458
v 0.105459 0.490344 -0.138771
v 0.103547 0.483481 -0.138664
v 0.104592 0.447325 -0.135394
v 0.104847 0.461114 -0.138696
v 0.102906 0.449618 -0.132139
v 0.103150 0.462817 -0.135253
v 0.103604 0.485285 -0.136841
v 0.105542 0.490254 -0.130748
v 0.103683 0.485371 -0.129501
v 0.105459 0.490344 -0.138771
v 0.104564 0.457732 -0.158753
v 0.104979 0.470829 -0.145526
v 0.104847 0.461114 -0.138696
v 0.104764 0.468541 -0.161342
v 0.104847 0.461114 -0.138696
v 0.104979 0.470829 -0.145526
v 0.103262 0.471141 -0.141117
v 0.103150 0.462817 -0.135253
v 0.105190 0.490640 -0.164917
v 0.105184 0.482702 -0.149690
v 0.105071 0.485008 -0.165003
v 0.105459 0.490344 -0.138771
v 0.105298 0.485005 -0.143458
v 0.104592 0.447325 -0.135394
v 0.102906 0.449618 -0.132139
v 0.104556 0.445139 -0.134477
v 0.103133 0.438300 -0.157457
v 0.096599 0.456842 -0.161023
v 0.103480 0.456698 -0.161096
v 0.096251 0.438444 -0.157384
v 0.103958 0.482483 -0.167059
v 0.104764 0.468541 -0.161342
v 0.103699 0.468554 -0.163962
v 0.105071 0.485008 -0.165003
v 0.103480 0.456698 -0.161096
v 0.104764 0.468541 -0.161342
v 0.104564 0.457732 -0.158753
v 0.103699 0.468554 -0.163962
v 0.103391 0.482926 -0.208570
v 0.096648 0.483067 -0.208499
v 0.103958 0.482483 -0.167059
v 0.104195 0.438251 -0.155072
v 0.103480 0.456698 -0.161096
v 0.104564 0.457732 -0.158753
v 0.103133 0.438300 -0.157457
v 0.103699 0.468554 -0.163962
v 0.103480 0.456698 -0.161096
v 0.104979 0.470829 -0.145526
v 0.103393 0.477433 -0.141210
v 0.103262 0.471141 -0.141117
v 0.105139 0.478734 -0.146075
v 0.103262 0.471141 -0.141117
v 0.097243 0.477562 -0.141145
v 0.097112 0.471270 -0.141052
v 0.103393 0.477433 -0.141210
v 0.097533 0.485500 -0.129436
v 0.103604 0.485285 -0.136841
v 0.103683 0.485371 -0.129501
v 0.097454 0.485414 -0.136776
v 0.103683 0.485371 -0.129501
v 0.097627 0.490415 -0.130266
v 0.097533 0.485500 -0.129436
v 0.105542 0.490254 -0.130748
v 0.104195 0.438251 -0.155072
v 0.102508 0.438067 -0.156081
v 0.103133 0.438300 -0.157457
v 0.103508 0.438021 -0.153835
v 0.104380 0.439135 -0.139262
v 0.104592 0.447325 -0.135394
v 0.104556 0.445139 -0.134477
v 0.104195 0.438251 -0.155072
v 0.103699 0.468554 -0.163962
v 0.097077 0.482627 -0.166987
v 0.103958 0.482483 -0.167059
v 0.096817 0.468698 -0.163889
v 0.104676 0.485483 -0.208554
v 0.104795 0.491143 -0.208492
v 0.088849 0.491478 -0.208323
v 0.103391 0.482926 -0.208570
v 0.103508 0.438021 -0.153835
v 0.102241 0.436053 -0.157606
v 0.102508 0.438067 -0.156081
v 0.101241 0.436099 -0.159853
v 0.099780 0.506614 -0.128043
v 0.096172 0.504722 -0.126999
v 0.099749 0.504646 -0.127036
v 0.096203 0.506689 -0.128005
v 0.100066 0.507367 -0.129521
v 0.096203 0.506689 -0.128005
v 0.099780 0.506614 -0.128043
v 0.095917 0.507454 -0.129478
v 0.099995 0.502982 -0.127269
v 0.096172 0.504722 -0.126999
v 0.095852 0.503069 -0.127225
v 0.099749 0.504646 -0.127036
v 0.100563 0.499591 -0.131335
v 0.100066 0.507367 -0.129521
v 0.099995 0.502982 -0.127269
v 0.099749 0.504646 -0.127036
v 0.099780 0.506614 -0.128043
v 0.100627 0.504917 -0.135921
v 0.095056 0.499707 -0.131277
v 0.095917 0.507454 -0.129478
v 0.095120 0.505032 -0.135863
v 0.096172 0.504722 -0.126999
v 0.096203 0.506689 -0.128005
v 0.095852 0.503069 -0.127225
v 0.095056 0.499707 -0.131277
v 0.099995 0.502982 -0.127269
v 0.095852 0.503069 -0.127225
v 0.100563 0.499591 -0.131335
v 0.100627 0.504917 -0.135921
v 0.095917 0.507454 -0.129478
v 0.100066 0.507367 -0.129521
v 0.095120 0.505032 -0.135863
v 0.095056 0.499707 -0.131277
v 0.100627 0.504917 -0.135921
v 0.100563 0.499591 -0.131335
v 0.095120 0.505032 -0.135863
v 0.098177 0.512465 -0.230286
v 0.095843 0.508825 -0.227724
v 0.098127 0.508777 -0.227748
v 0.095894 0.512513 -0.230262
v 0.098026 0.508887 -0.237502
v 0.098177 0.512465 -0.230286
v 0.098127 0.508777 -0.227748
v 0.098072 0.510932 -0.237211
v 0.095743 0.508935 -0.237478
v 0.098072 0.510932 -0.237211
v 0.098026 0.508887 -0.237502
v 0.095789 0.510980 -0.237187
v 0.095743 0.508935 -0.237478
v 0.095843 0.508825 -0.227724
v 0.095894 0.512513 -0.230262
v 0.095789 0.510980 -0.237187
v 0.095789 0.510980 -0.237187
v 0.095894 0.512513 -0.230262
v 0.098072 0.510932 -0.237211
v 0.098177 0.512465 -0.230286
v 0.098026 0.508887 -0.237502
v 0.095843 0.508825 -0.227724
v 0.095743 0.508935 -0.237478
v 0.098127 0.508777 -0.227748
v 0.100429 0.470027 -0.188096
v 0.092755 0.470188 -0.188015
v 0.092701 0.469339 -0.191415
v 0.100376 0.469178 -0.191496
v 0.092701 0.469339 -0.191415
v 0.092768 0.473315 -0.192251
v 0.092651 0.469130 -0.195004
v 0.092755 0.470188 -0.188015
v 0.100458 0.473154 -0.192332
v 0.100377 0.472040 -0.196725
v 0.100509 0.477168 -0.194387
v 0.100341 0.468969 -0.195085
v 0.100458 0.473154 -0.192332
v 0.100429 0.470027 -0.188096
v 0.100376 0.469178 -0.191496
v 0.100341 0.468969 -0.195085
v 0.092701 0.469339 -0.191415
v 0.100341 0.468969 -0.195085
v 0.100376 0.469178 -0.191496
v 0.092651 0.469130 -0.195004
v 0.092651 0.469130 -0.195004
v 0.100377 0.472040 -0.196725
v 0.100341 0.468969 -0.195085
v 0.092710 0.472200 -0.196644
v 0.092842 0.477329 -0.194307
v 0.092768 0.473315 -0.192251
v 0.092896 0.477669 -0.192364
v 0.092862 0.474871 -0.190662
v 0.100561 0.480266 -0.195192
v 0.100510 0.477509 -0.192445
v 0.100509 0.477168 -0.194387
v 0.100586 0.480894 -0.193080
v 0.100586 0.480894 -0.193080
v 0.092949 0.481054 -0.193000
v 0.092896 0.477669 -0.192364
v 0.100510 0.477509 -0.192445
v 0.092842 0.477329 -0.194307
v 0.100561 0.480266 -0.195192
v 0.100509 0.477168 -0.194387
v 0.092903 0.480426 -0.195111
v 0.092896 0.477669 -0.192364
v 0.092903 0.480426 -0.195111
v 0.092842 0.477329 -0.194307
v 0.092949 0.481054 -0.193000
v 0.100772 0.487543 -0.193006
v 0.092949 0.481054 -0.193000
v 0.100586 0.480894 -0.193080
v 0.093043 0.487705 -0.192924
v 0.100463 0.474711 -0.190742
v 0.100429 0.470027 -0.188096
v 0.100458 0.473154 -0.192332
v 0.100470 0.472877 -0.187093
v 0.100470 0.472877 -0.187093
v 0.092862 0.474871 -0.190662
v 0.092854 0.473037 -0.187013
v 0.100463 0.474711 -0.190742
v 0.092710 0.472200 -0.196644
v 0.100509 0.477168 -0.194387
v 0.100377 0.472040 -0.196725
v 0.092842 0.477329 -0.194307
v 0.092755 0.470188 -0.188015
v 0.092862 0.474871 -0.190662
v 0.092768 0.473315 -0.192251
v 0.092854 0.473037 -0.187013
v 0.092768 0.473315 -0.192251
v 0.092842 0.477329 -0.194307
v 0.092710 0.472200 -0.196644
v 0.092651 0.469130 -0.195004
v 0.100510 0.477509 -0.192445
v 0.100458 0.473154 -0.192332
v 0.100509 0.477168 -0.194387
v 0.100463 0.474711 -0.190742
v 0.100510 0.477509 -0.192445
v 0.092896 0.477669 -0.192364
v 0.092862 0.474871 -0.190662
v 0.100463 0.474711 -0.190742
v 0.100748 0.487578 -0.195448
v 0.093043 0.487705 -0.192924
v 0.100772 0.487543 -0.193006
v 0.093017 0.487740 -0.195367
v 0.092844 0.469805 -0.179991
v 0.100429 0.470027 -0.188096
v 0.100494 0.469644 -0.180072
v 0.092755 0.470188 -0.188015
v 0.100470 0.472877 -0.187093
v 0.100494 0.469644 -0.180072
v 0.100429 0.470027 -0.188096
v 0.100515 0.471197 -0.179865
v 0.092844 0.469805 -0.179991
v 0.092854 0.473037 -0.187013
v 0.092755 0.470188 -0.188015
v 0.092891 0.471357 -0.179785
v 0.092949 0.481054 -0.193000
v 0.093017 0.487740 -0.195367
v 0.092903 0.480426 -0.195111
v 0.093043 0.487705 -0.192924
v 0.092903 0.480426 -0.195111
v 0.100748 0.487578 -0.195448
v 0.100561 0.480266 -0.195192
v 0.093017 0.487740 -0.195367
v 0.100748 0.487578 -0.195448
v 0.100586 0.480894 -0.193080
v 0.100561 0.480266 -0.195192
v 0.100772 0.487543 -0.193006
v 0.100515 0.471197 -0.179865
v 0.092854 0.473037 -0.187013
v 0.092891 0.471357 -0.179785
v 0.100470 0.472877 -0.187093
v 0.100624 0.470128 -0.168957
v 0.092968 0.470288 -0.168876
v 0.092844 0.469805 -0.179991
v 0.100494 0.469644 -0.180072
v 0.100515 0.471197 -0.179865
v 0.100624 0.470128 -0.168957
v 0.100494 0.469644 -0.180072
v 0.100678 0.473454 -0.168278
v 0.092968 0.470288 -0.168876
v 0.092891 0.471357 -0.179785
v 0.092844 0.469805 -0.179991
v 0.093068 0.473614 -0.168198
v 0.093009 0.471228 -0.163280
v 0.100624 0.470128 -0.168957
v 0.100740 0.471065 -0.163361
v 0.092968 0.470288 -0.168876
v 0.100678 0.473454 -0.168278
v 0.100740 0.471065 -0.163361
v 0.100624 0.470128 -0.168957
v 0.100853 0.476744 -0.164507
v 0.093009 0.471228 -0.163280
v 0.093110 0.476906 -0.164425
v 0.093068 0.473614 -0.168198
v 0.092968 0.470288 -0.168876
v 0.100853 0.476744 -0.164507
v 0.093068 0.473614 -0.168198
v 0.093110 0.476906 -0.164425
v 0.100678 0.473454 -0.168278
v 0.093068 0.473614 -0.168198
v 0.100678 0.473454 -0.168278
v 0.100515 0.471197 -0.179865
v 0.092891 0.471357 -0.179785
v 0.100740 0.471065 -0.163361
v 0.093110 0.476906 -0.164425
v 0.093009 0.471228 -0.163280
v 0.100853 0.476744 -0.164507
v 0.096432 0.437578 -0.138518
v 0.089208 0.437730 -0.138442
v 0.089014 0.435554 -0.152538
v 0.089014 0.435554 -0.152538
v 0.090163 0.436307 -0.157479
v 0.090133 0.434837 -0.157409
v 0.089060 0.438324 -0.153682
v 0.090133 0.434837 -0.157409
v 0.096144 0.434320 -0.159343
v 0.089014 0.435554 -0.152538
v 0.091083 0.434495 -0.159327
v 0.096432 0.437578 -0.138518
v 0.091083 0.434495 -0.159327
v 0.090163 0.436307 -0.157479
v 0.091117 0.436312 -0.159746
v 0.090133 0.434837 -0.157409
v 0.091117 0.436312 -0.159746
v 0.096179 0.436205 -0.159799
v 0.091083 0.434495 -0.159327
v 0.096144 0.434320 -0.159343
v 0.089233 0.439227 -0.138989
v 0.089386 0.443847 -0.133670
v 0.089412 0.445343 -0.134216
v 0.089208 0.437730 -0.138442
v 0.096733 0.448803 -0.132297
v 0.091174 0.448920 -0.132238
v 0.096707 0.447307 -0.131750
v 0.091149 0.447423 -0.131691
v 0.089412 0.445343 -0.134216
v 0.091149 0.447423 -0.131691
v 0.091174 0.448920 -0.132238
v 0.089386 0.443847 -0.133670
v 0.089386 0.443847 -0.133670
v 0.096707 0.447307 -0.131750
v 0.091149 0.447423 -0.131691
v 0.089208 0.437730 -0.138442
v 0.096432 0.437578 -0.138518
v 0.089233 0.439227 -0.138989
v 0.089014 0.435554 -0.152538
v 0.089208 0.437730 -0.138442
v 0.089060 0.438324 -0.153682
v 0.096432 0.437578 -0.138518
v 0.103462 0.435251 -0.152691
v 0.103656 0.437427 -0.138595
v 0.103462 0.435251 -0.152691
v 0.102241 0.436053 -0.157606
v 0.103508 0.438021 -0.153835
v 0.102211 0.434584 -0.157536
v 0.103462 0.435251 -0.152691
v 0.096432 0.437578 -0.138518
v 0.096144 0.434320 -0.159343
v 0.102211 0.434584 -0.157536
v 0.101207 0.434282 -0.159434
v 0.101207 0.434282 -0.159434
v 0.102241 0.436053 -0.157606
v 0.102211 0.434584 -0.157536
v 0.101241 0.436099 -0.159853
v 0.096179 0.436205 -0.159799
v 0.101207 0.434282 -0.159434
v 0.096144 0.434320 -0.159343
v 0.101241 0.436099 -0.159853
v 0.103682 0.438923 -0.139141
v 0.103860 0.445040 -0.134368
v 0.103835 0.443544 -0.133822
v 0.103656 0.437427 -0.138595
v 0.102292 0.448687 -0.132355
v 0.096733 0.448803 -0.132297
v 0.096707 0.447307 -0.131750
v 0.102266 0.447190 -0.131809
v 0.103860 0.445040 -0.134368
v 0.102292 0.448687 -0.132355
v 0.102266 0.447190 -0.131809
v 0.103835 0.443544 -0.133822
v 0.103835 0.443544 -0.133822
v 0.096432 0.437578 -0.138518
v 0.103656 0.437427 -0.138595
v 0.096707 0.447307 -0.131750
v 0.102266 0.447190 -0.131809
v 0.103462 0.435251 -0.152691
v 0.103682 0.438923 -0.139141
v 0.103656 0.437427 -0.138595
v 0.103508 0.438021 -0.153835
v 0.095562 0.505556 -0.244444
v 0.098149 0.505253 -0.222069
v 0.095793 0.505303 -0.222044
v 0.097918 0.505507 -0.244468
v 0.093624 0.504038 -0.244441
v 0.095793 0.505303 -0.222044
v 0.093854 0.503785 -0.222041
v 0.095562 0.505556 -0.244444
v 0.093517 0.498996 -0.244497
v 0.093073 0.501279 -0.222062
v 0.093748 0.498743 -0.222097
v 0.092842 0.501532 -0.244461
v 0.095390 0.497398 -0.244534
v 0.093748 0.498743 -0.222097
v 0.095621 0.497145 -0.222135
v 0.093517 0.498996 -0.244497
v 0.097746 0.497349 -0.244559
v 0.095621 0.497145 -0.222135
v 0.097977 0.497096 -0.222160
v 0.095390 0.497398 -0.244534
v 0.099685 0.498867 -0.244562
v 0.097977 0.497096 -0.222160
v 0.099916 0.498614 -0.222162
v 0.097746 0.497349 -0.244559
v 0.092842 0.501532 -0.244461
v 0.093854 0.503785 -0.222041
v 0.093073 0.501279 -0.222062
v 0.093624 0.504038 -0.244441
v 0.100697 0.501119 -0.222142
v 0.100466 0.501373 -0.244541
v 0.099916 0.498614 -0.222162
v 0.099685 0.498867 -0.244562
v 0.100022 0.503656 -0.222106
v 0.099791 0.503909 -0.244506
v 0.100697 0.501119 -0.222142
v 0.100466 0.501373 -0.244541
v 0.093073 0.501279 -0.222062
v 0.097977 0.497096 -0.222160
v 0.093748 0.498743 -0.222097
v 0.100022 0.503656 -0.222106
v 0.093854 0.503785 -0.222041
v 0.095793 0.505303 -0.222044
v 0.098149 0.505253 -0.222069
v 0.095621 0.497145 -0.222135
v 0.100697 0.501119 -0.222142
v 0.099916 0.498614 -0.222162
v 0.097918 0.505507 -0.244468
v 0.100022 0.503656 -0.222106
v 0.098149 0.505253 -0.222069
v 0.099791 0.503909 -0.244506
v 0.093624 0.504038 -0.244441
v 0.091685 0.501553 -0.244159
v 0.092704 0.504822 -0.244132
v 0.092842 0.501532 -0.244461
v 0.092704 0.504822 -0.244132
v 0.095233 0.506802 -0.244136
v 0.095562 0.505556 -0.244444
v 0.093624 0.504038 -0.244441
v 0.095233 0.506802 -0.244136
v 0.097918 0.505507 -0.244468
v 0.095562 0.505556 -0.244444
v 0.098306 0.506738 -0.244168
v 0.100749 0.504653 -0.244217
v 0.097918 0.505507 -0.244468
v 0.098306 0.506738 -0.244168
v 0.099791 0.503909 -0.244506
v 0.101630 0.501345 -0.244263
v 0.099791 0.503909 -0.244506
v 0.100749 0.504653 -0.244217
v 0.100466 0.501373 -0.244541
v 0.100466 0.501373 -0.244541
v 0.100611 0.498076 -0.244290
v 0.099685 0.498867 -0.244562
v 0.101630 0.501345 -0.244263
v 0.100611 0.498076 -0.244290
v 0.097746 0.497349 -0.244559
v 0.099685 0.498867 -0.244562
v 0.098082 0.496096 -0.244286
v 0.098082 0.496096 -0.244286
v 0.095390 0.497398 -0.244534
v 0.097746 0.497349 -0.244559
v 0.095008 0.496161 -0.244254
v 0.092565 0.498245 -0.244205
v 0.095390 0.497398 -0.244534
v 0.095008 0.496161 -0.244254
v 0.093517 0.498996 -0.244497
v 0.092565 0.498245 -0.244205
v 0.092842 0.501532 -0.244461
v 0.093517 0.498996 -0.244497
v 0.091685 0.501553 -0.244159
v 0.098549 0.506471 -0.220592
v 0.100854 0.497810 -0.220713
v 0.101873 0.501079 -0.220687
v 0.100992 0.504387 -0.220640
v 0.091928 0.501287 -0.220582
v 0.095476 0.506536 -0.220559
v 0.092947 0.504556 -0.220556
v 0.092808 0.497979 -0.220628
v 0.095251 0.495894 -0.220677
v 0.098325 0.495830 -0.220710
v 0.095008 0.496161 -0.244254
v 0.095251 0.495894 -0.220677
v 0.092808 0.497979 -0.220628
v 0.092565 0.498245 -0.244205
v 0.091928 0.501287 -0.220582
v 0.092565 0.498245 -0.244205
v 0.092808 0.497979 -0.220628
v 0.091685 0.501553 -0.244159
v 0.095233 0.506802 -0.244136
v 0.092947 0.504556 -0.220556
v 0.095476 0.506536 -0.220559
v 0.092704 0.504822 -0.244132
v 0.098306 0.506738 -0.244168
v 0.095476 0.506536 -0.220559
v 0.098549 0.506471 -0.220592
v 0.095233 0.506802 -0.244136
v 0.100749 0.504653 -0.244217
v 0.098549 0.506471 -0.220592
v 0.100992 0.504387 -0.220640
v 0.098306 0.506738 -0.244168
v 0.100749 0.504653 -0.244217
v 0.101873 0.501079 -0.220687
v 0.101630 0.501345 -0.244263
v 0.100992 0.504387 -0.220640
v 0.101630 0.501345 -0.244263
v 0.100854 0.497810 -0.220713
v 0.100611 0.498076 -0.244290
v 0.101873 0.501079 -0.220687
v 0.100611 0.498076 -0.244290
v 0.098325 0.495830 -0.220710
v 0.098082 0.496096 -0.244286
v 0.100854 0.497810 -0.220713
v 0.098082 0.496096 -0.244286
v 0.098325 0.495830 -0.220710
v 0.095251 0.495894 -0.220677
v 0.095008 0.496161 -0.244254
v 0.092947 0.504556 -0.220556
v 0.091685 0.501553 -0.244159
v 0.091928 0.501287 -0.220582
v 0.092704 0.504822 -0.244132
v 0.096708 0.463762 -0.164440
v 0.088320 0.464530 -0.161862
v 0.089314 0.463917 -0.164362
v 0.096826 0.465574 -0.156817
v 0.088400 0.465750 -0.156728
v 0.088320 0.464530 -0.161862
v 0.089402 0.468695 -0.165446
v 0.089314 0.463917 -0.164362
v 0.088409 0.469308 -0.162947
v 0.096708 0.463762 -0.164440
v 0.089402 0.468695 -0.165446
v 0.096797 0.468540 -0.165524
v 0.089314 0.463917 -0.164362
v 0.096797 0.468540 -0.165524
v 0.089402 0.468695 -0.165446
v 0.088409 0.469308 -0.162947
v 0.096915 0.470351 -0.157902
v 0.088489 0.470528 -0.157813
v 0.088400 0.465750 -0.156728
v 0.088409 0.469308 -0.162947
v 0.088320 0.464530 -0.161862
v 0.088489 0.470528 -0.157813
v 0.096915 0.470351 -0.157902
v 0.088489 0.470528 -0.157813
v 0.096826 0.465574 -0.156817
v 0.088400 0.465750 -0.156728
v 0.096826 0.465574 -0.156817
v 0.105173 0.464177 -0.162040
v 0.105253 0.465397 -0.156906
v 0.096708 0.463762 -0.164440
v 0.104102 0.463607 -0.164518
v 0.105173 0.464177 -0.162040
v 0.104191 0.468385 -0.165602
v 0.105262 0.468954 -0.163124
v 0.104102 0.463607 -0.164518
v 0.096708 0.463762 -0.164440
v 0.104191 0.468385 -0.165602
v 0.104102 0.463607 -0.164518
v 0.096797 0.468540 -0.165524
v 0.096797 0.468540 -0.165524
v 0.105262 0.468954 -0.163124
v 0.104191 0.468385 -0.165602
v 0.096915 0.470351 -0.157902
v 0.105342 0.470174 -0.157990
v 0.105253 0.465397 -0.156906
v 0.105262 0.468954 -0.163124
v 0.105342 0.470174 -0.157990
v 0.105173 0.464177 -0.162040
v 0.105342 0.470174 -0.157990
v 0.096826 0.465574 -0.156817
v 0.105253 0.465397 -0.156906
v 0.096915 0.470351 -0.157902
v 0.096565 0.456031 -0.162569
v 0.088178 0.456799 -0.159991
v 0.089171 0.456186 -0.162491
v 0.096684 0.457842 -0.154946
v 0.088257 0.458019 -0.154857
v 0.088178 0.456799 -0.159991
v 0.089260 0.460964 -0.163575
v 0.089171 0.456186 -0.162491
v 0.088266 0.461577 -0.161075
v 0.096565 0.456031 -0.162569
v 0.089260 0.460964 -0.163575
v 0.096654 0.460808 -0.163653
v 0.089171 0.456186 -0.162491
v 0.096654 0.460808 -0.163653
v 0.089260 0.460964 -0.163575
v 0.088266 0.461577 -0.161075
v 0.096773 0.462620 -0.156030
v 0.088346 0.462796 -0.155941
v 0.088257 0.458019 -0.154857
v 0.088266 0.461577 -0.161075
v 0.088178 0.456799 -0.159991
v 0.088346 0.462796 -0.155941
v 0.096773 0.462620 -0.156030
v 0.088346 0.462796 -0.155941
v 0.096684 0.457842 -0.154946
v 0.088257 0.458019 -0.154857
v 0.096684 0.457842 -0.154946
v 0.105031 0.456446 -0.160168
v 0.105110 0.457666 -0.155035
v 0.096565 0.456031 -0.162569
v 0.103960 0.455876 -0.162647
v 0.105031 0.456446 -0.160168
v 0.104048 0.460653 -0.163731
v 0.105119 0.461223 -0.161253
v 0.103960 0.455876 -0.162647
v 0.096565 0.456031 -0.162569
v 0.104048 0.460653 -0.163731
v 0.103960 0.455876 -0.162647
v 0.096654 0.460808 -0.163653
v 0.096654 0.460808 -0.163653
v 0.105119 0.461223 -0.161253
v 0.104048 0.460653 -0.163731
v 0.096773 0.462620 -0.156030
v 0.105199 0.462443 -0.156119
v 0.105110 0.457666 -0.155035
v 0.105119 0.461223 -0.161253
v 0.105199 0.462443 -0.156119
v 0.105031 0.456446 -0.160168
v 0.105199 0.462443 -0.156119
v 0.096773 0.462620 -0.156030
v 0.096684 0.457842 -0.154946
v 0.105110 0.457666 -0.155035
v 0.096423 0.448300 -0.160697
v 0.088035 0.449068 -0.158119
v 0.089029 0.448455 -0.160619
v 0.096541 0.450111 -0.153074
v 0.088115 0.450288 -0.152985
v 0.088035 0.449068 -0.158119
v 0.089118 0.453232 -0.161703
v 0.089029 0.448455 -0.160619
v 0.088124 0.453845 -0.159203
v 0.096423 0.448300 -0.160697
v 0.089118 0.453232 -0.161703
v 0.096512 0.453077 -0.161781
v 0.089029 0.448455 -0.160619
v 0.096512 0.453077 -0.161781
v 0.089118 0.453232 -0.161703
v 0.088124 0.453845 -0.159203
v 0.096630 0.454888 -0.154158
v 0.088204 0.455065 -0.154070
v 0.088115 0.450288 -0.152985
v 0.088124 0.453845 -0.159203
v 0.088035 0.449068 -0.158119
v 0.088204 0.455065 -0.154070
v 0.096630 0.454888 -0.154158
v 0.088204 0.455065 -0.154070
v 0.096541 0.450111 -0.153074
v 0.088115 0.450288 -0.152985
v 0.096541 0.450111 -0.153074
v 0.104888 0.448715 -0.158297
v 0.104968 0.449934 -0.153163
v 0.096423 0.448300 -0.160697
v 0.103817 0.448145 -0.160775
v 0.104888 0.448715 -0.158297
v 0.103906 0.452922 -0.161859
v 0.104977 0.453492 -0.159381
v 0.103817 0.448145 -0.160775
v 0.096423 0.448300 -0.160697
v 0.103906 0.452922 -0.161859
v 0.103817 0.448145 -0.160775
v 0.096512 0.453077 -0.161781
v 0.096512 0.453077 -0.161781
v 0.104977 0.453492 -0.159381
v 0.103906 0.452922 -0.161859
v 0.096630 0.454888 -0.154158
v 0.105057 0.454712 -0.154247
v 0.104968 0.449934 -0.153163
v 0.104977 0.453492 -0.159381
v 0.105057 0.454712 -0.154247
v 0.104888 0.448715 -0.158297
v 0.105057 0.454712 -0.154247
v 0.096541 0.450111 -0.153074
v 0.104968 0.449934 -0.153163
v 0.096630 0.454888 -0.154158
v 0.096281 0.440569 -0.158825
v 0.087893 0.441337 -0.156248
v 0.088886 0.440724 -0.158747
v 0.096399 0.442380 -0.151203
v 0.087973 0.442557 -0.151114
v 0.087893 0.441337 -0.156248
v 0.088975 0.445501 -0.159832
v 0.088886 0.440724 -0.158747
v 0.087982 0.446114 -0.157332
v 0.096281 0.440569 -0.158825
v 0.088975 0.445501 -0.159832
v 0.096369 0.445346 -0.159910
v 0.088886 0.440724 -0.158747
v 0.096369 0.445346 -0.159910
v 0.088975 0.445501 -0.159832
v 0.087982 0.446114 -0.157332
v 0.096488 0.447157 -0.152287
v 0.088061 0.447334 -0.152198
v 0.087973 0.442557 -0.151114
v 0.087982 0.446114 -0.157332
v 0.087893 0.441337 -0.156248
v 0.088061 0.447334 -0.152198
v 0.087973 0.442557 -0.151114
v 0.096399 0.442380 -0.151203
v 0.088061 0.447334 -0.152198
v 0.096399 0.442380 -0.151203
v 0.104746 0.440984 -0.156425
v 0.104826 0.442203 -0.151291
v 0.096281 0.440569 -0.158825
v 0.103675 0.440414 -0.158903
v 0.104746 0.440984 -0.156425
v 0.103764 0.445191 -0.159988
v 0.104835 0.445761 -0.157510
v 0.103675 0.440414 -0.158903
v 0.096281 0.440569 -0.158825
v 0.103764 0.445191 -0.159988
v 0.103675 0.440414 -0.158903
v 0.096369 0.445346 -0.159910
v 0.096369 0.445346 -0.159910
v 0.104835 0.445761 -0.157510
v 0.103764 0.445191 -0.159988
v 0.096488 0.447157 -0.152287
v 0.104914 0.446981 -0.152376
v 0.104826 0.442203 -0.151291
v 0.104835 0.445761 -0.157510
v 0.104914 0.446981 -0.152376
v 0.104746 0.440984 -0.156425
v 0.096488 0.447157 -0.152287
v 0.104914 0.446981 -0.152376
v 0.104826 0.442203 -0.151291
v 0.094633 0.476394 -0.179480
v 0.094583 0.473291 -0.179137
v 0.094641 0.475595 -0.177186
v 0.094578 0.473178 -0.179795
v 0.094595 0.474268 -0.180806
v 0.094585 0.473680 -0.180660
v 0.094583 0.473291 -0.179137
v 0.098907 0.473087 -0.179840
v 0.098920 0.473200 -0.179183
v 0.094578 0.473178 -0.179795
v 0.094585 0.473680 -0.180660
v 0.098914 0.474177 -0.180852
v 0.098902 0.473590 -0.180706
v 0.094595 0.474268 -0.180806
v 0.099070 0.477703 -0.175853
v 0.094641 0.475595 -0.177186
v 0.099000 0.475503 -0.177232
v 0.094693 0.477795 -0.175807
v 0.094641 0.475595 -0.177186
v 0.094681 0.478864 -0.178876
v 0.094633 0.476394 -0.179480
v 0.094693 0.477795 -0.175807
v 0.099062 0.478773 -0.178922
v 0.099000 0.475503 -0.177232
v 0.098993 0.476303 -0.179526
v 0.099070 0.477703 -0.175853
v 0.094681 0.478864 -0.178876
v 0.099062 0.478773 -0.178922
v 0.098993 0.476303 -0.179526
v 0.094633 0.476394 -0.179480
v 0.094749 0.480431 -0.174653
v 0.099153 0.480232 -0.171634
v 0.094805 0.480323 -0.171588
v 0.099148 0.480338 -0.174700
v 0.094805 0.480323 -0.171588
v 0.099209 0.482021 -0.169658
v 0.094865 0.482112 -0.169612
v 0.099153 0.480232 -0.171634
v 0.099245 0.485153 -0.174446
v 0.094942 0.485141 -0.169417
v 0.099263 0.485050 -0.169463
v 0.094859 0.485245 -0.174399
v 0.094942 0.485141 -0.169417
v 0.094865 0.482112 -0.169612
v 0.099209 0.482021 -0.169658
v 0.099263 0.485050 -0.169463
v 0.094942 0.485141 -0.169417
v 0.094859 0.485245 -0.174399
v 0.094865 0.482112 -0.169612
v 0.094749 0.480431 -0.174653
v 0.094805 0.480323 -0.171588
v 0.099120 0.481625 -0.179067
v 0.094875 0.487100 -0.179996
v 0.099190 0.487010 -0.180042
v 0.094739 0.481716 -0.179021
v 0.099120 0.481625 -0.179067
v 0.099148 0.480338 -0.174700
v 0.099062 0.478773 -0.178922
v 0.099070 0.477703 -0.175853
v 0.094578 0.473178 -0.179795
v 0.098902 0.473590 -0.180706
v 0.098907 0.473087 -0.179840
v 0.094585 0.473680 -0.180660
v 0.094633 0.476394 -0.179480
v 0.098993 0.476303 -0.179526
v 0.094595 0.474268 -0.180806
v 0.098914 0.474177 -0.180852
v 0.098907 0.473087 -0.179840
v 0.098914 0.474177 -0.180852
v 0.098920 0.473200 -0.179183
v 0.098902 0.473590 -0.180706
v 0.098993 0.476303 -0.179526
v 0.099000 0.475503 -0.177232
v 0.099148 0.480338 -0.174700
v 0.094693 0.477795 -0.175807
v 0.099070 0.477703 -0.175853
v 0.094749 0.480431 -0.174653
v 0.099062 0.478773 -0.178922
v 0.094739 0.481716 -0.179021
v 0.099120 0.481625 -0.179067
v 0.094681 0.478864 -0.178876
v 0.099000 0.475503 -0.177232
v 0.094583 0.473291 -0.179137
v 0.098920 0.473200 -0.179183
v 0.094641 0.475595 -0.177186
v 0.099245 0.485153 -0.174446
v 0.099148 0.480338 -0.174700
v 0.099120 0.481625 -0.179067
v 0.099190 0.487010 -0.180042
v 0.094739 0.481716 -0.179021
v 0.094859 0.485245 -0.174399
v 0.094875 0.487100 -0.179996
v 0.094749 0.480431 -0.174653
v 0.099209 0.482021 -0.169658
v 0.099245 0.485153 -0.174446
v 0.099263 0.485050 -0.169463
v 0.099153 0.480232 -0.171634
v 0.099148 0.480338 -0.174700
v 0.094681 0.478864 -0.178876
v 0.094749 0.480431 -0.174653
v 0.094739 0.481716 -0.179021
v 0.094693 0.477795 -0.175807
v 0.099190 0.487010 -0.180042
v 0.094859 0.485245 -0.174399
v 0.099245 0.485153 -0.174446
v 0.094875 0.487100 -0.179996
v 0.093178 0.499049 -0.240650
v 0.096602 0.497068 -0.240707
v 0.088683 0.497234 -0.240624
v 0.095279 0.498825 -0.240674
v 0.096639 0.498796 -0.240688
v 0.092218 0.501930 -0.240607
v 0.090667 0.509173 -0.240510
v 0.093251 0.504990 -0.240583
v 0.095343 0.506455 -0.240588
v 0.096855 0.509031 -0.240575
v 0.096803 0.506599 -0.240602
v 0.088115 0.497246 -0.240618
v 0.088802 0.497101 -0.228831
v 0.088234 0.497113 -0.228825
v 0.088683 0.497234 -0.240624
v 0.089421 0.501437 -0.131401
v 0.089086 0.496053 -0.134854
v 0.089289 0.495997 -0.130192
v 0.089310 0.503636 -0.134621
v 0.097746 0.495814 -0.129755
v 0.089421 0.501437 -0.131401
v 0.089289 0.495997 -0.130192
v 0.097847 0.501437 -0.131368
v 0.089086 0.496053 -0.134854
v 0.089217 0.502957 -0.137151
v 0.089020 0.496109 -0.139777
v 0.089310 0.503636 -0.134621
v 0.088376 0.496950 -0.214404
v 0.088234 0.497113 -0.228825
v 0.088254 0.491124 -0.214485
v 0.088112 0.491286 -0.228889
v 0.088878 0.490294 -0.140749
v 0.088764 0.496390 -0.164665
v 0.088631 0.490565 -0.164747
v 0.089020 0.496109 -0.139777
v 0.088764 0.496390 -0.164665
v 0.088998 0.503227 -0.166240
v 0.088849 0.496408 -0.166378
v 0.088938 0.503286 -0.164540
v 0.089038 0.490736 -0.167825
v 0.088837 0.496424 -0.167793
v 0.088713 0.490598 -0.167880
v 0.089159 0.496416 -0.167742
v 0.089309 0.502804 -0.166305
v 0.088849 0.496408 -0.166378
v 0.088998 0.503227 -0.166240
v 0.089170 0.496401 -0.166433
v 0.088837 0.496424 -0.167793
v 0.088699 0.503555 -0.196114
v 0.088554 0.496745 -0.196236
v 0.088985 0.503241 -0.167655
v 0.088234 0.497113 -0.228825
v 0.088255 0.504042 -0.240543
v 0.088115 0.497246 -0.240618
v 0.088374 0.503912 -0.228749
v 0.088554 0.496745 -0.196236
v 0.088519 0.503753 -0.214281
v 0.088376 0.496950 -0.214404
v 0.088699 0.503555 -0.196114
v 0.090696 0.509048 -0.228715
v 0.097125 0.508760 -0.214373
v 0.096976 0.508907 -0.228782
v 0.090843 0.508896 -0.214246
v 0.088519 0.503753 -0.214281
v 0.090696 0.509048 -0.228715
v 0.088374 0.503912 -0.228749
v 0.090843 0.508896 -0.214246
v 0.088686 0.491598 -0.228892
v 0.096601 0.491128 -0.228979
v 0.088112 0.491286 -0.228889
v 0.096608 0.491452 -0.228975
v 0.088115 0.497246 -0.240618
v 0.088255 0.504042 -0.240543
v 0.088683 0.497234 -0.240624
v 0.090667 0.509173 -0.240510
v 0.090575 0.509175 -0.240509
v 0.088112 0.491286 -0.228889
v 0.088234 0.497113 -0.228825
v 0.088686 0.491598 -0.228892
v 0.088802 0.497101 -0.228831
v 0.097125 0.508760 -0.214373
v 0.091489 0.508000 -0.214058
v 0.097109 0.507879 -0.214177
v 0.090843 0.508896 -0.214246
v 0.091670 0.507814 -0.196300
v 0.088699 0.503555 -0.196114
v 0.091028 0.508708 -0.196078
v 0.090156 0.503617 -0.196334
v 0.091028 0.508708 -0.196078
v 0.097313 0.508579 -0.196200
v 0.091670 0.507814 -0.196300
v 0.097292 0.507698 -0.196414
v 0.088430 0.490919 -0.196317
v 0.088376 0.496950 -0.214404
v 0.088254 0.491124 -0.214485
v 0.088554 0.496745 -0.196236
v 0.088713 0.490598 -0.167880
v 0.088554 0.496745 -0.196236
v 0.088430 0.490919 -0.196317
v 0.088837 0.496424 -0.167793
v 0.091489 0.508000 -0.214058
v 0.088519 0.503753 -0.214281
v 0.089979 0.503811 -0.214091
v 0.090843 0.508896 -0.214246
v 0.091028 0.508708 -0.196078
v 0.097607 0.508282 -0.167753
v 0.097313 0.508579 -0.196200
v 0.091318 0.508404 -0.167617
v 0.088519 0.503753 -0.214281
v 0.090156 0.503617 -0.196334
v 0.089979 0.503811 -0.214091
v 0.088699 0.503555 -0.196114
v 0.088985 0.503241 -0.167655
v 0.091028 0.508708 -0.196078
v 0.088699 0.503555 -0.196114
v 0.091318 0.508404 -0.167617
v 0.093755 0.507783 -0.143519
v 0.094549 0.510539 -0.140746
v 0.094508 0.510613 -0.143197
v 0.093807 0.507693 -0.140475
v 0.096597 0.507631 -0.140494
v 0.094549 0.510539 -0.140746
v 0.093807 0.507693 -0.140475
v 0.096796 0.510490 -0.140761
v 0.096567 0.507764 -0.143548
v 0.096796 0.510490 -0.140761
v 0.096597 0.507631 -0.140494
v 0.096772 0.510597 -0.143221
v 0.094508 0.510613 -0.143197
v 0.096567 0.507764 -0.143548
v 0.093755 0.507783 -0.143519
v 0.096772 0.510597 -0.143221
v 0.096772 0.510597 -0.143221
v 0.094549 0.510539 -0.140746
v 0.096796 0.510490 -0.140761
v 0.094508 0.510613 -0.143197
v 0.096567 0.507764 -0.143548
v 0.093807 0.507693 -0.140475
v 0.093755 0.507783 -0.143519
v 0.096597 0.507631 -0.140494
v 0.088725 0.490582 -0.166465
v 0.088849 0.496408 -0.166378
v 0.089049 0.490722 -0.166516
v 0.089170 0.496401 -0.166433
v 0.097607 0.508282 -0.167753
v 0.091455 0.507590 -0.167577
v 0.097590 0.507471 -0.167707
v 0.091318 0.508404 -0.167617
v 0.091332 0.508392 -0.166201
v 0.097621 0.508272 -0.166336
v 0.091468 0.507580 -0.166269
v 0.097604 0.507462 -0.166397
v 0.091468 0.507580 -0.166269
v 0.088998 0.503227 -0.166240
v 0.091332 0.508392 -0.166201
v 0.089309 0.502804 -0.166305
v 0.089297 0.502817 -0.167613
v 0.088837 0.496424 -0.167793
v 0.089159 0.496416 -0.167742
v 0.088985 0.503241 -0.167655
v 0.088985 0.503241 -0.167655
v 0.091455 0.507590 -0.167577
v 0.091318 0.508404 -0.167617
v 0.089297 0.502817 -0.167613
v 0.088631 0.490565 -0.164747
v 0.088849 0.496408 -0.166378
v 0.088725 0.490582 -0.166465
v 0.088764 0.496390 -0.164665
v 0.091332 0.508392 -0.166201
v 0.097645 0.508514 -0.164551
v 0.097621 0.508272 -0.166336
v 0.091321 0.508558 -0.164485
v 0.088938 0.503286 -0.164540
v 0.091332 0.508392 -0.166201
v 0.088998 0.503227 -0.166240
v 0.091321 0.508558 -0.164485
v 0.092218 0.501930 -0.240607
v 0.093704 0.504463 -0.212324
v 0.092671 0.501403 -0.212372
v 0.093251 0.504990 -0.240583
v 0.095343 0.506455 -0.240588
v 0.097090 0.506076 -0.212364
v 0.095795 0.505928 -0.212334
v 0.096803 0.506599 -0.240602
v 0.095279 0.498825 -0.240674
v 0.096890 0.496657 -0.212619
v 0.096639 0.498796 -0.240688
v 0.095696 0.496676 -0.212587
v 0.092218 0.501930 -0.240607
v 0.093630 0.498523 -0.212477
v 0.093178 0.499049 -0.240650
v 0.092671 0.501403 -0.212372
v 0.095343 0.506455 -0.240588
v 0.093704 0.504463 -0.212324
v 0.093251 0.504990 -0.240583
v 0.095795 0.505928 -0.212334
v 0.093178 0.499049 -0.240650
v 0.095696 0.496676 -0.212587
v 0.095279 0.498825 -0.240674
v 0.093630 0.498523 -0.212477
v 0.093704 0.504463 -0.212324
v 0.093630 0.498523 -0.212477
v 0.092671 0.501403 -0.212372
v 0.095795 0.505928 -0.212334
v 0.097090 0.506076 -0.212364
v 0.096890 0.496657 -0.212619
v 0.095696 0.496676 -0.212587
v 0.096601 0.491128 -0.228979
v 0.088430 0.490919 -0.196317
v 0.088254 0.491124 -0.214485
v 0.088112 0.491286 -0.228889
v 0.088713 0.490598 -0.167880
v 0.097635 0.490192 -0.129042
v 0.088725 0.490582 -0.166465
v 0.088878 0.490294 -0.140749
v 0.088937 0.490229 -0.135027
v 0.088938 0.490229 -0.134977
v 0.089161 0.490323 -0.129645
v 0.088631 0.490565 -0.164747
v 0.097635 0.490192 -0.129042
v 0.089289 0.495997 -0.130192
v 0.089161 0.490323 -0.129645
v 0.097746 0.495814 -0.129755
v 0.089086 0.496053 -0.134854
v 0.088937 0.490229 -0.135027
v 0.088938 0.490229 -0.134977
v 0.089020 0.496109 -0.139777
v 0.088878 0.490294 -0.140749
v 0.089020 0.496109 -0.139777
v 0.088938 0.503286 -0.164540
v 0.088764 0.496390 -0.164665
v 0.089217 0.502957 -0.137151
v 0.088374 0.503912 -0.228749
v 0.090575 0.509175 -0.240509
v 0.088255 0.504042 -0.240543
v 0.090696 0.509048 -0.228715
v 0.091666 0.508103 -0.135441
v 0.091321 0.508558 -0.164485
v 0.089217 0.502957 -0.137151
v 0.088938 0.503286 -0.164540
v 0.089217 0.502957 -0.137151
v 0.089310 0.503636 -0.134621
v 0.091666 0.508103 -0.135441
v 0.097645 0.508514 -0.164551
v 0.091666 0.508103 -0.135441
v 0.097941 0.507964 -0.135410
v 0.091321 0.508558 -0.164485
v 0.097867 0.503806 -0.134144
v 0.089421 0.501437 -0.131401
v 0.097847 0.501437 -0.131368
v 0.089310 0.503636 -0.134621
v 0.097867 0.503806 -0.134144
v 0.091666 0.508103 -0.135441
v 0.089310 0.503636 -0.134621
v 0.097941 0.507964 -0.135410
v 0.090667 0.509173 -0.240510
v 0.090696 0.509048 -0.228715
v 0.096976 0.508907 -0.228782
v 0.096855 0.509031 -0.240575
v 0.090575 0.509175 -0.240509
v 0.089289 0.495997 -0.130192
v 0.088938 0.490229 -0.134977
v 0.089161 0.490323 -0.129645
v 0.089086 0.496053 -0.134854
v 0.088376 0.496950 -0.214404
v 0.088374 0.503912 -0.228749
v 0.088234 0.497113 -0.228825
v 0.088519 0.503753 -0.214281
v 0.096855 0.509031 -0.240575
v 0.098257 0.506393 -0.240619
v 0.096803 0.506599 -0.240602
v 0.103042 0.508913 -0.240640
v 0.100284 0.504842 -0.240658
v 0.104521 0.496902 -0.240791
v 0.101187 0.501742 -0.240702
v 0.096602 0.497068 -0.240707
v 0.096639 0.498796 -0.240688
v 0.097999 0.498768 -0.240703
v 0.100107 0.498903 -0.240723
v 0.105089 0.496890 -0.240797
v 0.104646 0.496768 -0.228998
v 0.104521 0.496902 -0.240791
v 0.105213 0.496756 -0.229004
v 0.106299 0.495692 -0.135036
v 0.106263 0.501084 -0.131579
v 0.106192 0.495643 -0.130371
v 0.106398 0.503278 -0.134801
v 0.106263 0.501084 -0.131579
v 0.097847 0.501437 -0.131368
v 0.097746 0.495814 -0.129755
v 0.106192 0.495643 -0.130371
v 0.106299 0.495692 -0.135036
v 0.106264 0.495748 -0.139959
v 0.106409 0.502596 -0.137332
v 0.106398 0.503278 -0.134801
v 0.105213 0.496756 -0.229004
v 0.105369 0.496593 -0.214583
v 0.105245 0.490768 -0.214664
v 0.105090 0.490930 -0.229068
v 0.106006 0.496029 -0.164847
v 0.106264 0.495748 -0.139959
v 0.106141 0.489932 -0.140931
v 0.105893 0.490203 -0.164929
v 0.106006 0.496029 -0.164847
v 0.106026 0.502869 -0.166420
v 0.106124 0.502925 -0.164722
v 0.105885 0.496050 -0.166558
v 0.105429 0.490393 -0.167998
v 0.105868 0.496066 -0.167973
v 0.105548 0.496072 -0.167914
v 0.105746 0.490241 -0.168060
v 0.105696 0.502460 -0.166477
v 0.105885 0.496050 -0.166558
v 0.105564 0.496058 -0.166606
v 0.106026 0.502869 -0.166420
v 0.105709 0.503198 -0.196293
v 0.105868 0.496066 -0.167973
v 0.105566 0.496388 -0.196415
v 0.106010 0.502884 -0.167835
v 0.105236 0.503686 -0.240722
v 0.105213 0.496756 -0.229004
v 0.105089 0.496890 -0.240797
v 0.105360 0.503555 -0.228929
v 0.105514 0.503396 -0.214460
v 0.105566 0.496388 -0.196415
v 0.105369 0.496593 -0.214583
v 0.105709 0.503198 -0.196293
v 0.096976 0.508907 -0.228782
v 0.097125 0.508760 -0.214373
v 0.103257 0.508785 -0.228848
v 0.103409 0.508632 -0.214378
v 0.103257 0.508785 -0.228848
v 0.103409 0.508632 -0.214378
v 0.105514 0.503396 -0.214460
v 0.105360 0.503555 -0.228929
v 0.096601 0.491128 -0.228979
v 0.104529 0.491266 -0.229059
v 0.105090 0.490930 -0.229068
v 0.096608 0.491452 -0.228975
v 0.104521 0.496902 -0.240791
v 0.105236 0.503686 -0.240722
v 0.105089 0.496890 -0.240797
v 0.103042 0.508913 -0.240640
v 0.103135 0.508912 -0.240641
v 0.105213 0.496756 -0.229004
v 0.105090 0.490930 -0.229068
v 0.104529 0.491266 -0.229059
v 0.104646 0.496768 -0.228998
v 0.102730 0.507764 -0.214177
v 0.097125 0.508760 -0.214373
v 0.097109 0.507879 -0.214177
v 0.103409 0.508632 -0.214378
v 0.102916 0.507578 -0.196419
v 0.105709 0.503198 -0.196293
v 0.104251 0.503321 -0.196483
v 0.103599 0.508444 -0.196210
v 0.097313 0.508579 -0.196200
v 0.102916 0.507578 -0.196419
v 0.097292 0.507698 -0.196414
v 0.103599 0.508444 -0.196210
v 0.105369 0.496593 -0.214583
v 0.105443 0.490562 -0.196496
v 0.105245 0.490768 -0.214664
v 0.105566 0.496388 -0.196415
v 0.105566 0.496388 -0.196415
v 0.105746 0.490241 -0.168060
v 0.105443 0.490562 -0.196496
v 0.105868 0.496066 -0.167973
v 0.105514 0.503396 -0.214460
v 0.102730 0.507764 -0.214177
v 0.104062 0.503516 -0.214239
v 0.103409 0.508632 -0.214378
v 0.097313 0.508579 -0.196200
v 0.097607 0.508282 -0.167753
v 0.103599 0.508444 -0.196210
v 0.103896 0.508140 -0.167749
v 0.105514 0.503396 -0.214460
v 0.104251 0.503321 -0.196483
v 0.105709 0.503198 -0.196293
v 0.104062 0.503516 -0.214239
v 0.103599 0.508444 -0.196210
v 0.106010 0.502884 -0.167835
v 0.105709 0.503198 -0.196293
v 0.103896 0.508140 -0.167749
v 0.101944 0.507612 -0.143605
v 0.101325 0.510397 -0.140817
v 0.101953 0.507522 -0.140561
v 0.101317 0.510470 -0.143269
v 0.099163 0.507577 -0.140521
v 0.101953 0.507522 -0.140561
v 0.101325 0.510397 -0.140817
v 0.099078 0.510442 -0.140785
v 0.099078 0.510442 -0.140785
v 0.099133 0.507710 -0.143575
v 0.099163 0.507577 -0.140521
v 0.099054 0.510549 -0.143245
v 0.099133 0.507710 -0.143575
v 0.101317 0.510470 -0.143269
v 0.101944 0.507612 -0.143605
v 0.099054 0.510549 -0.143245
v 0.099054 0.510549 -0.143245
v 0.101325 0.510397 -0.140817
v 0.101317 0.510470 -0.143269
v 0.099078 0.510442 -0.140785
v 0.099133 0.507710 -0.143575
v 0.101953 0.507522 -0.140561
v 0.099163 0.507577 -0.140521
v 0.101944 0.507612 -0.143605
v 0.105885 0.496050 -0.166558
v 0.105764 0.490225 -0.166644
v 0.105445 0.490378 -0.166689
v 0.105564 0.496058 -0.166606
v 0.103726 0.507333 -0.167707
v 0.097607 0.508282 -0.167753
v 0.097590 0.507471 -0.167707
v 0.103896 0.508140 -0.167749
v 0.097621 0.508272 -0.166336
v 0.103741 0.507322 -0.166398
v 0.097604 0.507462 -0.166397
v 0.103911 0.508128 -0.166334
v 0.106026 0.502869 -0.166420
v 0.103741 0.507322 -0.166398
v 0.103911 0.508128 -0.166334
v 0.105696 0.502460 -0.166477
v 0.105868 0.496066 -0.167973
v 0.106010 0.502884 -0.167835
v 0.105681 0.502473 -0.167786
v 0.105548 0.496072 -0.167914
v 0.106010 0.502884 -0.167835
v 0.103896 0.508140 -0.167749
v 0.103726 0.507333 -0.167707
v 0.105681 0.502473 -0.167786
v 0.105893 0.490203 -0.164929
v 0.105885 0.496050 -0.166558
v 0.106006 0.496029 -0.164847
v 0.105764 0.490225 -0.166644
v 0.097645 0.508514 -0.164551
v 0.103966 0.508293 -0.164619
v 0.103911 0.508128 -0.166334
v 0.097621 0.508272 -0.166336
v 0.103911 0.508128 -0.166334
v 0.106124 0.502925 -0.164722
v 0.106026 0.502869 -0.166420
v 0.103966 0.508293 -0.164619
v 0.100406 0.504322 -0.212395
v 0.101187 0.501742 -0.240702
v 0.101308 0.501222 -0.212463
v 0.100284 0.504842 -0.240658
v 0.097090 0.506076 -0.212364
v 0.098257 0.506393 -0.240619
v 0.098378 0.505874 -0.212362
v 0.096803 0.506599 -0.240602
v 0.097999 0.498768 -0.240703
v 0.096890 0.496657 -0.212619
v 0.098084 0.496626 -0.212612
v 0.096639 0.498796 -0.240688
v 0.101308 0.501222 -0.212463
v 0.101187 0.501742 -0.240702
v 0.100228 0.498384 -0.212547
v 0.100107 0.498903 -0.240723
v 0.098257 0.506393 -0.240619
v 0.100406 0.504322 -0.212395
v 0.098378 0.505874 -0.212362
v 0.100284 0.504842 -0.240658
v 0.100107 0.498903 -0.240723
v 0.098084 0.496626 -0.212612
v 0.100228 0.498384 -0.212547
v 0.097999 0.498768 -0.240703
v 0.096890 0.496657 -0.212619
v 0.100228 0.498384 -0.212547
v 0.098084 0.496626 -0.212612
v 0.098378 0.505874 -0.212362
v 0.097090 0.506076 -0.212364
v 0.100406 0.504322 -0.212395
v 0.101308 0.501222 -0.212463
v 0.105443 0.490562 -0.196496
v 0.096601 0.491128 -0.228979
v 0.105245 0.490768 -0.214664
v 0.105893 0.490203 -0.164929
v 0.097635 0.490192 -0.129042
v 0.105764 0.490225 -0.166644
v 0.105090 0.490930 -0.229068
v 0.105746 0.490241 -0.168060
v 0.106093 0.489968 -0.129823
v 0.106200 0.489866 -0.135159
v 0.106141 0.489932 -0.140931
v 0.106200 0.489867 -0.135209
v 0.106192 0.495643 -0.130371
v 0.097635 0.490192 -0.129042
v 0.106093 0.489968 -0.129823
v 0.097746 0.495814 -0.129755
v 0.106200 0.489867 -0.135209
v 0.106299 0.495692 -0.135036
v 0.106200 0.489866 -0.135159
v 0.106141 0.489932 -0.140931
v 0.106264 0.495748 -0.139959
v 0.106124 0.502925 -0.164722
v 0.106264 0.495748 -0.139959
v 0.106006 0.496029 -0.164847
v 0.106409 0.502596 -0.137332
v 0.103135 0.508912 -0.240641
v 0.103257 0.508785 -0.228848
v 0.105360 0.503555 -0.228929
v 0.105236 0.503686 -0.240722
v 0.103966 0.508293 -0.164619
v 0.106409 0.502596 -0.137332
v 0.106124 0.502925 -0.164722
v 0.104214 0.507840 -0.135573
v 0.106409 0.502596 -0.137332
v 0.104214 0.507840 -0.135573
v 0.106398 0.503278 -0.134801
v 0.097645 0.508514 -0.164551
v 0.104214 0.507840 -0.135573
v 0.103966 0.508293 -0.164619
v 0.097941 0.507964 -0.135410
v 0.106263 0.501084 -0.131579
v 0.097867 0.503806 -0.134144
v 0.097847 0.501437 -0.131368
v 0.106398 0.503278 -0.134801
v 0.104214 0.507840 -0.135573
v 0.097867 0.503806 -0.134144
v 0.106398 0.503278 -0.134801
v 0.097941 0.507964 -0.135410
v 0.096855 0.509031 -0.240575
v 0.096976 0.508907 -0.228782
v 0.103042 0.508913 -0.240640
v 0.103257 0.508785 -0.228848
v 0.103135 0.508912 -0.240641
v 0.106200 0.489866 -0.135159
v 0.106192 0.495643 -0.130371
v 0.106093 0.489968 -0.129823
v 0.106299 0.495692 -0.135036
v 0.105360 0.503555 -0.228929
v 0.105369 0.496593 -0.214583
v 0.105213 0.496756 -0.229004
v 0.105514 0.503396 -0.214460
vn 0.0211 0.9997 0.0111
vn -0.0165 -0.3093 -0.9508
vn -0.0211 -0.9997 -0.0111
vn 0.0165 0.3093 0.9508
vn 0.9997 -0.0210 -0.0105
vn -0.9997 0.0210 0.0105
vn -0.0103 0.0113 -0.9999
vn -0.0201 -0.9997 -0.0101
vn -0.0196 -0.9998 -0.0104
vn -0.0198 -0.9998 -0.0103
vn -0.0199 -0.9998 -0.0102
vn -0.9997 0.0209 0.0103
vn -0.9997 0.0207 0.0102
vn -0.9997 0.0214 0.0088
vn -0.9997 0.0215 0.0092
vn 0.0212 0.9997 0.0101
vn 0.0209 0.9997 0.0102
vn 0.0210 0.9997 0.0102
vn -0.9407 0.3389 0.0131
vn -0.9407 0.3391 0.0131
vn -0.3945 0.9188 0.0137
vn -0.9997 0.0212 0.0087
vn -0.9997 0.0212 0.0088
vn 0.0194 0.9998 0.0073
vn 0.0194 0.9998 0.0074
vn -0.9112 0.4118 0.0123
vn -0.0225 -0.9997 -0.0104
vn -0.0221 -0.9997 -0.0101
vn -0.0223 -0.9997 -0.0102
vn 0.9997 -0.0212 -0.0109
vn 0.9997 -0.0211 -0.0108
vn 0.9997 -0.0204 -0.0119
vn 0.9997 -0.0205 -0.0123
vn 0.0211 0.9997 0.0102
vn 0.0212 0.9997 0.0102
vn 0.0210 0.9997 0.0101
vn 0.0209 0.9997 0.0101
vn 0.9541 0.2993 -0.0068
vn 0.9542 0.2992 -0.0069
vn 0.4329 0.9014 0.0049
vn 0.4329 0.9014 0.0050
vn 0.9997 -0.0207 -0.0123
vn 0.9997 -0.0208 -0.0124
vn 0.0227 0.9997 0.0073
vn 0.0227 0.9997 0.0074
vn 0.9277 0.3732 -0.0071
vn -0.0075 -0.7109 0.7033
vn 0.0016 -0.3880 0.9217
vn -0.9419 -0.1092 0.3176
vn -0.9419 -0.1092 0.3177
vn -0.9419 -0.1093 0.3175
vn 0.0136 0.8847 -0.4661
vn -0.9997 0.0209 0.0118
vn -0.9997 0.0210 0.0118
vn 0.0151 0.2293 0.9732
vn -0.2672 -0.5918 0.7605
vn 0.0054 -0.2298 0.9732
vn -0.3860 -0.9207 0.0585
vn -0.3860 -0.9206 0.0585
vn -0.0225 -0.9840 -0.1769
vn -0.2278 -0.3772 0.8977
vn -0.9237 -0.3832 0.0045
vn -0.9382 -0.2170 0.2695
vn -0.8952 0.1187 0.4296
vn -0.8952 0.1186 0.4296
vn -0.9497 -0.3131 0.0099
vn -0.8957 0.2640 0.3578
vn -0.8956 0.2641 0.3580
vn -0.8956 0.2640 0.3579
vn -0.9013 0.1801 0.3939
vn -0.0144 -0.1937 -0.9809
vn -0.9326 -0.0617 -0.3555
vn -0.9316 -0.0687 -0.3569
vn -0.9317 -0.0687 -0.3568
vn -0.9316 -0.0687 -0.3568
vn -0.0211 -0.9997 -0.0104
vn -0.9250 -0.0551 -0.3759
vn -0.9250 -0.0551 -0.3758
vn -0.0152 -0.2347 -0.9719
vn -0.9287 0.0357 0.3690
vn -0.9288 0.0357 0.3690
vn 0.0108 0.0146 0.9998
vn -0.0208 -0.9997 0.0120
vn -0.0131 0.2004 0.9796
vn -0.2056 -0.9746 -0.0887
vn -0.0148 -0.2168 -0.9761
vn -0.8995 0.2193 -0.3779
vn 0.9430 -0.1488 0.2977
vn 0.9429 -0.1487 0.2979
vn 0.9430 -0.1487 0.2979
vn 0.9430 -0.1487 0.2978
vn 0.0207 0.5756 0.8174
vn 0.9997 -0.0210 -0.0093
vn 0.2581 -0.6028 0.7550
vn 0.3482 -0.9360 0.0507
vn 0.2306 -0.3868 0.8928
vn 0.9067 -0.4215 -0.0148
vn 0.9067 -0.4216 -0.0148
vn 0.9338 -0.2563 0.2498
vn 0.9082 0.0808 0.4106
vn 0.9082 0.0808 0.4105
vn 0.9083 0.0808 0.4105
vn 0.9357 -0.3526 -0.0100
vn 0.9357 -0.3527 -0.0100
vn 0.9132 0.2261 0.3389
vn 0.9133 0.2261 0.3388
vn 0.9133 0.2261 0.3387
vn 0.9133 0.2261 0.3389
vn 0.9162 0.1420 0.3747
vn 0.9215 -0.1006 -0.3751
vn 0.9202 -0.1076 -0.3763
vn 0.9202 -0.1076 -0.3764
vn 0.9138 -0.0937 -0.3953
vn 0.9138 -0.0937 -0.3952
vn 0.9370 -0.0034 0.3493
vn 0.0421 0.1992 0.9790
vn 0.0421 0.1992 0.9791
vn 0.1627 -0.9823 -0.0925
vn 0.8997 0.1815 -0.3969
vn 0.0189 0.4551 0.8902
vn 0.0235 0.8890 0.4573
vn 0.0076 -0.1372 0.9905
vn 0.9940 0.0504 0.0973
vn -0.9887 0.0920 0.1182
vn -0.9887 0.0916 0.1183
vn -0.0094 -0.7686 0.6397
vn 0.0158 0.9342 -0.3563
vn -0.0217 -0.6522 -0.7577
vn 0.0206 0.5665 0.8238
vn -0.0075 0.1412 -0.9900
vn 0.0182 0.9761 -0.2164
vn -0.0178 -0.9700 0.2426
vn -0.9997 0.0194 0.0118
vn -0.9997 0.0194 0.0119
vn 0.9997 -0.0196 -0.0135
vn 0.9997 -0.0194 -0.0135
vn 0.9997 -0.0225 -0.0092
vn 0.9997 -0.0226 -0.0093
vn -0.0203 -0.9981 0.0584
vn -0.0192 -0.4706 -0.8821
vn -0.9992 0.0300 0.0256
vn -0.9992 0.0300 0.0255
vn 0.9998 -0.0201 -0.0018
vn 0.9998 -0.0200 -0.0018
vn 0.0142 0.1842 0.9828
vn -0.0155 -0.2511 -0.9678
vn -0.9996 0.0219 0.0193
vn 0.0103 -0.0115 0.9999
vn 1.0000 -0.0089 -0.0029
vn 1.0000 -0.0088 -0.0029
vn 0.0235 0.8932 0.4490
vn -0.0009 0.4147 -0.9099
vn -0.9993 0.0331 0.0182
vn -0.9997 0.0226 0.0075
vn 0.9999 -0.0120 0.0045
vn 0.9999 -0.0120 0.0044
vn 0.0199 0.5196 0.8542
vn 0.0211 0.9997 0.0141
vn -0.0214 -0.9986 -0.0475
vn 0.9999 -0.0119 -0.0088
vn 0.9999 -0.0120 -0.0088
vn -0.9995 0.0300 0.0123
vn -0.9995 0.0301 0.0123
vn -0.9998 0.0151 0.0137
vn -0.0113 -0.0348 -0.9993
vn 0.9996 -0.0269 -0.0074
vn 0.9996 -0.0269 -0.0073
vn 0.0228 0.9738 0.2262
vn -0.0205 -0.9988 0.0437
vn 0.9998 -0.0135 -0.0113
vn -0.9995 0.0284 0.0098
vn -0.9995 0.0285 0.0098
vn -0.9995 0.0286 0.0098
vn -0.0189 -0.9860 0.1657
vn 0.9996 -0.0197 -0.0222
vn 0.9996 -0.0196 -0.0222
vn -0.9998 0.0223 -0.0011
vn -0.9998 0.0222 -0.0012
vn -0.9998 0.0222 -0.0011
vn 0.0089 0.7533 -0.6576
vn 0.0186 0.9813 -0.1914
vn 0.0145 0.1974 0.9802
vn -0.0191 -0.9881 0.1528
vn -0.9711 -0.0495 -0.2335
vn -0.9711 -0.0494 -0.2335
vn -0.0263 -0.9880 0.1524
vn -0.9107 -0.0434 -0.4107
vn -0.0130 -0.2297 -0.9732
vn 0.0171 0.3427 0.9393
vn -0.8735 0.1801 0.4523
vn 0.0271 -0.5749 0.8178
vn 0.0271 -0.5750 0.8177
vn 0.0268 -0.5749 0.8178
vn 0.9630 -0.0900 -0.2539
vn 0.9630 -0.0900 -0.2538
vn -0.0120 -0.9883 0.1522
vn -0.0120 -0.9883 0.1523
vn -0.0119 -0.9883 0.1522
vn -0.0119 -0.9883 0.1523
vn 0.8993 -0.0814 -0.4298
vn -0.0172 -0.2296 -0.9731
vn 0.8896 0.1432 0.4337
vn -0.0340 -0.5736 0.8184
vn -0.0340 -0.5737 0.8184
vn 0.6164 -0.7873 -0.0152
vn 0.9663 0.2572 -0.0071
vn 0.6490 0.7608 0.0019
vn -0.6164 0.7873 0.0152
vn 0.9546 -0.2975 -0.0132
vn -0.9546 0.2975 0.0132
vn -0.9663 -0.2572 0.0071
vn -0.6490 -0.7608 -0.0019
vn -0.2504 0.0859 -0.9643
vn -0.1562 0.1977 -0.9677
vn -0.0052 0.2385 -0.9711
vn 0.1440 0.1915 -0.9709
vn 0.2334 0.0757 -0.9694
vn 0.2305 -0.0640 -0.9710
vn 0.1362 -0.1758 -0.9750
vn -0.0148 -0.2165 -0.9762
vn -0.1640 -0.1695 -0.9718
vn -0.2534 -0.0539 -0.9659
vn 0.0103 -0.0113 0.9999
vn -0.0180 -0.9727 0.2314
vn -0.9326 -0.0633 -0.3552
vn -0.0149 -0.2210 -0.9751
vn 0.0180 0.9727 -0.2314
vn 0.0149 0.2210 0.9751
vn 0.9215 -0.1022 -0.3747
vn -0.9998 0.0172 0.0062
vn -0.0189 -0.9852 0.1702
vn -0.0153 -0.2409 -0.9704
vn -0.0022 -0.5311 0.8473
vn -0.9998 0.0171 0.0097
vn -0.9998 0.0172 0.0098
vn 0.9996 -0.0248 -0.0114
vn 0.9996 -0.0249 -0.0115
vn -0.0053 0.2377 -0.9713
vn -0.0213 -0.9992 -0.0347
vn -0.0085 -0.7412 0.6712
vn 0.0212 0.9996 0.0205
vn 0.0092 -0.0644 0.9979
vn -0.9996 0.0217 0.0165
vn -0.9996 0.0216 0.0164
vn -0.9996 0.0217 0.0164
vn -0.0141 -0.1780 -0.9839
vn 0.9997 -0.0227 -0.0120
vn 0.9997 -0.0228 -0.0120
vn -0.0234 -0.8645 -0.5021
vn 0.0022 0.5293 -0.8484
vn 0.9996 -0.0247 -0.0149
vn 0.9996 -0.0248 -0.0148
vn 0.0012 -0.4009 0.9161
vn -0.0116 -0.0506 -0.9987
vn -0.0055 -0.6463 0.7631
vn 0.9998 -0.0173 -0.0139
vn 0.9998 -0.0173 -0.0138
vn 0.9998 -0.0175 -0.0137
vn 0.9998 -0.0174 -0.0138
vn -0.9997 0.0245 0.0073
vn -0.9997 0.0247 0.0072
vn -0.9997 0.0246 0.0072
vn 0.9998 -0.0202 -0.0046
vn 0.9998 -0.0203 -0.0047
vn -0.9998 0.0192 0.0091
vn 0.0232 0.9489 0.3146
vn -0.9983 0.0310 0.0486
vn -0.9983 0.0309 0.0487
vn -0.0244 0.2476 0.9686
vn -0.9995 0.0254 0.0193
vn -0.9997 0.0209 0.0101
vn -0.9997 0.0227 0.0106
vn -0.9997 0.0225 0.0105
vn -0.9988 0.0243 -0.0428
vn -0.9988 0.0243 -0.0429
vn -0.1606 -0.0112 0.9870
vn -0.1606 -0.0112 0.9869
vn -0.1701 0.0235 -0.9851
vn -0.1703 0.0235 -0.9851
vn -0.1702 0.0235 -0.9851
vn -0.9997 0.0211 0.0102
vn -0.9997 0.0204 0.0103
vn -0.9997 0.0205 0.0103
vn -0.9997 0.0210 0.0101
vn -0.9997 0.0211 0.0101
vn 0.0222 0.9997 0.0101
vn 0.0218 0.9997 0.0103
vn -0.9112 0.4118 0.0136
vn 0.0248 0.2195 0.9753
vn -0.1754 0.0794 -0.9813
vn -0.0145 0.2342 -0.9721
vn -0.0144 0.2342 -0.9721
vn -0.9997 0.0209 0.0100
vn -0.9997 0.0210 0.0100
vn -0.9997 0.0210 0.0102
vn -0.9997 0.0212 0.0102
vn -0.1546 0.0563 0.9864
vn -0.1545 0.0563 0.9864
vn 0.0201 0.9997 0.0103
vn 0.0197 0.9998 0.0104
vn 0.0200 0.9997 0.0104
vn -0.0415 0.9991 0.0114
vn -0.0411 0.9991 0.0113
vn -0.9112 0.4118 0.0137
vn -0.9668 0.2544 0.0240
vn 0.0089 0.0924 0.9957
vn 0.9974 -0.0708 -0.0127
vn -0.0095 0.1154 -0.9933
vn 0.0145 0.9992 0.0362
vn 0.0146 0.9992 0.0363
vn 0.0147 0.9992 0.0364
vn -0.0149 -0.9992 -0.0366
vn -0.0146 -0.9992 -0.0363
vn -0.0147 -0.9992 -0.0364
vn -0.1672 0.0181 -0.9858
vn 0.0224 0.0544 0.9983
vn 0.0225 0.0543 0.9983
vn -0.0196 0.0771 -0.9968
vn -0.1206 0.0620 -0.9908
vn -0.1577 -0.0165 0.9874
vn -0.1576 -0.0165 0.9874
vn -0.0899 0.0332 0.9954
vn -0.9984 0.0228 -0.0521
vn 0.0110 0.9932 -0.1158
vn -0.9101 0.4117 -0.0463
vn -0.9101 0.4118 -0.0462
vn 0.9473 -0.3196 -0.0211
vn 0.9473 -0.3197 -0.0211
vn 0.1051 -0.9943 -0.0199
vn 0.1052 -0.9943 -0.0199
vn 0.0200 0.9969 0.0759
vn 0.0201 0.9969 0.0759
vn 0.9487 0.3161 -0.0093
vn 0.9487 0.3162 -0.0093
vn 0.5736 -0.8188 -0.0245
vn 0.5735 -0.8188 -0.0245
vn 0.4457 0.8945 0.0356
vn -0.0267 0.0271 -0.9993
vn -0.0265 0.0271 -0.9993
vn -0.0081 -0.9999 -0.0095
vn -0.0080 -0.9999 -0.0094
vn -0.0081 -0.9999 -0.0094
vn -0.0589 0.1120 0.9920
vn -0.0589 0.1119 0.9920
vn -0.9996 0.0237 0.0120
vn -0.9996 0.0238 0.0122
vn -0.9996 0.0250 0.0106
vn -0.9081 0.4185 0.0158
vn -0.9081 0.4185 0.0159
vn -0.8876 0.4519 -0.0886
vn 0.0146 0.9997 0.0171
vn 0.0145 0.9997 0.0171
vn -0.0261 0.7950 0.6061
vn -0.0337 0.2438 0.9692
vn -0.0336 0.2438 0.9692
vn 0.0225 0.9997 0.0105
vn 0.0226 0.9997 0.0105
vn 0.0226 0.9997 0.0103
vn -0.9988 0.0254 0.0427
vn -0.9988 0.0256 0.0425
vn -0.9988 0.0255 0.0425
vn -0.9997 0.0205 0.0101
vn -0.9997 0.0208 0.0102
vn 0.9996 -0.0109 0.0276
vn 0.9996 -0.0110 0.0276
vn 0.0551 0.2459 0.9677
vn 0.9999 -0.0166 -0.0018
vn 0.9997 -0.0211 -0.0110
vn 0.9998 -0.0194 -0.0106
vn 0.9998 -0.0193 -0.0105
vn 0.9978 -0.0176 -0.0639
vn 0.1807 -0.0183 0.9834
vn 0.1808 -0.0183 0.9833
vn 0.1808 -0.0183 0.9834
vn 0.1502 0.0168 -0.9885
vn 0.1503 0.0168 -0.9885
vn 0.9997 -0.0208 -0.0109
vn 0.9997 -0.0215 -0.0108
vn 0.9997 -0.0209 -0.0110
vn 0.0199 0.9997 0.0102
vn 0.0203 0.9997 0.0103
vn 0.9277 0.3732 -0.0058
vn 0.0050 0.2199 0.9755
vn 0.1578 0.0725 -0.9848
vn 0.1578 0.0724 -0.9848
vn 0.1579 0.0725 -0.9848
vn 0.0038 0.2338 -0.9723
vn 0.9997 -0.0210 -0.0111
vn 0.9997 -0.0209 -0.0111
vn 0.9997 -0.0209 -0.0109
vn 0.1775 0.0494 0.9829
vn 0.1776 0.0494 0.9829
vn 0.0221 0.9997 0.0103
vn 0.0225 0.9997 0.0104
vn 0.0220 0.9997 0.0103
vn 0.0832 0.9965 0.0100
vn 0.9277 0.3732 -0.0057
vn 0.9769 0.2137 0.0035
vn 0.0160 0.0923 0.9956
vn -0.9995 -0.0289 0.0084
vn -0.0066 0.1154 -0.9933
vn 0.0282 0.9990 0.0361
vn 0.0281 0.9990 0.0361
vn 0.0279 0.9990 0.0363
vn 0.0280 0.9990 0.0363
vn -0.0278 -0.9989 -0.0364
vn -0.0281 -0.9990 -0.0361
vn -0.0280 -0.9990 -0.0363
vn -0.0279 -0.9990 -0.0363
vn 0.1470 0.0115 -0.9891
vn 0.0009 0.0548 0.9985
vn 0.0018 0.0766 -0.9971
vn 0.0018 0.0767 -0.9971
vn 0.1022 0.0573 -0.9931
vn 0.1775 -0.0235 0.9838
vn 0.1777 -0.0235 0.9838
vn 0.1776 -0.0235 0.9838
vn 0.1121 0.0289 0.9933
vn 0.9971 -0.0191 -0.0732
vn 0.9971 -0.0190 -0.0731
vn 0.0282 0.9929 -0.1160
vn 0.9254 0.3733 -0.0654
vn 0.9254 0.3733 -0.0655
vn -0.9601 -0.2796 -0.0010
vn -0.9601 -0.2797 -0.0010
vn -0.1472 -0.9890 -0.0172
vn -0.1471 -0.9890 -0.0172
vn 0.0234 0.9968 0.0758
vn 0.0234 0.9968 0.0759
vn -0.9345 0.3557 0.0106
vn -0.9346 0.3556 0.0105
vn -0.6078 -0.7940 -0.0120
vn -0.4069 0.9124 0.0446
vn 0.0068 0.0264 -0.9996
vn 0.0067 0.0264 -0.9996
vn 0.0065 0.0264 -0.9996
vn -0.0341 -0.9994 -0.0092
vn -0.0340 -0.9994 -0.0092
vn 0.0844 0.1090 0.9905
vn 0.0844 0.1089 0.9905
vn 0.9998 -0.0182 -0.0091
vn 0.9998 -0.0182 -0.0090
vn 0.9998 -0.0181 -0.0089
vn 0.9998 -0.0173 -0.0106
vn 0.9998 -0.0169 -0.0105
vn 0.9277 0.3732 -0.0056
vn 0.9249 0.3801 -0.0035
vn 0.9250 0.3801 -0.0035
vn 0.9037 0.4144 -0.1075
vn 0.0277 0.9995 0.0170
vn 0.0722 0.7929 0.6050
vn 0.0643 0.2418 0.9682
vn 0.0642 0.2418 0.9682
vn 0.0195 0.9998 0.0105
vn 0.0196 0.9998 0.0106
vn 0.0195 0.9998 0.0104
vn 0.9996 -0.0163 0.0214
vn 0.9996 -0.0165 0.0216
vn 0.9996 -0.0164 0.0215
vn 0.9997 -0.0215 -0.0110
s 0
usemtl Metal
f 1//1 2//1 3//1
f 4//1 2//1 1//1
f 5//2 6//2 7//2
f 6//2 5//2 8//2
f 9//3 10//3 11//3
f 10//3 9//3 12//3
f 13//4 14//4 15//4
f 15//4 16//4 13//4
f 17//5 18//5 19//5
f 18//5 17//5 20//5
f 21//6 22//6 23//6
f 22//6 21//6 24//6
f 25//1 26//1 27//1
f 28//1 26//1 25//1
f 29//2 30//2 31//2
f 30//2 29//2 32//2
f 33//3 34//3 35//3
f 34//3 33//3 36//3
f 37//4 38//4 39//4
f 39//4 40//4 37//4
f 41//5 42//5 43//5
f 42//5 41//5 44//5
f 45//6 46//6 47//6
f 46//6 45//6 48//6
f 49//1 50//1 51//1
f 52//1 50//1 49//1
f 53//2 54//2 55//2
f 54//2 53//2 56//2
f 57//3 58//3 59//3
f 58//3 57//3 60//3
f 61//4 62//4 63//4
f 63//4 64//4 61//4
f 65//5 66//5 67//5
f 66//5 65//5 68//5
f 69//6 70//6 71//6
f 70//6 69//6 72//6
f 73//1 74//1 75//1
f 76//1 74//1 73//1
f 77//2 78//2 79//2
f 78//2 77//2 80//2
f 81//3 82//3 83//3
f 82//3 81//3 84//3
f 85//4 86//4 87//4
f 87//4 88//4 85//4
f 89//5 90//5 91//5
f 90//5 89//5 92//5
f 93//6 94//6 95//6
f 94//6 93//6 96//6
f 97//7 98//7 99//7
s 1
f 100//8 101//9 102//10
f 101//9 100//8 103//11
s 0
f 104//12 105//12 106//12
f 107//13 106//13 105//13
f 108//14 109//14 110//14
f 109//15 108//15 111//15
s 1
f 112//16 113//17 114//18
f 112//16 115//16 113//17
s 0
f 116//19 117//19 118//19
f 117//20 116//20 119//20
f 120//21 121//21 122//21
f 123//21 122//21 121//21
f 124//22 125//22 126//22
f 125//23 124//23 127//23
s 1
f 128//24 129//25 130//25
f 131//25 129//25 128//24
s 0
f 132//26 133//26 134//26
f 133//26 132//26 135//26
f 136//1 137//1 138//1
f 137//1 136//1 139//1
f 140//2 141//2 142//2
f 141//2 140//2 143//2
f 144//3 145//3 146//3
f 145//3 144//3 147//3
f 148//4 149//4 150//4
f 151//4 149//4 148//4
f 152//6 153//6 154//6
f 153//6 152//6 155//6
f 156//5 157//5 158//5
f 157//5 156//5 159//5
f 160//1 161//1 162//1
f 161//1 160//1 163//1
f 164//2 165//2 166//2
f 165//2 164//2 167//2
f 168//3 169//3 170//3
f 169//3 168//3 171//3
f 172//4 173//4 174//4
f 175//4 173//4 172//4
f 176//6 177//6 178//6
f 177//6 176//6 179//6
f 180//5 181//5 182//5
f 181//5 180//5 183//5
f 184//1 185//1 186//1
f 185//1 184//1 187//1
f 188//2 189//2 190//2
f 189//2 188//2 191//2
f 192//3 193//3 194//3
f 193//3 192//3 195//3
f 196//4 197//4 198//4
f 199//4 197//4 196//4
f 200//6 201//6 202//6
f 201//6 200//6 203//6
f 204//5 205//5 206//5
f 205//5 204//5 207//5
f 208//1 209//1 210//1
f 209//1 208//1 211//1
f 212//2 213//2 214//2
f 213//2 212//2 215//2
f 216//3 217//3 218//3
f 217//3 216//3 219//3
f 220//4 221//4 222//4
f 223//4 221//4 220//4
f 224//6 225//6 226//6
f 225//6 224//6 227//6
f 228//5 229//5 230//5
f 229//5 228//5 231//5
f 232//7 98//7 233//7
f 98//7 232//7 99//7
f 98//7 97//7 234//7
s 1
f 235//27 236//28 237//29
f 236//28 235//27 238//29
s 0
f 239//30 240//30 241//30
f 239//31 242//31 240//31
f 243//32 244//32 245//32
f 244//33 243//33 246//33
s 1
f 247//34 248//35 249//36
f 250//37 249//36 248//35
s 0
f 251//38 252//38 253//38
f 251//39 253//39 254//39
f 255//40 256//40 257//40
f 255//41 258//41 256//41
f 259//42 260//42 261//42
f 260//43 259//43 262//43
s 1
f 263//44 264//44 265//45
f 265//45 266//45 263//44
s 0
f 267//46 268//46 269//46
f 270//46 268//46 267//46
f 271//47 272//47 273//47
f 272//47 271//47 274//47
f 275//48 276//48 277//48
s 1
f 278//49 279//50 280//51
f 280//51 281//50 278//49
s 0
f 282//6 283//6 284//6
f 285//6 286//6 287//6
f 286//6 285//6 288//6
f 289//52 290//52 291//52
f 289//52 292//52 290//52
f 293//53 294//53 295//53
f 296//54 295//54 294//54
f 297//55 298//55 299//55
f 299//55 300//55 297//55
f 301//6 302//6 303//6
f 302//6 301//6 304//6
f 305//6 302//6 304//6
s 1
f 306//56 307//56 308//56
f 309//56 307//56 306//56
s 0
f 310//57 311//57 312//57
f 311//57 310//57 313//57
s 1
f 314//58 315//59 316//59
f 315//59 314//58 317//59
s 0
f 318//60 319//60 320//60
f 321//60 320//60 319//60
s 1
f 322//61 323//61 324//61
f 323//61 322//61 325//61
f 326//62 327//62 328//62
f 329//62 328//62 327//62
f 330//63 331//63 332//63
f 331//63 330//63 333//63
f 334//64 335//65 336//65
f 334//64 337//64 335//65
f 338//66 339//66 340//66
f 339//66 338//66 341//66
s 0
f 342//6 343//6 344//6
f 343//6 342//6 345//6
s 1
f 346//67 347//68 348//67
f 349//69 348//67 347//68
s 0
f 350//6 351//6 352//6
f 350//6 353//6 351//6
f 353//6 350//6 354//6
f 355//70 356//70 357//70
f 358//71 359//71 360//71
s 1
f 359//71 358//71 361//71
s 0
f 362//72 363//72 364//72
f 363//72 362//72 365//72
s 1
f 366//73 367//74 368//75
f 369//74 367//74 366//73
s 0
f 370//76 371//76 372//76
s 1
f 373//77 374//78 375//78
f 374//78 373//77 376//77
s 0
f 377//79 378//79 379//79
f 377//79 380//79 378//79
s 1
f 381//80 382//80 383//81
f 381//80 384//80 382//80
s 0
f 385//82 386//82 387//82
f 385//82 388//82 386//82
f 389//83 390//83 391//83
f 390//83 389//83 392//83
s 1
f 393//84 394//84 395//84
f 394//84 393//84 396//84
s 0
f 397//85 398//85 399//85
f 398//85 397//85 400//85
f 401//6 402//6 403//6
f 403//6 404//6 401//6
f 405//86 406//86 407//86
f 406//86 405//86 408//86
f 409//7 410//7 411//7
f 409//7 412//7 410//7
f 413//87 414//87 415//87
f 415//87 416//87 413//87
f 417//47 418//47 419//47
f 417//47 420//47 418//47
f 421//48 275//48 277//48
f 422//48 277//48 423//48
f 277//48 422//48 421//48
s 1
f 424//88 425//89 426//90
f 425//89 424//88 427//91
s 0
f 428//5 429//5 430//5
f 431//5 432//5 433//5
f 432//5 431//5 434//5
f 435//92 436//92 437//92
f 436//92 438//92 439//92
f 436//92 439//92 437//92
f 436//92 435//92 440//92
f 441//52 442//52 443//52
s 1
f 444//52 441//52 443//52
s 0
f 445//93 446//93 447//93
f 446//93 445//93 448//93
f 449//55 450//55 451//55
f 452//55 450//55 449//55
f 453//5 454//5 455//5
f 454//5 453//5 456//5
f 457//5 455//5 454//5
s 1
f 458//94 459//94 460//94
f 459//94 458//94 461//94
s 0
f 462//57 463//57 464//57
f 463//57 462//57 465//57
s 1
f 466//95 467//95 468//95
f 467//95 466//95 469//95
s 0
f 470//60 471//60 472//60
f 471//60 470//60 473//60
s 1
f 474//96 475//96 476//96
f 474//96 477//96 475//96
f 478//97 479//97 480//97
f 478//97 480//97 481//98
f 482//99 483//99 484//99
f 483//99 482//99 485//99
f 486//100 487//101 488//102
f 489//102 488//102 487//101
f 490//103 491//104 492//104
f 491//104 490//103 493//104
s 0
f 494//5 495//5 496//5
f 495//5 494//5 497//5
s 1
f 498//105 499//106 500//107
f 498//105 500//107 501//108
s 0
f 502//5 503//5 504//5
f 503//5 505//5 506//5
f 505//5 503//5 502//5
f 507//109 508//109 509//109
s 1
f 510//71 511//71 512//71
s 0
f 511//71 510//71 513//71
f 514//110 515//110 516//110
f 515//110 514//110 517//110
s 1
f 518//111 519//112 520//111
f 518//111 521//112 519//112
s 0
f 522//76 371//76 523//76
f 371//76 522//76 524//76
f 371//76 370//76 523//76
s 1
f 525//113 526//114 527//114
f 526//114 525//113 528//114
s 0
f 378//79 529//79 530//79
f 529//79 378//79 380//79
s 1
f 531//115 532//115 533//115
f 532//115 531//115 534//115
s 0
f 535//82 536//82 537//82
f 536//82 535//82 538//82
f 539//83 540//83 541//83
f 540//83 539//83 542//83
s 1
f 543//116 544//116 545//116
f 544//116 543//116 546//117
f 547//118 548//118 549//118
s 0
f 548//118 547//118 550//118
f 551//5 552//5 553//5
f 554//5 552//5 551//5
f 555//86 556//86 557//86
f 556//86 555//86 558//86
f 412//7 559//7 410//7
f 412//7 560//7 559//7
f 412//7 409//7 561//7
f 562//7 410//7 559//7
f 563//119 564//119 565//119
f 566//119 565//119 564//119
f 567//120 568//120 569//120
f 567//120 570//120 568//120
f 571//121 572//121 573//121
f 572//121 571//121 574//121
f 575//122 576//122 577//122
f 576//122 575//122 578//122
s 1
f 579//123 580//123 581//123
f 582//123 580//123 583//123
f 580//123 579//123 584//123
f 580//123 582//123 581//123
f 585//124 586//125 587//124
f 586//125 588//124 589//124
f 586//125 590//124 588//124
f 586//125 585//124 590//124
s 0
f 591//126 592//126 593//126
f 592//126 591//126 594//126
f 595//127 596//127 597//127
s 1
f 596//127 595//127 598//127
s 0
f 599//128 600//128 601//128
f 600//128 599//128 602//128
f 603//129 604//129 605//129
f 603//129 606//129 604//129
f 607//5 608//5 609//5
f 608//5 607//5 610//5
f 611//130 612//130 613//130
f 612//130 611//130 614//130
f 615//6 616//6 617//6
f 617//6 618//6 615//6
f 619//131 620//131 621//131
f 622//131 621//131 620//131
f 623//3 624//3 625//3
f 623//3 626//3 624//3
f 627//132 628//132 629//132
f 629//132 630//132 627//132
s 1
f 631//133 632//134 633//133
f 632//134 631//133 634//133
s 0
f 635//135 636//135 637//135
s 1
f 636//136 635//136 638//136
f 639//137 640//137 641//138
f 639//137 641//138 642//138
s 0
f 643//139 644//139 645//139
f 644//139 643//139 646//139
f 647//140 648//140 649//140
f 648//140 647//140 650//140
s 1
f 651//141 652//141 653//142
f 654//141 653//142 652//141
f 655//143 656//143 657//143
f 656//143 655//143 658//144
s 0
f 659//145 660//145 661//145
s 1
f 659//145 661//145 662//145
s 0
f 663//146 664//146 665//146
f 664//146 663//146 666//146
s 1
f 667//147 668//147 669//147
f 668//147 667//147 670//147
s 0
f 671//148 672//148 673//148
f 671//148 674//148 672//148
s 1
f 675//149 676//150 677//149
f 676//150 675//149 678//150
s 0
f 679//151 680//151 681//151
f 680//151 679//151 682//151
f 683//152 684//152 685//152
f 684//152 683//152 686//152
s 1
f 687//153 688//153 689//153
f 687//153 690//153 688//153
s 0
f 691//154 692//154 693//154
s 1
f 694//154 691//154 693//154
f 695//155 696//155 697//155
f 696//155 695//155 698//156
s 0
f 699//157 700//157 701//157
f 699//157 701//157 702//157
f 703//158 704//158 705//158
f 704//158 703//158 706//158
f 707//159 708//159 709//159
f 708//159 707//159 710//159
s 1
f 711//160 712//161 713//161
f 712//161 711//160 714//161
f 715//162 716//163 717//163
f 716//163 715//162 718//162
f 719//164 720//164 721//164
f 720//164 719//164 722//164
s 0
f 723//165 724//165 725//165
f 724//165 723//165 726//165
s 1
f 727//166 728//167 729//166
f 730//166 728//167 727//166
s 0
f 731//168 732//168 733//168
f 732//168 731//168 734//168
f 735//169 736//169 737//169
f 738//169 735//169 737//169
s 1
f 739//170 740//170 741//170
f 740//170 739//170 742//170
f 743//171 744//172 745//172
f 744//172 743//171 746//173
s 0
f 747//174 748//174 749//174
f 748//174 747//174 750//174
s 1
f 751//175 752//176 753//175
f 752//176 751//175 754//175
f 755//177 756//178 757//178
f 755//177 757//178 758//179
s 0
f 759//180 760//180 761//180
f 760//180 759//180 762//180
f 763//181 764//181 765//181
f 766//181 763//181 765//181
f 767//182 768//182 769//182
f 768//182 767//182 770//182
usemtl Black
f 771//183 772//183 773//183
s 1
f 774//184 775//184 776//184
f 775//184 774//184 777//185
f 778//186 779//186 780//186
f 779//186 778//186 781//186
f 779//186 782//186 780//186
f 783//187 784//187 785//187
f 784//187 783//187 786//187
f 787//188 788//188 789//188
f 790//188 789//188 788//188
s 0
f 791//6 792//6 793//6
f 794//6 792//6 791//6
f 795//189 796//189 797//189
f 798//189 797//189 796//189
f 799//190 800//190 801//190
f 802//190 800//190 799//190
s 1
f 803//191 804//191 805//191
f 803//191 806//192 807//193
f 804//191 803//191 807//193
s 0
f 808//6 809//6 810//6
f 809//6 808//6 811//6
f 812//183 813//183 814//183
s 1
f 815//194 816//195 817//194
f 816//195 815//194 818//194
f 819//196 820//197 821//198
f 822//196 821//198 823//199
f 821//198 822//196 819//196
f 824//200 825//200 826//200
f 825//200 824//200 827//200
f 828//201 829//201 830//201
f 829//201 828//201 831//201
s 0
f 832//5 833//5 834//5
f 834//5 835//5 832//5
f 836//189 837//189 838//189
f 836//189 838//189 839//189
f 840//202 841//202 842//202
f 842//202 843//202 840//202
s 1
f 844//203 845//203 846//204
f 847//203 844//203 848//204
f 847//203 845//203 844//203
s 0
f 849//5 850//5 851//5
f 850//5 849//5 852//5
f 853//3 854//3 855//3
f 854//3 853//3 856//3
f 857//205 858//205 859//205
f 858//205 857//205 860//205
f 861//206 862//206 863//206
f 862//206 861//206 864//206
f 865//207 866//207 867//207
f 866//207 865//207 868//207
f 869//1 870//1 871//1
f 870//1 869//1 872//1
f 873//208 874//208 875//208
f 874//208 873//208 876//208
f 877//209 878//209 879//209
f 878//209 877//209 880//209
f 881//210 882//210 883//210
f 884//210 883//210 882//210
f 885//211 886//211 887//211
f 888//211 887//211 886//211
f 889//7 890//7 891//7
f 892//7 889//7 893//7
f 892//7 893//7 894//7
f 892//7 894//7 895//7
f 892//7 890//7 889//7
f 891//7 890//7 896//7
f 897//7 890//7 892//7
f 890//7 897//7 898//7
f 899//212 900//212 901//212
f 900//212 899//212 902//212
f 903//213 904//213 905//213
f 904//213 903//213 906//213
f 907//214 908//214 909//214
f 909//214 910//214 907//214
f 911//215 912//215 913//215
f 912//215 911//215 914//215
f 915//216 916//216 917//216
f 916//216 915//216 918//216
f 919//217 920//217 921//217
f 920//217 919//217 922//217
f 923//218 924//218 925//218
f 924//218 923//218 926//218
f 927//219 928//219 929//219
f 928//219 927//219 930//219
f 931//220 932//220 933//220
f 931//220 934//220 932//220
f 935//221 936//221 937//221
f 936//221 935//221 938//221
f 939//222 940//222 941//222
f 940//222 939//222 942//222
f 943//223 944//223 945//223
f 943//223 945//223 946//223
f 947//223 948//223 949//223
f 948//223 944//223 943//223
f 950//223 948//223 947//223
f 944//223 948//223 950//223
f 944//223 951//223 952//223
f 951//223 944//223 950//223
f 953//212 954//212 955//212
f 953//212 955//212 956//212
f 957//211 958//211 959//211
f 958//211 957//211 960//211
f 961//208 962//208 963//208
f 962//208 961//208 964//208
f 965//1 966//1 967//1
f 966//1 965//1 968//1
f 969//207 970//207 971//207
f 970//207 969//207 972//207
f 973//206 974//206 975//206
f 973//206 976//206 974//206
f 977//209 978//209 979//209
f 977//209 980//209 978//209
f 981//205 982//205 983//205
f 981//205 984//205 982//205
f 985//3 986//3 987//3
f 985//3 987//3 988//3
f 989//210 990//210 991//210
f 990//210 989//210 992//210
f 993//224 994//224 995//224
f 994//224 996//224 997//224
f 996//224 994//224 993//224
f 998//225 999//225 1000//225
f 999//225 998//225 1001//225
f 1002//226 1003//226 1004//226
f 1003//226 1002//226 1005//226
f 1006//227 1007//227 1008//227
f 1008//227 1009//227 1006//227
f 1010//227 1009//227 1008//227
f 1011//6 1012//6 1013//6
f 1012//6 1011//6 1014//6
f 1015//228 1016//228 1017//228
f 1018//228 1017//228 1016//228
f 1019//224 1020//224 1021//224
f 1020//224 1022//224 1023//224
f 1022//224 1020//224 1019//224
f 1024//229 1025//229 1026//229
f 1025//229 1024//229 1027//229
f 1028//226 1029//226 1030//226
f 1029//226 1028//226 1031//226
f 1032//227 1033//227 1034//227
f 1033//227 1035//227 1036//227
f 1035//227 1033//227 1032//227
f 1037//5 1038//5 1039//5
f 1038//5 1037//5 1040//5
f 1041//228 1042//228 1043//228
f 1041//228 1044//228 1042//228
f 1045//224 1046//224 1047//224
f 1046//224 1048//224 1049//224
f 1048//224 1046//224 1045//224
f 1050//225 1051//225 1052//225
f 1051//225 1050//225 1053//225
f 1054//226 1055//226 1056//226
f 1055//226 1054//226 1057//226
f 1058//227 1059//227 1060//227
f 1060//227 1061//227 1058//227
f 1062//227 1061//227 1060//227
f 1063//6 1064//6 1065//6
f 1064//6 1063//6 1066//6
f 1067//228 1068//228 1069//228
f 1070//228 1069//228 1068//228
f 1071//224 1072//224 1073//224
f 1072//224 1074//224 1075//224
f 1074//224 1072//224 1071//224
f 1076//229 1077//229 1078//229
f 1077//229 1076//229 1079//229
f 1080//226 1081//226 1082//226
f 1081//226 1080//226 1083//226
f 1084//227 1085//227 1086//227
f 1085//227 1087//227 1088//227
f 1087//227 1085//227 1084//227
f 1089//5 1090//5 1091//5
f 1090//5 1089//5 1092//5
f 1093//228 1094//228 1095//228
f 1093//228 1095//228 1096//228
f 1097//224 1098//224 1099//224
f 1098//224 1100//224 1101//224
f 1100//224 1098//224 1097//224
f 1102//225 1103//225 1104//225
f 1103//225 1102//225 1105//225
f 1106//226 1107//226 1108//226
f 1107//226 1106//226 1109//226
f 1110//227 1111//227 1112//227
f 1112//227 1113//227 1110//227
f 1114//227 1113//227 1112//227
f 1115//6 1116//6 1117//6
f 1116//6 1115//6 1118//6
f 1119//228 1120//228 1121//228
f 1122//228 1121//228 1120//228
f 1123//224 1124//224 1125//224
f 1124//224 1126//224 1127//224
f 1126//224 1124//224 1123//224
f 1128//229 1129//229 1130//229
f 1129//229 1128//229 1131//229
f 1132//226 1133//226 1134//226
f 1133//226 1132//226 1135//226
f 1136//227 1137//227 1138//227
f 1137//227 1139//227 1140//227
f 1139//227 1137//227 1136//227
f 1141//5 1142//5 1143//5
f 1142//5 1141//5 1144//5
f 1145//228 1146//228 1147//228
f 1145//228 1148//228 1146//228
f 1149//224 1150//224 1151//224
f 1150//224 1152//224 1153//224
f 1152//224 1150//224 1149//224
f 1154//225 1155//225 1156//225
f 1155//225 1154//225 1157//225
f 1158//226 1159//226 1160//226
f 1159//226 1158//226 1161//226
f 1162//227 1163//227 1164//227
f 1164//227 1165//227 1162//227
f 1166//227 1165//227 1164//227
f 1167//6 1168//6 1169//6
f 1168//6 1167//6 1170//6
f 1171//228 1172//228 1173//228
f 1174//224 1175//224 1176//224
f 1175//224 1177//224 1178//224
f 1177//224 1175//224 1174//224
f 1179//229 1180//229 1181//229
f 1180//229 1179//229 1182//229
f 1183//226 1184//226 1185//226
f 1184//226 1183//226 1186//226
f 1187//227 1188//227 1189//227
f 1188//227 1190//227 1191//227
f 1190//227 1188//227 1187//227
f 1192//5 1193//5 1194//5
f 1193//5 1192//5 1195//5
f 1196//228 1173//228 1172//228
f 1197//228 1196//228 1172//228
f 1197//228 1172//228 1198//228
s 1
f 1199//230 1200//230 1201//230
f 1202//230 1203//230 1204//230
f 1203//230 1200//230 1199//230
f 1200//230 1203//230 1202//230
s 0
f 1205//231 1206//231 1207//231
f 1206//231 1205//231 1208//231
f 1209//232 1210//232 1211//232
f 1210//232 1209//232 1212//232
f 1213//233 1214//233 1215//233
f 1213//233 1216//233 1214//233
f 1217//234 1218//234 1219//234
f 1218//235 1217//235 1220//235
f 1221//236 1222//236 1223//236
f 1222//237 1221//237 1224//237
f 1225//238 1226//238 1227//238
f 1225//238 1227//238 1228//238
f 1229//239 1230//239 1231//239
f 1230//239 1229//239 1232//239
f 1233//240 1234//240 1235//240
f 1234//240 1233//240 1236//240
f 1237//241 1238//241 1239//241
f 1238//241 1237//241 1240//241
f 1241//242 1242//242 1243//242
f 1244//242 1241//242 1243//242
s 1
f 1245//243 1246//244 1247//245
f 1246//244 1248//243 1249//243
f 1247//245 1246//244 1249//243
s 0
f 1250//246 1251//246 1252//246
f 1251//246 1250//246 1253//246
s 1
f 1254//247 1255//248 1256//247
f 1257//247 1256//247 1255//248
s 0
f 1258//249 1259//249 1260//249
f 1259//249 1258//249 1261//249
f 1262//250 1263//250 1264//250
f 1265//250 1264//250 1263//250
s 1
f 1266//251 1267//251 1268//251
f 1267//251 1266//251 1269//251
f 1268//251 1270//252 1271//251
f 1268//251 1267//251 1270//252
s 0
f 1272//253 1273//253 1274//253
f 1273//253 1272//253 1275//253
f 1276//254 1277//254 1278//254
f 1277//254 1276//254 1279//254
f 1280//255 1281//255 1282//255
f 1281//255 1280//255 1283//255
s 1
f 1284//256 1285//257 1286//258
f 1287//259 1284//256 1286//258
f 1288//260 1289//261 1290//262
f 1289//261 1288//260 1291//262
f 1292//263 1293//264 1294//263
f 1295//263 1293//264 1292//263
f 1293//264 1295//263 1296//263
f 1297//265 1298//265 1299//265
f 1298//265 1297//265 1300//265
s 0
f 1301//266 1302//266 1303//266
f 1302//266 1301//266 1304//266
usemtl LightMetal
f 1305//7 1306//7 1307//7
f 1306//7 1308//7 1309//7
f 1306//7 1305//7 1308//7
f 1310//7 1311//7 1312//7
f 1307//7 1311//7 1310//7
f 1307//7 1310//7 1305//7
f 1311//7 1313//7 1312//7
f 1313//7 1314//7 1315//7
f 1314//7 1313//7 1311//7
f 1316//3 1317//3 1318//3
f 1317//3 1316//3 1319//3
s 1
f 1320//267 1321//268 1322//268
f 1321//268 1320//267 1323//267
f 1324//269 1325//269 1326//269
f 1325//269 1324//269 1327//269
f 1328//270 1329//270 1330//270
f 1329//270 1328//270 1331//270
s 0
f 1332//271 1333//271 1334//271
f 1335//271 1334//271 1333//271
f 1336//272 1337//272 1338//272
f 1337//273 1336//273 1339//273
s 1
f 1340//274 1341//274 1342//275
f 1341//274 1340//274 1343//274
f 1344//276 1345//277 1346//276
f 1345//277 1344//276 1347//276
f 1348//278 1349//279 1350//280
f 1349//279 1348//278 1351//279
s 0
f 1352//281 1353//281 1354//281
f 1353//281 1352//281 1355//281
f 1356//282 1357//282 1358//282
f 1357//283 1356//283 1359//283
f 1360//284 1361//284 1362//284
f 1361//285 1360//285 1363//285
f 1364//286 1365//286 1366//286
f 1364//287 1367//287 1365//287
f 1368//288 1369//288 1370//288
f 1369//288 1368//288 1371//288
f 1372//7 1373//7 1374//7
f 1373//7 1372//7 1375//7
f 1376//7 1377//7 1378//7
f 1379//7 1378//7 1377//7
f 1379//7 1377//7 1380//7
f 1381//7 1382//7 1383//7
f 1383//7 1382//7 1384//7
s 1
f 1385//289 1386//289 1387//289
f 1386//289 1385//289 1388//289
f 1389//290 1390//290 1391//290
f 1390//290 1389//290 1392//290
f 1393//291 1394//292 1395//292
f 1396//291 1395//292 1394//292
s 0
f 1397//293 1398//293 1399//293
f 1398//294 1397//294 1400//294
f 1401//295 1402//295 1403//295
f 1402//296 1401//296 1404//296
s 1
f 1405//297 1406//297 1407//297
f 1406//297 1405//297 1408//298
f 1409//299 1410//300 1411//301
f 1409//299 1412//299 1410//300
s 0
f 1413//302 1414//302 1415//302
s 1
f 1414//303 1413//303 1416//303
s 0
f 1417//304 1418//304 1419//304
f 1418//304 1417//304 1420//304
f 1421//305 1422//305 1423//305
f 1422//305 1421//305 1424//305
f 1425//306 1426//306 1427//306
f 1426//306 1425//306 1428//306
f 1429//307 1430//307 1431//307
f 1430//307 1429//307 1432//307
f 1433//308 1434//308 1435//308
f 1434//308 1433//308 1436//308
s 1
f 1437//309 1438//310 1439//311
f 1438//310 1437//309 1440//311
f 1441//312 1442//313 1443//314
f 1444//314 1442//313 1441//312
f 1445//315 1446//315 1447//315
f 1448//315 1447//315 1446//315
f 1449//316 1450//316 1451//317
f 1450//316 1449//316 1452//316
f 1453//318 1454//318 1455//318
f 1456//318 1455//318 1454//318
s 0
f 1457//319 1458//319 1459//319
s 1
f 1458//319 1457//319 1460//319
f 1461//320 1462//321 1463//321
f 1464//321 1462//321 1461//320
s 0
f 1465//322 1466//322 1467//322
f 1466//322 1465//322 1468//322
s 1
f 1469//323 1470//323 1471//323
f 1470//323 1469//323 1472//323
f 1473//324 1474//324 1475//324
f 1476//324 1474//324 1473//324
s 0
f 1477//325 1478//325 1479//325
f 1478//326 1477//326 1480//326
f 1481//327 1482//327 1483//327
f 1482//328 1481//328 1484//328
s 1
f 1485//329 1486//330 1487//330
f 1486//330 1485//329 1488//330
f 1489//331 1490//331 1491//332
f 1490//331 1489//331 1492//331
s 0
f 1493//333 1494//333 1495//333
f 1494//334 1493//334 1496//334
f 1497//335 1498//335 1499//335
f 1497//336 1500//336 1498//336
s 1
f 1501//337 1502//337 1503//337
f 1502//337 1501//337 1504//337
f 1505//338 1506//338 1507//338
f 1508//338 1506//338 1505//338
f 1506//338 1508//338 1509//339
f 1506//338 1509//339 1510//338
f 1506//338 1510//338 1511//338
f 1512//340 1513//341 1514//340
f 1512//340 1514//340 1515//340
f 1512//340 1516//340 1513//341
f 1516//340 1517//342 1518//342
f 1516//340 1512//340 1517//342
f 1519//340 1517//342 1520//342
f 1521//342 1517//342 1522//340
f 1520//342 1517//342 1521//342
f 1523//340 1517//342 1519//340
f 1517//342 1523//340 1518//342
f 1524//343 1525//344 1526//343
f 1525//344 1524//343 1527//344
f 1528//345 1529//345 1530//345
f 1529//345 1531//346 1532//345
f 1531//346 1529//345 1528//345
s 0
f 1533//347 1534//347 1535//347
f 1534//347 1533//347 1536//347
f 1537//304 1538//304 1539//304
f 1538//304 1537//304 1540//304
s 1
f 1541//348 1542//348 1543//349
f 1544//348 1543//349 1542//348
s 0
f 1545//350 1546//350 1547//350
s 1
f 1548//351 1549//352 1550//351
f 1549//352 1548//351 1551//352
f 1552//353 1553//353 1554//353
f 1553//353 1552//353 1555//353
f 1556//354 1557//355 1558//355
f 1557//355 1556//354 1559//355
s 0
f 1560//356 1561//356 1562//356
f 1560//357 1562//357 1563//357
f 1561//358 1560//358 1564//358
s 1
f 1565//359 1566//360 1567//360
f 1565//359 1568//361 1566//360
s 0
f 1569//362 1570//362 1571//362
f 1570//363 1569//363 1572//363
f 1573//7 1574//7 1575//7
f 1574//7 1576//7 1577//7
f 1576//7 1578//7 1579//7
f 1576//7 1574//7 1573//7
f 1576//7 1579//7 1577//7
f 1580//7 1581//7 1582//7
f 1578//7 1583//7 1579//7
f 1583//7 1578//7 1580//7
f 1583//7 1580//7 1582//7
f 1584//3 1585//3 1586//3
f 1584//3 1587//3 1585//3
s 1
f 1588//364 1589//364 1590//365
f 1589//364 1588//364 1591//364
f 1592//366 1593//366 1594//366
f 1592//366 1594//366 1595//366
f 1596//367 1597//367 1598//367
f 1599//367 1596//367 1598//367
s 0
f 1600//368 1601//368 1602//368
f 1600//368 1602//368 1603//368
f 1604//369 1605//369 1606//369
f 1604//370 1606//370 1607//370
s 1
f 1608//371 1609//371 1610//371
f 1609//371 1608//371 1611//371
f 1612//372 1613//373 1614//374
f 1613//373 1612//372 1615//372
f 1616//375 1617//376 1618//376
f 1617//376 1616//375 1619//376
s 0
f 1620//377 1621//377 1622//377
f 1621//377 1620//377 1623//377
f 1624//378 1625//378 1626//378
f 1625//378 1624//378 1627//378
f 1628//379 1629//379 1630//379
f 1629//377 1628//377 1631//377
f 1632//380 1633//380 1634//380
f 1635//381 1634//381 1633//381
f 1636//382 1637//382 1638//382
s 1
f 1636//382 1638//382 1639//382
s 0
f 1640//7 1641//7 1642//7
f 1641//7 1640//7 1643//7
f 1644//7 1645//7 1646//7
f 1645//7 1647//7 1648//7
f 1647//7 1645//7 1644//7
f 1649//7 1650//7 1651//7
f 1651//7 1652//7 1649//7
s 1
f 1653//383 1654//383 1655//383
f 1654//383 1653//383 1656//383
f 1657//384 1658//385 1659//385
f 1658//385 1657//384 1660//386
f 1661//387 1662//387 1663//387
f 1662//387 1661//387 1664//387
s 0
f 1665//388 1666//388 1667//388
f 1666//389 1665//389 1668//389
f 1669//390 1670//390 1671//390
f 1670//377 1669//377 1672//377
s 1
f 1673//391 1674//391 1675//391
f 1673//391 1676//392 1674//391
f 1677//393 1678//394 1679//395
f 1680//395 1679//395 1678//394
f 1681//396 1682//396 1683//396
s 0
f 1682//396 1681//396 1684//396
f 1685//397 1686//397 1687//397
f 1685//397 1688//397 1686//397
f 1689//398 1690//398 1691//398
f 1690//398 1689//398 1692//398
f 1693//399 1694//399 1695//399
f 1695//399 1696//399 1693//399
f 1697//400 1698//400 1699//400
f 1697//400 1700//400 1698//400
f 1701//401 1702//401 1703//401
f 1702//401 1701//401 1704//401
s 1
f 1705//402 1706//403 1707//404
f 1708//405 1706//403 1705//402
f 1709//406 1710//407 1711//408
f 1710//407 1709//406 1712//409
f 1713//410 1714//410 1715//410
f 1715//410 1716//410 1713//410
f 1717//411 1718//411 1719//411
f 1718//411 1717//411 1720//411
f 1721//412 1722//413 1723//412
f 1722//413 1721//412 1724//413
s 0
f 1725//414 1726//414 1727//414
f 1726//414 1725//414 1728//414
s 1
f 1729//415 1730//416 1731//417
f 1729//415 1731//417 1732//415
s 0
f 1733//418 1734//418 1735//418
f 1735//418 1736//418 1733//418
s 1
f 1737//419 1738//420 1739//420
f 1738//420 1737//419 1740//420
f 1741//421 1742//421 1743//421
f 1743//421 1744//421 1741//421
s 0
f 1745//422 1746//422 1747//422
f 1748//423 1746//423 1745//423
f 1749//424 1750//424 1751//424
f 1750//425 1749//425 1752//425
s 1
f 1753//426 1754//427 1755//426
f 1754//427 1753//426 1756//427
f 1757//428 1758//429 1759//428
f 1758//429 1757//428 1760//428
s 0
f 1761//430 1762//430 1763//430
f 1764//431 1763//431 1762//431
f 1765//432 1766//432 1767//432
f 1766//432 1765//432 1768//432
s 1
f 1769//433 1770//433 1771//433
f 1770//433 1769//433 1772//433
f 1773//434 1774//435 1775//434
f 1776//435 1774//435 1777//436
f 1774//435 1778//435 1779//434
f 1774//435 1773//434 1777//436
f 1774//435 1776//435 1778//435
f 1780//437 1781//438 1782//438
f 1783//438 1784//437 1785//438
f 1786//437 1782//438 1781//438
f 1787//437 1781//438 1780//437
f 1781//438 1787//437 1784//437
f 1788//437 1784//437 1789//437
f 1784//437 1790//437 1791//438
f 1784//437 1787//437 1785//438
f 1784//437 1783//438 1790//437
f 1789//437 1784//437 1791//438
f 1792//439 1793//440 1794//440
f 1792//439 1795//440 1793//440
f 1796//441 1797//442 1798//441
f 1796//441 1799//441 1800//443
f 1800//443 1797//442 1796//441
s 0
f 1801//444 1802//444 1803//444
f 1801//445 1804//445 1802//445
f 1805//446 1806//446 1807//446
f 1805//446 1807//446 1808//446
s 1
f 1809//447 1810//447 1811//448
f 1810//447 1809//447 1812//447
s 0
f 1813//449 1814//449 1815//449
s 1
f 1816//450 1817//450 1818//450
f 1817//450 1816//450 1819//450
f 1820//451 1821//451 1822//451
f 1821//451 1820//451 1823//451
f 1824//452 1825//452 1826//453
f 1825//452 1824//452 1827//453
s 0
f 1828//454 1829//454 1830//454
f 1831//455 1830//455 1829//455
f 1830//456 1831//456 1832//456
s 1
f 1833//457 1834//458 1835//459
f 1834//458 1833//457 1836//459
s 0
f 1837//460 1838//460 1839//460
f 1838//30 1837//30 1840//30
