# Blender 3.6.2
# www.blender.org
mtllib body.mtl
o Head
v -0.050718 0.477442 0.048582
v -0.051231 0.565311 0.048582
v -0.050718 0.477442 -0.024551
v -0.050718 0.566730 -0.024551
v 0.051878 0.477442 0.048582
v 0.052391 0.565311 0.048582
v 0.051878 0.477442 -0.024551
v 0.051878 0.566730 -0.024551
v -0.051231 0.574252 0.048582
v -0.050718 0.572833 -0.024551
v 0.051878 0.572833 -0.024551
v 0.052391 0.574252 0.048582
v -0.050718 0.477442 0.050855
v -0.050718 0.566730 0.050855
v 0.051878 0.566730 0.050855
v 0.051878 0.477442 0.050855
v -0.080573 0.236819 0.041961
v -0.080573 0.475529 0.041961
v -0.080573 0.236819 -0.021545
v 0.077630 0.236819 0.041961
v 0.077630 0.475529 0.041961
v 0.077630 0.236819 -0.021545
v 0.077630 0.475529 -0.021545
v -0.080573 0.475529 -0.021545
v 0.077662 0.430133 -0.170262
v 0.077662 0.429983 0.043079
v 0.077662 0.474366 -0.170231
v 0.118042 0.430133 -0.170262
v 0.118042 0.429983 0.043079
v 0.118042 0.474366 -0.170231
v 0.118042 0.474216 0.043110
v 0.077662 0.474216 0.043110
vn -1.0000 -0.0029 -0.0035
vn -0.0000 -0.0000 -1.0000
vn 1.0000 -0.0029 -0.0035
vn 0.9936 -0.0029 0.1130
vn -0.0000 -1.0000 -0.0000
vn -0.0000 0.9998 -0.0194
vn 1.0000 -0.0000 -0.0070
vn -1.0000 -0.0000 -0.0070
vn -0.0000 -0.0000 1.0000
vn -0.9936 -0.0029 0.1130
vn -0.0000 0.8483 -0.5296
vn -1.0000 -0.0000 -0.0000
vn 1.0000 -0.0000 -0.0000
vn -0.0000 1.0000 -0.0000
vn -0.0000 -1.0000 -0.0007
vn -0.0000 0.0007 -1.0000
vn -0.0000 1.0000 0.0007
vn -0.0000 -0.0007 1.0000
vt 0.673985 0.585045
vt 0.732970 0.585045
vt 0.732970 0.644029
vt 0.673985 0.644029
vt 0.732970 0.703015
vt 0.673985 0.703015
vt 0.732970 0.762000
vt 0.673985 0.762000
vt 0.581706 0.670025
vt 0.831706 0.670025
vt 0.615000 0.703015
vt 0.615000 0.762000
vt 0.262035 0.822363
vt 0.262035 0.572363
vt 0.102084 0.658720
vt 0.352084 0.658720
vt 0.352084 0.908720
vt 0.102084 0.908720
vt 0.388765 0.839819
vt 0.388765 0.589819
vt 0.276799 0.854122
vt 0.276799 0.604122
vt 0.273108 0.857275
vt 0.273108 0.607275
vt 0.732970 0.820985
vt 0.673985 0.820985
vt 0.862466 0.706245
vt 0.612466 0.706245
vt 0.125000 0.750000
vt 0.375000 0.750000
vt 0.625000 0.750000
vt 0.625000 1.000000
vt 0.645255 0.167074
vt 0.895255 0.167074
vt 0.895255 0.417074
vt 0.645255 0.417074
vt 0.571431 0.160230
vt 0.821431 0.160230
vt 0.821431 0.410230
vt 0.571431 0.410230
vt 0.673323 0.163152
vt 0.923323 0.163152
vt 0.923323 0.413152
vt 0.673323 0.413152
vt 0.651407 0.175456
vt 0.901407 0.175456
vt 0.901407 0.425456
vt 0.651407 0.425456
vt 0.637248 0.404755
vt 0.537813 0.398725
vt 0.538142 0.195666
vt 0.638893 0.174284
vt 0.606113 0.157000
vt 0.856113 0.157000
vt 0.856113 0.407000
vt 0.606113 0.407000
vt 0.712242 0.737467
vt 0.755307 0.737467
vt 0.755307 0.780532
vt 0.712242 0.780532
vt 0.712242 0.608272
vt 0.755307 0.608272
vt 0.755307 0.651337
vt 0.712242 0.651337
vt 0.669177 0.694402
vt 0.712242 0.694402
vt 0.669177 0.737467
vt 0.755307 0.694402
vt 0.798372 0.694402
vt 0.798372 0.737467
s 0
usemtl Material.015
f 1/1/1 2/2/1 4/3/1 3/4/1
f 3/4/2 4/3/2 8/5/2 7/6/2
f 7/6/3 8/5/3 6/7/3 5/8/3
f 5/9/4 6/10/4 15/10/4 16/9/4
f 3/11/5 7/6/5 5/8/5 1/12/5
f 8/13/2 4/14/2 10/14/2 11/13/2
f 11/15/6 10/16/6 9/17/6 12/18/6
f 6/19/7 8/20/7 11/20/7 12/19/7
f 4/21/8 2/22/8 9/22/8 10/21/8
f 2/23/9 6/24/9 12/24/9 9/23/9
f 16/8/9 15/7/9 14/25/9 13/26/9
f 2/27/10 1/28/10 13/28/10 14/27/10
f 1/29/5 5/30/5 16/30/5 13/29/5
f 6/31/11 2/32/11 14/32/11 15/31/11
f 20/33/9 21/34/9 18/35/9 17/36/9
f 17/37/12 18/38/12 24/39/12 19/40/12
f 19/41/5 22/42/5 20/43/5 17/44/5
f 22/45/13 23/46/13 21/47/13 20/48/13
f 19/49/2 24/50/2 23/51/2 22/52/2
f 23/53/14 24/54/14 18/55/14 21/56/14
f 28/57/15 29/58/15 26/59/15 25/60/15
f 25/61/12 26/62/12 32/63/12 27/64/12
f 27/65/16 30/66/16 28/57/16 25/67/16
f 30/66/13 31/68/13 29/58/13 28/57/13
f 27/64/17 32/63/17 31/68/17 30/66/17
f 31/68/18 32/69/18 26/70/18 29/58/18
