# Blender 3.6.2
# www.blender.org
mtllib leftleg.mtl
o Head.001
v -0.079941 0.237065 -0.018466
v -0.017343 0.237065 -0.018466
v -0.079941 0.058443 -0.024580
v -0.079941 0.237065 0.034373
v -0.017343 0.237065 0.034373
v -0.079941 0.058443 0.034373
v -0.079941 0.001182 0.034373
v -0.017343 0.058443 0.034373
v -0.017343 0.001182 0.034373
v -0.017343 0.058443 -0.024580
v -0.017343 0.001182 -0.084440
v -0.079941 0.001182 -0.084440
vn -0.0000 1.0000 -0.0000
vn -0.0000 0.0342 -0.9994
vn -1.0000 -0.0000 -0.0000
vn -0.0000 -0.0000 1.0000
vn 1.0000 -0.0000 -0.0000
vn -0.0000 0.7226 -0.6912
vn -0.0000 -1.0000 -0.0000
vt 0.625000 0.500000
vt 0.875000 0.500000
vt 0.875000 0.750000
vt 0.625000 0.750000
vt 0.215280 0.433247
vt 0.215280 0.341739
vt 0.215280 0.250231
vt 0.215280 0.158722
vt 0.256882 0.630636
vt 0.377246 0.630636
vt 0.377246 0.751000
vt 0.256882 0.751000
vt 0.377246 0.871364
vt 0.256882 0.871364
vt 0.215280 0.067214
vt 0.256882 0.510272
vt 0.377246 0.510272
vt 0.377246 0.991728
vt 0.256882 0.991728
vt 0.136518 0.751000
vt 0.136518 0.871364
s 0
usemtl Material.015
f 4/1/1 5/2/1 2/3/1 1/4/1
f 10/5/2 3/6/2 1/6/2 2/5/2
f 3/6/3 6/7/3 4/7/3 1/6/3
f 6/7/4 8/8/4 5/8/4 4/7/4
f 9/9/4 8/10/4 6/11/4 7/12/4
f 7/12/3 6/11/3 3/13/3 12/14/3
f 8/8/5 10/15/5 2/15/5 5/8/5
f 11/16/5 10/17/5 8/10/5 9/9/5
f 12/14/6 3/13/6 10/18/6 11/19/6
f 9/20/7 7/12/7 12/14/7 11/21/7
