# Blender 3.6.2
# www.blender.org
mtllib leftarm.mtl
o Head.002
v -0.081545 0.476326 -0.011198
v -0.081545 0.263062 -0.016937
v -0.081545 0.475136 0.033018
v -0.121925 0.476326 -0.011198
v -0.121925 0.263062 -0.016937
v -0.121925 0.475136 0.033018
v -0.121925 0.261872 0.027279
v -0.081545 0.261872 0.027279
vn -0.0000 0.0269 -0.9996
vn 1.0000 -0.0000 -0.0000
vn -0.0000 0.9996 0.0269
vn -1.0000 -0.0000 -0.0000
vn -0.0000 -0.0269 0.9996
vn -0.0000 -0.9996 -0.0269
vt 0.658915 0.620968
vt 0.747114 0.620968
vt 0.747114 0.709167
vt 0.658915 0.709167
vt 0.747114 0.797365
vt 0.658915 0.797365
vt 0.835312 0.709167
vt 0.835312 0.797365
vt 0.658915 0.532770
vt 0.747114 0.532770
vt 0.747114 0.885563
vt 0.658915 0.885563
vt 0.570717 0.709167
vt 0.570717 0.797365
s 0
usemtl Material.015
f 5/1/1 4/2/1 1/3/1 2/4/1
f 2/4/2 1/3/2 3/5/2 8/6/2
f 1/3/3 4/7/3 6/8/3 3/5/3
f 7/9/4 6/10/4 4/2/4 5/1/4
f 8/6/5 3/5/5 6/11/5 7/12/5
f 5/13/6 2/4/6 8/6/6 7/14/6
