# Blender 4.3.2
# www.blender.org
mtllib player.mtl
o Head
v -0.050718 0.477442 0.048582
v -0.051231 0.565311 0.048582
v -0.050718 0.477442 -0.024551
v -0.050718 0.566730 -0.024551
v 0.051878 0.477442 0.048582
v 0.052391 0.565311 0.048582
v 0.051878 0.477442 -0.024551
v 0.051878 0.566730 -0.024551
v -0.051231 0.574252 0.048582
v -0.050718 0.572833 -0.024551
v 0.051878 0.572833 -0.024551
v 0.052391 0.574252 0.048582
v -0.050718 0.477442 0.050855
v -0.050718 0.566730 0.050855
v 0.051878 0.566730 0.050855
v 0.051878 0.477442 0.050855
v 0.077539 0.001182 -0.084440
v 0.077539 0.058443 -0.024580
v 0.077539 0.001182 0.034373
v 0.077539 0.058443 0.034373
v 0.014941 0.001182 -0.084440
v 0.014941 0.058443 -0.024580
v 0.014941 0.001182 0.034373
v 0.014941 0.058443 0.034373
v 0.077539 0.237065 -0.018466
v 0.077539 0.237065 0.034373
v 0.014941 0.237065 0.034373
v 0.014941 0.237065 -0.018466
v -0.017343 0.001182 -0.084440
v -0.017343 0.058443 -0.024580
v -0.017343 0.001182 0.034373
v -0.017343 0.058443 0.034373
v -0.079941 0.001182 -0.084440
v -0.079941 0.058443 -0.024580
v -0.079941 0.001182 0.034373
v -0.079941 0.058443 0.034373
v -0.017343 0.237065 -0.018466
v -0.017343 0.237065 0.034373
v -0.079941 0.237065 0.034373
v -0.079941 0.237065 -0.018466
v -0.080573 0.236819 0.041961
v -0.080573 0.475529 0.041961
v -0.080573 0.236819 -0.021545
v -0.080573 0.475529 -0.021545
v 0.077630 0.236819 0.041961
v 0.077630 0.475529 0.041961
v 0.077630 0.236819 -0.021545
v 0.077630 0.475529 -0.021545
v 0.077662 0.430133 -0.170262
v 0.077662 0.429983 0.043079
v 0.077662 0.474366 -0.170231
v 0.077662 0.474216 0.043110
v 0.118042 0.430133 -0.170262
v 0.118042 0.429983 0.043079
v 0.118042 0.474366 -0.170231
v 0.118042 0.474216 0.043110
v -0.121925 0.261872 0.027279
v -0.121925 0.475136 0.033018
v -0.121925 0.263062 -0.016937
v -0.121925 0.476326 -0.011198
v -0.081545 0.261872 0.027279
v -0.081545 0.475136 0.033018
v -0.081545 0.263062 -0.016937
v -0.081545 0.476326 -0.011198
vn -1.0000 -0.0029 -0.0035
vn -0.0000 -0.0000 -1.0000
vn 1.0000 -0.0029 -0.0035
vn 0.9936 -0.0029 0.1130
vn -0.0000 -1.0000 -0.0000
vn -0.0000 0.9998 -0.0194
vn 1.0000 -0.0000 -0.0070
vn -1.0000 -0.0000 -0.0070
vn -0.0000 -0.0000 1.0000
vn -0.9936 -0.0029 0.1130
vn -0.0000 0.8483 -0.5296
vn 1.0000 -0.0000 -0.0000
vn -1.0000 -0.0000 -0.0000
vn -0.0000 0.7226 -0.6912
vn -0.0000 1.0000 -0.0000
vn -0.0000 0.0342 -0.9994
vn -0.0000 1.0000 0.0007
vn -0.0000 -1.0000 -0.0007
vn -0.0000 0.0007 -1.0000
vn -0.0000 -0.0007 1.0000
vn -0.0000 0.0269 -0.9996
vn -0.0000 -0.0269 0.9996
vn -0.0000 -0.9996 -0.0269
vn -0.0000 0.9996 0.0269
vt 0.673985 0.585045
vt 0.732970 0.585045
vt 0.732970 0.644029
vt 0.673985 0.644029
vt 0.732970 0.703015
vt 0.673985 0.703015
vt 0.732970 0.762000
vt 0.673985 0.762000
vt 0.581706 0.670025
vt 0.831706 0.670025
vt 0.615000 0.703015
vt 0.615000 0.762000
vt 0.262035 0.822363
vt 0.262035 0.572363
vt 0.102084 0.658720
vt 0.352084 0.658720
vt 0.352084 0.908720
vt 0.102084 0.908720
vt 0.388765 0.839819
vt 0.388765 0.589819
vt 0.276799 0.854122
vt 0.276799 0.604122
vt 0.273108 0.857275
vt 0.273108 0.607275
vt 0.732970 0.820985
vt 0.673985 0.820985
vt 0.862466 0.706245
vt 0.612466 0.706245
vt 0.125000 0.750000
vt 0.375000 0.750000
vt 0.625000 0.750000
vt 0.625000 1.000000
vt 0.256882 0.510272
vt 0.377246 0.510272
vt 0.377246 0.630636
vt 0.256882 0.630636
vt 0.377246 0.751000
vt 0.256882 0.751000
vt 0.377246 0.871364
vt 0.256882 0.871364
vt 0.377246 0.991728
vt 0.256882 0.991728
vt 0.136518 0.751000
vt 0.136518 0.871364
vt 0.215280 0.341739
vt 0.215280 0.250231
vt 0.625000 0.500000
vt 0.875000 0.500000
vt 0.875000 0.750000
vt 0.215280 0.158722
vt 0.215280 0.067214
vt 0.215280 0.433247
vt 0.571431 0.160230
vt 0.821431 0.160230
vt 0.821431 0.410230
vt 0.571431 0.410230
vt 0.637248 0.404755
vt 0.537813 0.398725
vt 0.538142 0.195666
vt 0.638893 0.174284
vt 0.651407 0.175456
vt 0.901407 0.175456
vt 0.901407 0.425456
vt 0.651407 0.425456
vt 0.645255 0.167074
vt 0.895255 0.167074
vt 0.895255 0.417074
vt 0.645255 0.417074
vt 0.673323 0.163152
vt 0.923323 0.163152
vt 0.923323 0.413152
vt 0.673323 0.413152
vt 0.606113 0.157000
vt 0.856113 0.157000
vt 0.856113 0.407000
vt 0.606113 0.407000
vt 0.712242 0.608272
vt 0.755307 0.608272
vt 0.755307 0.651337
vt 0.712242 0.651337
vt 0.755307 0.694402
vt 0.712242 0.694402
vt 0.755307 0.737467
vt 0.712242 0.737467
vt 0.755307 0.780532
vt 0.712242 0.780532
vt 0.669177 0.694402
vt 0.669177 0.737467
vt 0.798372 0.694402
vt 0.798372 0.737467
vt 0.658915 0.532770
vt 0.747114 0.532770
vt 0.747114 0.620968
vt 0.658915 0.620968
vt 0.747114 0.709167
vt 0.658915 0.709167
vt 0.747114 0.797365
vt 0.658915 0.797365
vt 0.747114 0.885563
vt 0.658915 0.885563
vt 0.570717 0.709167
vt 0.570717 0.797365
vt 0.835312 0.709167
vt 0.835312 0.797365
s 0
usemtl Material.015
f 1/1/1 2/2/1 4/3/1 3/4/1
f 3/4/2 4/3/2 8/5/2 7/6/2
f 7/6/3 8/5/3 6/7/3 5/8/3
f 5/9/4 6/10/4 15/10/4 16/9/4
f 3/11/5 7/6/5 5/8/5 1/12/5
f 8/13/2 4/14/2 10/14/2 11/13/2
f 11/15/6 10/16/6 9/17/6 12/18/6
f 6/19/7 8/20/7 11/20/7 12/19/7
f 4/21/8 2/22/8 9/22/8 10/21/8
f 2/23/9 6/24/9 12/24/9 9/23/9
f 16/8/9 15/7/9 14/25/9 13/26/9
f 2/27/10 1/28/10 13/28/10 14/27/10
f 1/29/5 5/30/5 16/30/5 13/29/5
f 6/31/11 2/32/11 14/32/11 15/31/11
f 17/33/12 18/34/12 20/35/12 19/36/12
f 19/36/9 20/35/9 24/37/9 23/38/9
f 23/38/13 24/37/13 22/39/13 21/40/13
f 21/40/14 22/39/14 18/41/14 17/42/14
f 19/43/5 23/38/5 21/40/5 17/44/5
f 22/45/13 24/46/13 27/46/13 28/45/13
f 27/47/15 26/48/15 25/49/15 28/31/15
f 20/50/12 18/51/12 25/51/12 26/50/12
f 18/52/16 22/45/16 28/45/16 25/52/16
f 24/46/9 20/50/9 26/50/9 27/46/9
f 29/33/12 30/34/12 32/35/12 31/36/12
f 31/36/9 32/35/9 36/37/9 35/38/9
f 35/38/13 36/37/13 34/39/13 33/40/13
f 33/40/14 34/39/14 30/41/14 29/42/14
f 31/43/5 35/38/5 33/40/5 29/44/5
f 34/45/13 36/46/13 39/46/13 40/45/13
f 39/47/15 38/48/15 37/49/15 40/31/15
f 32/50/12 30/51/12 37/51/12 38/50/12
f 30/52/16 34/45/16 40/45/16 37/52/16
f 36/46/9 32/50/9 38/50/9 39/46/9
f 41/53/13 42/54/13 44/55/13 43/56/13
f 43/57/2 44/58/2 48/59/2 47/60/2
f 47/61/12 48/62/12 46/63/12 45/64/12
f 45/65/9 46/66/9 42/67/9 41/68/9
f 43/69/5 47/70/5 45/71/5 41/72/5
f 48/73/15 44/74/15 42/75/15 46/76/15
f 49/77/13 50/78/13 52/79/13 51/80/13
f 51/80/17 52/79/17 56/81/17 55/82/17
f 55/82/12 56/81/12 54/83/12 53/84/12
f 53/84/18 54/83/18 50/85/18 49/86/18
f 51/87/19 55/82/19 53/84/19 49/88/19
f 56/81/20 52/89/20 50/90/20 54/83/20
f 57/91/13 58/92/13 60/93/13 59/94/13
f 59/94/21 60/93/21 64/95/21 63/96/21
f 63/96/12 64/95/12 62/97/12 61/98/12
f 61/98/22 62/97/22 58/99/22 57/100/22
f 59/101/23 63/96/23 61/98/23 57/102/23
f 64/95/24 60/103/24 58/104/24 62/97/24
