# Blender 3.6.2
# www.blender.org
mtllib rightleg.mtl
o Head.005
v 0.077539 0.001182 -0.084440
v 0.077539 0.058443 -0.024580
v 0.077539 0.001182 0.034373
v 0.014941 0.001182 -0.084440
v 0.014941 0.058443 -0.024580
v 0.014941 0.001182 0.034373
v 0.014941 0.058443 0.034373
v 0.077539 0.058443 0.034373
v 0.014941 0.237065 0.034373
v 0.077539 0.237065 0.034373
v 0.014941 0.237065 -0.018466
v 0.077539 0.237065 -0.018466
vn -0.0000 0.7226 -0.6912
vn 1.0000 -0.0000 -0.0000
vn -0.0000 -1.0000 -0.0000
vn -1.0000 -0.0000 -0.0000
vn -0.0000 -0.0000 1.0000
vn -0.0000 1.0000 -0.0000
vn -0.0000 0.0342 -0.9994
vt 0.256882 0.871364
vt 0.377246 0.871364
vt 0.377246 0.991728
vt 0.256882 0.991728
vt 0.256882 0.510272
vt 0.377246 0.510272
vt 0.377246 0.630636
vt 0.256882 0.630636
vt 0.136518 0.751000
vt 0.256882 0.751000
vt 0.136518 0.871364
vt 0.377246 0.751000
vt 0.215280 0.250231
vt 0.215280 0.158722
vt 0.215280 0.341739
vt 0.625000 0.500000
vt 0.875000 0.500000
vt 0.875000 0.750000
vt 0.625000 0.750000
vt 0.215280 0.433247
vt 0.215280 0.067214
s 0
usemtl Material.015
f 4/1/1 5/2/1 2/3/1 1/4/1
f 1/5/2 2/6/2 8/7/2 3/8/2
f 3/9/3 6/10/3 4/1/3 1/11/3
f 6/10/4 7/12/4 5/2/4 4/1/4
f 3/8/5 8/7/5 7/12/5 6/10/5
f 7/13/5 8/14/5 10/14/5 9/13/5
f 5/15/4 7/13/4 9/13/4 11/15/4
f 9/16/6 10/17/6 12/18/6 11/19/6
f 2/20/7 5/15/7 11/15/7 12/20/7
f 8/14/2 2/21/2 12/21/2 10/14/2
