{
	"asset":{
		"generator":"Khronos glTF Blender I/O v4.3.47",
		"version":"2.0"
	},
	"extensionsUsed":[
		"KHR_materials_specular"
	],
	"scene":0,
	"scenes":[
		{
			"name":"Scene",
			"nodes":[
				0
			]
		}
	],
	"nodes":[
		{
			"mesh":0,
			"name":"Zombie"
		}
	],
	"materials":[
		{
			"doubleSided":true,
			"extensions":{
				"KHR_materials_specular":{
					"specularFactor":0
				}
			},
			"name":"Material.015",
			"pbrMetallicRoughness":{
				"baseColorFactor":[
					0.8005127906799316,
					0.195562481880188,
					0.23636721074581146,
					1
				],
				"metallicFactor":0
			}
		},
		{
			"doubleSided":true,
			"name":"Material.001",
			"pbrMetallicRoughness":{
				"baseColorFactor":[
					0.38037192821502686,
					0.8012974262237549,
					0.3412347733974457,
					1
				],
				"metallicFactor":0,
				"roughnessFactor":0.5
			}
		},
		{
			"doubleSided":true,
			"name":"Material.018",
			"pbrMetallicRoughness":{
				"baseColorTexture":{
					"index":0
				},
				"metallicFactor":0,
				"roughnessFactor":0.5
			}
		},
		{
			"doubleSided":true,
			"name":"Material.003",
			"pbrMetallicRoughness":{
				"baseColorFactor":[
					0.07088231295347214,
					0.315966933965683,
					0.8048795461654663,
					1
				],
				"metallicFactor":0,
				"roughnessFactor":0.5
			}
		}
	],
	"meshes":[
		{
			"name":"Head",
			"primitives":[
				{
					"attributes":{
						"POSITION":0,
						"NORMAL":1,
						"TEXCOORD_0":2
					},
					"indices":3,
					"material":0
				},
				{
					"attributes":{
						"POSITION":4,
						"NORMAL":5,
						"TEXCOORD_0":6
					},
					"indices":7,
					"material":1
				},
				{
					"attributes":{
						"POSITION":8,
						"NORMAL":9,
						"TEXCOORD_0":10
					},
					"indices":11,
					"material":2
				},
				{
					"attributes":{
						"POSITION":12,
						"NORMAL":13,
						"TEXCOORD_0":14
					},
					"indices":15,
					"material":3
				}
			]
		}
	],
	"textures":[
		{
			"sampler":0,
			"source":0
		}
	],
	"images":[
		{
			"mimeType":"image/png",
			"name":"blood",
			"uri":"blood.png"
		}
	],
	"accessors":[
		{
			"bufferView":0,
			"componentType":5126,
			"count":28,
			"max":[
				0.07762999832630157,
				0.4774419963359833,
				0.050854962319135666
			],
			"min":[
				-0.08057300001382828,
				0.0011819936335086823,
				-0.08444000035524368
			],
			"type":"VEC3"
		},
		{
			"bufferView":1,
			"componentType":5126,
			"count":28,
			"type":"VEC3"
		},
		{
			"bufferView":2,
			"componentType":5126,
			"count":28,
			"type":"VEC2"
		},
		{
			"bufferView":3,
			"componentType":5123,
			"count":42,
			"type":"SCALAR"
		},
		{
			"bufferView":4,
			"componentType":5126,
			"count":156,
			"max":[
				0.1180419996380806,
				0.5742520093917847,
				0.050854962319135666
			],
			"min":[
				-0.1219249963760376,
				0.0011819936335086823,
				-0.17026202380657196
			],
			"type":"VEC3"
		},
		{
			"bufferView":5,
			"componentType":5126,
			"count":156,
			"type":"VEC3"
		},
		{
			"bufferView":6,
			"componentType":5126,
			"count":156,
			"type":"VEC2"
		},
		{
			"bufferView":7,
			"componentType":5123,
			"count":234,
			"type":"SCALAR"
		},
		{
			"bufferView":8,
			"componentType":5126,
			"count":12,
			"max":[
				0.07762999832630157,
				0.5667300224304199,
				0.04196096211671829
			],
			"min":[
				-0.08057300001382828,
				0.23681899905204773,
				-0.024551043286919594
			],
			"type":"VEC3"
		},
		{
			"bufferView":9,
			"componentType":5126,
			"count":12,
			"type":"VEC3"
		},
		{
			"bufferView":10,
			"componentType":5126,
			"count":12,
			"type":"VEC2"
		},
		{
			"bufferView":11,
			"componentType":5123,
			"count":18,
			"type":"SCALAR"
		},
		{
			"bufferView":12,
			"componentType":5126,
			"count":12,
			"max":[
				0.07762999832630157,
				0.4755289852619171,
				0.041960980743169785
			],
			"min":[
				-0.08057300001382828,
				0.23681899905204773,
				-0.021545035764575005
			],
			"type":"VEC3"
		},
		{
			"bufferView":13,
			"componentType":5126,
			"count":12,
			"type":"VEC3"
		},
		{
			"bufferView":14,
			"componentType":5126,
			"count":12,
			"type":"VEC2"
		},
		{
			"bufferView":15,
			"componentType":5123,
			"count":18,
			"type":"SCALAR"
		}
	],
	"bufferViews":[
		{
			"buffer":0,
			"byteLength":336,
			"byteOffset":0,
			"target":34962
		},
		{
			"buffer":0,
			"byteLength":336,
			"byteOffset":336,
			"target":34962
		},
		{
			"buffer":0,
			"byteLength":224,
			"byteOffset":672,
			"target":34962
		},
		{
			"buffer":0,
			"byteLength":84,
			"byteOffset":896,
			"target":34963
		},
		{
			"buffer":0,
			"byteLength":1872,
			"byteOffset":980,
			"target":34962
		},
		{
			"buffer":0,
			"byteLength":1872,
			"byteOffset":2852,
			"target":34962
		},
		{
			"buffer":0,
			"byteLength":1248,
			"byteOffset":4724,
			"target":34962
		},
		{
			"buffer":0,
			"byteLength":468,
			"byteOffset":5972,
			"target":34963
		},
		{
			"buffer":0,
			"byteLength":144,
			"byteOffset":6440,
			"target":34962
		},
		{
			"buffer":0,
			"byteLength":144,
			"byteOffset":6584,
			"target":34962
		},
		{
			"buffer":0,
			"byteLength":96,
			"byteOffset":6728,
			"target":34962
		},
		{
			"buffer":0,
			"byteLength":36,
			"byteOffset":6824,
			"target":34963
		},
		{
			"buffer":0,
			"byteLength":144,
			"byteOffset":6860,
			"target":34962
		},
		{
			"buffer":0,
			"byteLength":144,
			"byteOffset":7004,
			"target":34962
		},
		{
			"buffer":0,
			"byteLength":96,
			"byteOffset":7148,
			"target":34962
		},
		{
			"buffer":0,
			"byteLength":36,
			"byteOffset":7244,
			"target":34963
		}
	],
	"samplers":[
		{
			"magFilter":9729,
			"minFilter":9987
		}
	],
	"buffers":[
		{
			"byteLength":7280,
			"uri":"zombie.bin"
		}
	]
}
