# Blender 3.6.2
# www.blender.org
mtllib bullet_3.mtl
o Bullet2
v 0.095641 0.509915 -0.244528
v 0.095175 0.510076 -0.227006
v 0.093587 0.509417 -0.244578
v 0.093121 0.509577 -0.227056
v 0.091669 0.508527 -0.244621
v 0.091204 0.508688 -0.227099
v 0.089962 0.507280 -0.244655
v 0.089496 0.507441 -0.227133
v 0.088531 0.505725 -0.244679
v 0.088065 0.505885 -0.227157
v 0.087430 0.503919 -0.244691
v 0.086965 0.504080 -0.227170
v 0.086703 0.501934 -0.244693
v 0.086237 0.502095 -0.227171
v 0.086377 0.499845 -0.244682
v 0.085911 0.500006 -0.227160
v 0.086464 0.497733 -0.244660
v 0.085999 0.497894 -0.227138
v 0.086962 0.495679 -0.244628
v 0.086496 0.495839 -0.227106
v 0.087851 0.493761 -0.244587
v 0.087385 0.493922 -0.227065
v 0.089097 0.492053 -0.244538
v 0.088631 0.492214 -0.227016
v 0.090652 0.490622 -0.244484
v 0.090186 0.490783 -0.226962
v 0.092456 0.489522 -0.244426
v 0.091990 0.489682 -0.226904
v 0.094440 0.488794 -0.244366
v 0.093975 0.488955 -0.226844
v 0.096528 0.488469 -0.244308
v 0.096063 0.488630 -0.226786
v 0.098640 0.488557 -0.244253
v 0.098174 0.488717 -0.226731
v 0.100694 0.489055 -0.244203
v 0.100228 0.489216 -0.226681
v 0.102611 0.489945 -0.244160
v 0.102146 0.490105 -0.226638
v 0.104319 0.491191 -0.244126
v 0.103853 0.491352 -0.226604
v 0.105750 0.492747 -0.244102
v 0.105284 0.492908 -0.226580
v 0.106850 0.494552 -0.244089
v 0.106385 0.494713 -0.226568
v 0.107578 0.496537 -0.244088
v 0.107112 0.496698 -0.226566
v 0.107904 0.498626 -0.244099
v 0.107438 0.498787 -0.226577
v 0.107817 0.500739 -0.244121
v 0.107351 0.500899 -0.226599
v 0.107319 0.502793 -0.244153
v 0.106853 0.502954 -0.226631
v 0.106430 0.504711 -0.244194
v 0.105964 0.504872 -0.226672
v 0.105184 0.506418 -0.244243
v 0.104719 0.506579 -0.226721
v 0.103629 0.507850 -0.244297
v 0.103164 0.508011 -0.226775
v 0.101825 0.508950 -0.244355
v 0.101359 0.509111 -0.226833
v 0.099840 0.509677 -0.244415
v 0.099375 0.509838 -0.226893
v 0.097752 0.510003 -0.244473
v 0.097287 0.510164 -0.226951
v 0.096625 0.505059 -0.256421
v 0.096105 0.508042 -0.252482
v 0.095743 0.509684 -0.247308
v 0.095640 0.509915 -0.244499
v 0.095594 0.509736 -0.241684
v 0.095680 0.508189 -0.236469
v 0.096822 0.501092 -0.258533
v 0.096133 0.503010 -0.257748
v 0.095484 0.504782 -0.256448
v 0.094897 0.506341 -0.254685
v 0.094398 0.507628 -0.252524
v 0.094003 0.508591 -0.250050
v 0.093729 0.509195 -0.247357
v 0.093586 0.509417 -0.244549
v 0.093579 0.509247 -0.241733
v 0.093710 0.508693 -0.239019
v 0.093972 0.507775 -0.236510
v 0.094356 0.506529 -0.234303
v 0.094847 0.505002 -0.232482
v 0.095426 0.503254 -0.231118
v 0.096071 0.501352 -0.230262
v 0.096448 0.500919 -0.258541
v 0.095400 0.502669 -0.257764
v 0.094418 0.504288 -0.256472
v 0.093542 0.505712 -0.254715
v 0.092803 0.506888 -0.252560
v 0.092231 0.507769 -0.250089
v 0.091848 0.508323 -0.247399
v 0.091668 0.508527 -0.244591
v 0.091699 0.508375 -0.241775
v 0.091938 0.507871 -0.239059
v 0.092378 0.507035 -0.236546
v 0.093000 0.505899 -0.234333
v 0.093782 0.504508 -0.232506
v 0.094692 0.502914 -0.231134
v 0.095697 0.501179 -0.230271
v 0.096115 0.500676 -0.258548
v 0.094746 0.502192 -0.257777
v 0.093470 0.503595 -0.256491
v 0.092334 0.504831 -0.254739
v 0.091384 0.505851 -0.252588
v 0.090654 0.506618 -0.250120
v 0.090174 0.507100 -0.247432
v 0.089961 0.507281 -0.244625
v 0.090024 0.507152 -0.241809
v 0.090361 0.506719 -0.239090
v 0.090958 0.505998 -0.236574
v 0.091793 0.505018 -0.234357
v 0.092833 0.503815 -0.232525
v 0.094039 0.502437 -0.231147
v 0.095364 0.500935 -0.230277
v 0.095835 0.500372 -0.258552
v 0.094199 0.501597 -0.257786
v 0.092675 0.502731 -0.256504
v 0.091322 0.503731 -0.254756
v 0.090194 0.504558 -0.252607
v 0.089332 0.505180 -0.250142
v 0.088770 0.505574 -0.247455
v 0.088530 0.505725 -0.244649
v 0.088621 0.505626 -0.241832
v 0.089039 0.505282 -0.239112
v 0.089768 0.504705 -0.236594
v 0.090781 0.503918 -0.234374
v 0.092038 0.502951 -0.232538
v 0.093491 0.501841 -0.231156
v 0.095084 0.500632 -0.230282
v 0.095621 0.500020 -0.258555
v 0.093777 0.500906 -0.257791
v 0.092063 0.501728 -0.256511
v 0.090544 0.502454 -0.254764
v 0.089279 0.503057 -0.252618
v 0.088315 0.503513 -0.250154
v 0.087691 0.503804 -0.247468
v 0.087429 0.503920 -0.244662
v 0.087541 0.503855 -0.241844
v 0.088022 0.503614 -0.239124
v 0.088853 0.503204 -0.236604
v 0.090003 0.502641 -0.234383
v 0.091426 0.501948 -0.232545
v 0.093070 0.501151 -0.231161
v 0.094870 0.500280 -0.230284
v 0.097522 0.499104 -0.258773
v 0.095479 0.499633 -0.258555
v 0.093499 0.500146 -0.257791
v 0.091659 0.500625 -0.256512
v 0.090030 0.501051 -0.254765
v 0.088674 0.501406 -0.252619
v 0.087643 0.501678 -0.250155
v 0.086977 0.501857 -0.247469
v 0.086702 0.501934 -0.244663
v 0.086828 0.501908 -0.241845
v 0.087350 0.501780 -0.239125
v 0.088248 0.501553 -0.236605
v 0.089488 0.501238 -0.234384
v 0.091022 0.500845 -0.232545
v 0.092792 0.500391 -0.231161
v 0.094728 0.499892 -0.230285
v 0.095415 0.499225 -0.258553
v 0.093374 0.499347 -0.257787
v 0.091478 0.499465 -0.256506
v 0.089799 0.499574 -0.254758
v 0.088403 0.499669 -0.252610
v 0.087342 0.499749 -0.250145
v 0.086657 0.499808 -0.247458
v 0.086376 0.499846 -0.244652
v 0.086508 0.499860 -0.241835
v 0.087049 0.499850 -0.239115
v 0.087977 0.499816 -0.236596
v 0.089258 0.499761 -0.234376
v 0.090841 0.499685 -0.232540
v 0.092667 0.499592 -0.231157
v 0.094664 0.499485 -0.230283
v 0.095432 0.498813 -0.258549
v 0.093408 0.498539 -0.257779
v 0.091527 0.498291 -0.256494
v 0.089861 0.498080 -0.254743
v 0.088475 0.497913 -0.252592
v 0.087423 0.497797 -0.250125
v 0.086743 0.497736 -0.247437
v 0.086463 0.497733 -0.244631
v 0.086594 0.497788 -0.241814
v 0.087129 0.497898 -0.239095
v 0.088050 0.498060 -0.236578
v 0.089320 0.498267 -0.234361
v 0.090890 0.498511 -0.232528
v 0.092700 0.498783 -0.231149
v 0.094681 0.499073 -0.230278
v 0.095529 0.498412 -0.258542
v 0.093598 0.497753 -0.257767
v 0.091803 0.497150 -0.256476
v 0.090213 0.496627 -0.254720
v 0.088889 0.496205 -0.252565
v 0.087882 0.495899 -0.250096
v 0.087231 0.495721 -0.247406
v 0.086961 0.495679 -0.244599
v 0.087082 0.495773 -0.241782
v 0.087589 0.496000 -0.239065
v 0.088464 0.496352 -0.236552
v 0.089671 0.496814 -0.234338
v 0.091166 0.497370 -0.232510
v 0.092891 0.497997 -0.231137
v 0.094778 0.498672 -0.230272
v 0.095703 0.498038 -0.258534
v 0.093938 0.497019 -0.257751
v 0.092297 0.496084 -0.256453
v 0.090842 0.495271 -0.254691
v 0.089628 0.494610 -0.252531
v 0.088704 0.494127 -0.250058
v 0.088103 0.493840 -0.247365
v 0.087850 0.493761 -0.244557
v 0.087954 0.493892 -0.241742
v 0.088411 0.494228 -0.239027
v 0.089203 0.494757 -0.236517
v 0.090300 0.495458 -0.234309
v 0.091660 0.496304 -0.232487
v 0.093231 0.497263 -0.231121
v 0.094952 0.498298 -0.230264
v 0.095946 0.497705 -0.258525
v 0.094415 0.496365 -0.257732
v 0.092989 0.495136 -0.256426
v 0.091723 0.494064 -0.254656
v 0.090664 0.493191 -0.252491
v 0.089855 0.492550 -0.250013
v 0.089325 0.492166 -0.247317
v 0.089096 0.492054 -0.244509
v 0.089176 0.492217 -0.241694
v 0.089562 0.492651 -0.238982
v 0.090239 0.493338 -0.236477
v 0.091181 0.494251 -0.234274
v 0.092352 0.495356 -0.232460
v 0.093708 0.496610 -0.231102
v 0.095195 0.497965 -0.230255
v 0.096249 0.497426 -0.258514
v 0.095010 0.495817 -0.257711
v 0.093853 0.494340 -0.256396
v 0.092822 0.493052 -0.254618
v 0.091957 0.492000 -0.252445
v 0.091291 0.491227 -0.249962
v 0.090850 0.490762 -0.247264
v 0.090651 0.490622 -0.244454
v 0.090701 0.490813 -0.241641
v 0.090998 0.491329 -0.238932
v 0.091532 0.492147 -0.236432
v 0.092281 0.493239 -0.234236
v 0.093216 0.494560 -0.232430
v 0.094303 0.496062 -0.231082
v 0.095498 0.497685 -0.230244
v 0.096601 0.497211 -0.258503
v 0.095701 0.495396 -0.257689
v 0.094855 0.493729 -0.256364
v 0.094098 0.492274 -0.254577
v 0.093457 0.491085 -0.252397
v 0.092958 0.490211 -0.249909
v 0.092620 0.489683 -0.247207
v 0.092455 0.489522 -0.244396
v 0.092470 0.489734 -0.241584
v 0.092665 0.490312 -0.238878
v 0.093032 0.491232 -0.236383
v 0.093556 0.492461 -0.234195
v 0.094219 0.493949 -0.232397
v 0.094993 0.495641 -0.231059
v 0.095850 0.497471 -0.230233
v 0.096988 0.497069 -0.258491
v 0.096460 0.495118 -0.257667
v 0.095958 0.493325 -0.256331
v 0.095501 0.491759 -0.254535
v 0.095107 0.490481 -0.252348
v 0.094792 0.489539 -0.249854
v 0.094566 0.488970 -0.247149
v 0.094439 0.488795 -0.244337
v 0.094417 0.489021 -0.241526
v 0.094498 0.489640 -0.238823
v 0.094682 0.490628 -0.236334
v 0.094960 0.491946 -0.234153
v 0.095321 0.493545 -0.232364
v 0.095752 0.495363 -0.231037
v 0.096237 0.497329 -0.230221
v 0.097396 0.497006 -0.258480
v 0.097259 0.494993 -0.257644
v 0.097118 0.493144 -0.256298
v 0.096978 0.491529 -0.254493
v 0.096843 0.490210 -0.252299
v 0.096721 0.489238 -0.249800
v 0.096614 0.488650 -0.247091
v 0.096528 0.488469 -0.244278
v 0.096465 0.488702 -0.241468
v 0.096428 0.489339 -0.238769
v 0.096418 0.490357 -0.236285
v 0.096436 0.491716 -0.234112
v 0.096481 0.493364 -0.232332
v 0.096552 0.495238 -0.231014
v 0.096645 0.497265 -0.230210
v 0.097808 0.497023 -0.258469
v 0.098067 0.495027 -0.257623
v 0.098291 0.493193 -0.256267
v 0.098471 0.491591 -0.254454
v 0.098599 0.490283 -0.252253
v 0.098672 0.489319 -0.249749
v 0.098685 0.488736 -0.247037
v 0.098639 0.488557 -0.244223
v 0.098536 0.488788 -0.241414
v 0.098379 0.489420 -0.238718
v 0.098174 0.490430 -0.236239
v 0.097929 0.491778 -0.234072
v 0.097654 0.493413 -0.232301
v 0.097360 0.495272 -0.230993
v 0.097057 0.497282 -0.230199
v 0.098208 0.497120 -0.258459
v 0.098853 0.495218 -0.257604
v 0.099432 0.493470 -0.256240
v 0.099923 0.491944 -0.254419
v 0.100307 0.490698 -0.252211
v 0.100569 0.489780 -0.249702
v 0.100700 0.489225 -0.246988
v 0.100693 0.489055 -0.244173
v 0.100550 0.489277 -0.241365
v 0.100276 0.489881 -0.238672
v 0.099882 0.490845 -0.236198
v 0.099382 0.492131 -0.234037
v 0.098795 0.493690 -0.232273
v 0.098146 0.495462 -0.230974
v 0.097457 0.497380 -0.230189
v 0.098582 0.497294 -0.258451
v 0.099587 0.495558 -0.257588
v 0.100498 0.493964 -0.256216
v 0.101279 0.492573 -0.254389
v 0.101901 0.491437 -0.252176
v 0.102341 0.490602 -0.249663
v 0.102580 0.490098 -0.246946
v 0.102611 0.489945 -0.244130
v 0.102431 0.490149 -0.241323
v 0.102048 0.490703 -0.238632
v 0.101476 0.491584 -0.236162
v 0.100737 0.492760 -0.234007
v 0.099861 0.494184 -0.232249
v 0.098879 0.495803 -0.230958
v 0.097831 0.497553 -0.230181
v 0.098916 0.497537 -0.258444
v 0.100240 0.496035 -0.257575
v 0.101446 0.494657 -0.256197
v 0.102486 0.493454 -0.254365
v 0.103321 0.492474 -0.252148
v 0.103918 0.491753 -0.249632
v 0.104255 0.491320 -0.246913
v 0.104318 0.491192 -0.244096
v 0.104105 0.491372 -0.241290
v 0.103625 0.491855 -0.238601
v 0.102895 0.492621 -0.236134
v 0.101945 0.493641 -0.233983
v 0.100809 0.494877 -0.232231
v 0.099533 0.496280 -0.230945
v 0.098164 0.497796 -0.230174
v 0.099195 0.497840 -0.258440
v 0.100788 0.496631 -0.257565
v 0.102241 0.495521 -0.256184
v 0.103498 0.494554 -0.254348
v 0.104511 0.493767 -0.252128
v 0.105240 0.493191 -0.249610
v 0.105658 0.492846 -0.246890
v 0.105749 0.492747 -0.244072
v 0.105509 0.492898 -0.241266
v 0.104947 0.493292 -0.238579
v 0.104085 0.493914 -0.236114
v 0.102957 0.494741 -0.233966
v 0.101604 0.495741 -0.232217
v 0.100081 0.496875 -0.230935
v 0.098444 0.498100 -0.230169
v 0.096757 0.499368 -0.229949
v 0.099409 0.498193 -0.258437
v 0.101209 0.497322 -0.257561
v 0.102853 0.496524 -0.256177
v 0.104276 0.495831 -0.254339
v 0.105426 0.495268 -0.252117
v 0.106257 0.494858 -0.249598
v 0.106738 0.494617 -0.246877
v 0.106850 0.494553 -0.244060
v 0.106588 0.494668 -0.241254
v 0.105964 0.494960 -0.238567
v 0.105000 0.495415 -0.236104
v 0.103735 0.496018 -0.233957
v 0.102216 0.496744 -0.232210
v 0.100502 0.497566 -0.230931
v 0.098658 0.498452 -0.230167
v 0.099551 0.498580 -0.258437
v 0.101488 0.498081 -0.257560
v 0.103257 0.497627 -0.256176
v 0.104791 0.497234 -0.254338
v 0.106031 0.496919 -0.252117
v 0.106929 0.496692 -0.249597
v 0.107451 0.496564 -0.246876
v 0.107577 0.496538 -0.244059
v 0.107302 0.496615 -0.241253
v 0.106636 0.496794 -0.238566
v 0.105605 0.497066 -0.236103
v 0.104249 0.497422 -0.233956
v 0.102620 0.497847 -0.232210
v 0.100780 0.498326 -0.230930
v 0.098800 0.498839 -0.230167
v 0.099615 0.498987 -0.258439
v 0.101612 0.498881 -0.257564
v 0.103438 0.498787 -0.256182
v 0.105021 0.498712 -0.254345
v 0.106302 0.498656 -0.252125
v 0.107230 0.498622 -0.249607
v 0.107771 0.498612 -0.246886
v 0.107903 0.498627 -0.244069
v 0.107622 0.498664 -0.241263
v 0.106937 0.498724 -0.238576
v 0.105876 0.498803 -0.236111
v 0.104480 0.498899 -0.233964
v 0.102801 0.499007 -0.232216
v 0.100905 0.499125 -0.230934
v 0.098864 0.499247 -0.230169
v 0.099598 0.499399 -0.258443
v 0.101579 0.499689 -0.257573
v 0.103389 0.499961 -0.256194
v 0.104960 0.500205 -0.254361
v 0.106229 0.500412 -0.252143
v 0.107150 0.500574 -0.249627
v 0.107685 0.500684 -0.246908
v 0.107816 0.500739 -0.244091
v 0.107536 0.500736 -0.241284
v 0.106857 0.500675 -0.238596
v 0.105804 0.500559 -0.236130
v 0.104418 0.500392 -0.233979
v 0.102753 0.500181 -0.232228
v 0.100871 0.499933 -0.230943
v 0.098847 0.499659 -0.230173
v 0.099501 0.499800 -0.258450
v 0.101388 0.500475 -0.257585
v 0.103113 0.501102 -0.256212
v 0.104608 0.501658 -0.254384
v 0.105815 0.502120 -0.252170
v 0.106690 0.502472 -0.249656
v 0.107197 0.502699 -0.246939
v 0.107318 0.502793 -0.244123
v 0.107048 0.502751 -0.241316
v 0.106397 0.502573 -0.238626
v 0.105390 0.502267 -0.236156
v 0.104066 0.501845 -0.234002
v 0.102476 0.501322 -0.232246
v 0.100681 0.500720 -0.230955
v 0.098750 0.500060 -0.230179
v 0.099327 0.500174 -0.258458
v 0.101048 0.501209 -0.257601
v 0.102619 0.502168 -0.256235
v 0.103979 0.503014 -0.254413
v 0.105076 0.503715 -0.252204
v 0.105869 0.504244 -0.249694
v 0.106325 0.504580 -0.246980
v 0.106429 0.504711 -0.244164
v 0.106176 0.504632 -0.241356
v 0.105576 0.504345 -0.238664
v 0.104651 0.503862 -0.236190
v 0.103438 0.503201 -0.234031
v 0.101982 0.502388 -0.232268
v 0.100341 0.501454 -0.230971
v 0.098576 0.500434 -0.230187
v 0.099084 0.500508 -0.258467
v 0.100572 0.501862 -0.257619
v 0.101927 0.503116 -0.256262
v 0.103098 0.504221 -0.254447
v 0.104040 0.505135 -0.252245
v 0.104718 0.505821 -0.249740
v 0.105103 0.506255 -0.247028
v 0.105183 0.506419 -0.244213
v 0.104954 0.506306 -0.241404
v 0.104424 0.505922 -0.238709
v 0.103615 0.505282 -0.236231
v 0.102557 0.504408 -0.234065
v 0.101290 0.503336 -0.232296
v 0.099864 0.502107 -0.230989
v 0.098333 0.500767 -0.230197
v 0.098781 0.500787 -0.258478
v 0.099976 0.502410 -0.257640
v 0.101063 0.503912 -0.256292
v 0.101999 0.505233 -0.254486
v 0.102748 0.506325 -0.252290
v 0.103281 0.507144 -0.249790
v 0.103578 0.507659 -0.247081
v 0.103628 0.507850 -0.244267
v 0.103429 0.507710 -0.241458
v 0.102988 0.507245 -0.238759
v 0.102322 0.506472 -0.236276
v 0.101457 0.505421 -0.234104
v 0.100426 0.504132 -0.232326
v 0.099269 0.502655 -0.231010
v 0.098030 0.501046 -0.230207
v 0.098429 0.501001 -0.258489
v 0.099286 0.502831 -0.257662
v 0.100060 0.504523 -0.256324
v 0.100723 0.506012 -0.254527
v 0.101247 0.507240 -0.252338
v 0.101614 0.508160 -0.249843
v 0.101809 0.508738 -0.247138
v 0.101824 0.508950 -0.244326
v 0.101659 0.508790 -0.241515
v 0.101321 0.508262 -0.238813
v 0.100822 0.507387 -0.236325
v 0.100181 0.506199 -0.234145
v 0.099424 0.504743 -0.232358
v 0.098578 0.503076 -0.231032
v 0.097678 0.501261 -0.230219
v 0.098042 0.501143 -0.258501
v 0.098527 0.503110 -0.257685
v 0.098958 0.504927 -0.256357
v 0.099320 0.506526 -0.254569
v 0.099597 0.507844 -0.252388
v 0.099781 0.508832 -0.249898
v 0.099862 0.509451 -0.247196
v 0.099840 0.509677 -0.244385
v 0.099713 0.509503 -0.241573
v 0.099488 0.508933 -0.238868
v 0.099172 0.507991 -0.236374
v 0.098778 0.506713 -0.234187
v 0.098321 0.505147 -0.232391
v 0.097819 0.503354 -0.231055
v 0.097291 0.501403 -0.230230
v 0.097635 0.501207 -0.258512
v 0.097728 0.503234 -0.257707
v 0.097798 0.505108 -0.256390
v 0.097843 0.506756 -0.254610
v 0.097861 0.508115 -0.252436
v 0.097851 0.509133 -0.249952
v 0.097814 0.509771 -0.247253
v 0.097752 0.510003 -0.244443
v 0.097665 0.509822 -0.241630
v 0.097558 0.509234 -0.238922
v 0.097436 0.508262 -0.236423
v 0.097301 0.506943 -0.234228
v 0.097161 0.505328 -0.232424
v 0.097020 0.503479 -0.231077
v 0.096883 0.501466 -0.230242
v 0.097223 0.501190 -0.258523
v 0.096919 0.503201 -0.257729
v 0.096350 0.506694 -0.254649
v 0.095901 0.509052 -0.250003
v 0.095607 0.509153 -0.238973
v 0.095808 0.506881 -0.234267
v 0.095988 0.505279 -0.232454
v 0.096212 0.503445 -0.231099
v 0.096471 0.501449 -0.230253
vn -0.2354 0.9718 -0.0152
vn -0.4204 0.9071 -0.0195
vn -0.5893 0.8076 -0.0231
vn -0.7355 0.6770 -0.0258
vn -0.8534 0.5205 -0.0275
vn -0.9386 0.3439 -0.0281
vn -0.9877 0.1541 -0.0277
vn -0.9988 -0.0416 -0.0262
vn -0.9715 -0.2357 -0.0237
vn -0.9069 -0.4208 -0.0202
vn -0.8075 -0.5897 -0.0160
vn -0.6770 -0.7359 -0.0112
vn -0.5205 -0.8538 -0.0060
vn -0.3440 -0.9390 -0.0005
vn -0.1543 -0.9880 0.0050
vn 0.0414 -0.9991 0.0103
vn 0.2354 -0.9718 0.0152
vn 0.4204 -0.9071 0.0195
vn 0.5893 -0.8076 0.0231
vn 0.7355 -0.6770 0.0258
vn 0.8534 -0.5205 0.0275
vn 0.9386 -0.3439 0.0281
vn 0.9877 -0.1541 0.0277
vn 0.9988 0.0416 0.0262
vn 0.9715 0.2357 0.0237
vn 0.9069 0.4208 0.0202
vn 0.8075 0.5897 0.0160
vn 0.6770 0.7359 0.0112
vn 0.5205 0.8538 0.0060
vn 0.3440 0.9390 0.0005
vn -0.0266 0.0092 0.9996
vn 0.1543 0.9880 -0.0050
vn -0.0414 0.9991 -0.0103
vn 0.0266 -0.0092 -0.9996
vn 0.2355 -0.9499 -0.2054
vn 0.1157 -0.5593 0.8208
vn 0.2286 -0.9063 -0.3555
vn 0.1565 -0.7136 0.6828
vn 0.2147 -0.8340 -0.5082
vn 0.1870 -0.8245 0.5341
vn 0.1922 -0.7259 -0.6604
vn 0.2089 -0.8995 0.3837
vn 0.1589 -0.5742 -0.8031
vn 0.2238 -0.9459 0.2350
vn 0.1134 -0.3752 -0.9200
vn 0.2328 -0.9685 0.0882
vn 0.0045 -0.1184 0.9930
vn 0.0572 -0.1366 -0.9890
vn 0.2367 -0.9698 -0.0580
vn 0.0642 -0.3582 0.9314
vn 0.0288 -0.1099 0.9935
vn 0.0815 -0.1281 -0.9884
vn 0.4212 -0.9054 -0.0536
vn 0.1341 -0.3338 0.9331
vn 0.4160 -0.8869 -0.2012
vn 0.2236 -0.5216 0.8233
vn 0.4005 -0.8462 -0.3514
vn 0.2936 -0.6657 0.6860
vn 0.3726 -0.7789 -0.5045
vn 0.3449 -0.7693 0.5378
vn 0.3292 -0.6780 -0.6572
vn 0.3808 -0.8395 0.3877
vn 0.2668 -0.5365 -0.8006
vn 0.4043 -0.8828 0.2392
vn 0.1833 -0.3508 -0.9183
vn 0.4174 -0.9040 0.0925
vn 0.4890 -0.6844 0.5408
vn 0.4543 -0.6043 -0.6545
vn 0.5377 -0.7470 0.3910
vn 0.3653 -0.4785 -0.7985
vn 0.5690 -0.7857 0.2427
vn 0.2470 -0.3133 -0.9170
vn 0.5858 -0.8048 0.0961
vn 0.0510 -0.0968 0.9940
vn 0.1036 -0.1150 -0.9879
vn 0.5896 -0.8061 -0.0501
vn 0.1978 -0.2963 0.9344
vn 0.5807 -0.7898 -0.1977
vn 0.3221 -0.4636 0.8254
vn 0.5574 -0.7538 -0.3481
vn 0.4186 -0.5920 0.6887
vn 0.5167 -0.6939 -0.5014
vn 0.7355 -0.6759 -0.0474
vn 0.2530 -0.2470 0.9354
vn 0.7233 -0.6624 -0.1951
vn 0.4074 -0.3874 0.8270
vn 0.6932 -0.6325 -0.3456
vn 0.5269 -0.4953 0.6907
vn 0.6415 -0.5825 -0.4992
vn 0.6138 -0.5730 0.5431
vn 0.5626 -0.5076 -0.6525
vn 0.6736 -0.6257 0.3935
vn 0.4505 -0.4023 -0.7970
vn 0.7116 -0.6584 0.2453
vn 0.3021 -0.2640 -0.9160
vn 0.7316 -0.6746 0.0988
vn 0.0701 -0.0797 0.9943
vn 0.1228 -0.0979 -0.9876
vn 0.6500 -0.3917 -0.6513
vn 0.7832 -0.4802 0.3951
vn 0.5193 -0.3110 -0.7960
vn 0.8266 -0.5057 0.2470
vn 0.3467 -0.2049 -0.9153
vn 0.8492 -0.5184 0.1005
vn 0.0856 -0.0592 0.9946
vn 0.1383 -0.0774 -0.9874
vn 0.8531 -0.5197 -0.0457
vn 0.2975 -0.1879 0.9361
vn 0.8383 -0.5097 -0.1934
vn 0.4762 -0.2961 0.8280
vn 0.8028 -0.4870 -0.3441
vn 0.6143 -0.3793 0.6919
vn 0.7421 -0.4489 -0.4977
vn 0.7144 -0.4394 0.5446
vn 0.9214 -0.3375 -0.1928
vn 0.5259 -0.1931 0.8284
vn 0.8819 -0.3229 -0.3435
vn 0.6773 -0.2485 0.6924
vn 0.8148 -0.2982 -0.4972
vn 0.7871 -0.2887 0.5451
vn 0.7130 -0.2609 -0.6508
vn 0.8623 -0.3161 0.3957
vn 0.5690 -0.2080 -0.7956
vn 0.9097 -0.3334 0.2476
vn 0.3788 -0.1383 -0.9151
vn 0.9341 -0.3423 0.1011
vn 0.0968 -0.0360 0.9947
vn 0.1494 -0.0542 -0.9873
vn 0.9380 -0.3436 -0.0451
vn 0.3296 -0.1213 0.9363
vn 0.5976 -0.0973 -0.7958
vn 0.9576 -0.1483 0.2472
vn 0.3973 -0.0667 -0.9153
vn 0.9831 -0.1530 0.1007
vn 0.1032 -0.0111 0.9946
vn 0.1559 -0.0293 -0.9873
vn 0.9870 -0.1544 -0.0455
vn 0.3481 -0.0497 0.9361
vn 0.9693 -0.1523 -0.1932
vn 0.5545 -0.0824 0.8281
vn 0.9275 -0.1466 -0.3439
vn 0.7137 -0.1080 0.6921
vn 0.8567 -0.1363 -0.4975
vn 0.8290 -0.1267 0.5447
vn 0.7494 -0.1203 -0.6511
vn 0.9079 -0.1398 0.3953
vn 0.5610 0.0317 0.8272
vn 0.9378 0.0353 -0.3453
vn 0.7219 0.0370 0.6910
vn 0.8662 0.0307 -0.4988
vn 0.8385 0.0403 0.5435
vn 0.7576 0.0247 -0.6522
vn 0.9182 0.0421 0.3939
vn 0.6041 0.0168 -0.7967
vn 0.9684 0.0426 0.2457
vn 0.4015 0.0072 -0.9158
vn 0.9942 0.0422 0.0992
vn 0.1047 0.0146 0.9944
vn 0.1573 -0.0036 -0.9875
vn 0.9981 0.0408 -0.0470
vn 0.3523 0.0242 0.9356
vn 0.9801 0.0386 -0.1947
vn 0.9418 0.2320 0.2433
vn 0.3912 0.0805 -0.9168
vn 0.9670 0.2358 0.0967
vn 0.1011 0.0400 0.9941
vn 0.1538 0.0218 -0.9879
vn 0.9709 0.2344 -0.0495
vn 0.3420 0.0975 0.9346
vn 0.9535 0.2279 -0.1971
vn 0.5451 0.1449 0.8258
vn 0.9125 0.2156 -0.3476
vn 0.7017 0.1808 0.6891
vn 0.8429 0.1964 -0.5010
vn 0.8152 0.2059 0.5413
vn 0.7374 0.1684 -0.6541
vn 0.8929 0.2224 0.3915
vn 0.5882 0.1300 -0.7982
vn 0.8525 0.3876 -0.3508
vn 0.6539 0.3178 0.6866
vn 0.7878 0.3543 -0.5039
vn 0.7601 0.3639 0.5384
vn 0.6896 0.3055 -0.6566
vn 0.8329 0.3944 0.3884
vn 0.5505 0.2380 -0.8002
vn 0.8788 0.4125 0.2399
vn 0.3668 0.1503 -0.9181
vn 0.9026 0.4203 0.0933
vn 0.0926 0.0643 0.9936
vn 0.1453 0.0461 -0.9883
vn 0.9065 0.4190 -0.0529
vn 0.3176 0.1673 0.9333
vn 0.8905 0.4084 -0.2004
vn 0.5074 0.2529 0.8238
vn 0.3293 0.2140 -0.9196
vn 0.8034 0.5888 0.0891
vn 0.0796 0.0864 0.9931
vn 0.1322 0.0682 -0.9889
vn 0.8073 0.5874 -0.0571
vn 0.2801 0.2310 0.9318
vn 0.7935 0.5732 -0.2045
vn 0.4494 0.3514 0.8213
vn 0.7601 0.5445 -0.3547
vn 0.5802 0.4429 0.6835
vn 0.7029 0.4984 -0.5074
vn 0.6752 0.5080 0.5348
vn 0.6159 0.4306 -0.6597
vn 0.7405 0.5513 0.3845
vn 0.4925 0.3365 -0.8026
vn 0.7818 0.5772 0.2358
vn 0.4836 0.5512 0.6799
vn 0.5916 0.6232 -0.5115
vn 0.5639 0.6328 0.5307
vn 0.5193 0.5389 -0.6633
vn 0.6192 0.6871 0.3800
vn 0.4164 0.4217 -0.8054
vn 0.6545 0.7198 0.2311
vn 0.2801 0.2692 -0.9215
vn 0.6733 0.7346 0.0843
vn 0.0625 0.1056 0.9924
vn 0.1151 0.0874 -0.9895
vn 0.6771 0.7332 -0.0619
vn 0.2309 0.2862 0.9299
vn 0.6662 0.7158 -0.2092
vn 0.3733 0.4367 0.8185
vn 0.6389 0.6804 -0.3591
vn 0.5172 0.8522 0.0791
vn 0.0419 0.1211 0.9918
vn 0.0946 0.1029 -0.9902
vn 0.5211 0.8509 -0.0671
vn 0.1718 0.3307 0.9280
vn 0.5136 0.8308 -0.2143
vn 0.2820 0.5054 0.8155
vn 0.4935 0.7899 -0.3640
vn 0.3677 0.6386 0.6760
vn 0.4580 0.7238 -0.5160
vn 0.4303 0.7334 0.5262
vn 0.4034 0.6263 -0.6672
vn 0.4738 0.7967 0.3751
vn 0.3252 0.4905 -0.8085
vn 0.5019 0.8349 0.2260
vn 0.2210 0.3137 -0.9234
vn 0.3074 0.7965 -0.5207
vn 0.2797 0.8060 0.5216
vn 0.2726 0.6893 -0.6712
vn 0.3098 0.8758 0.3700
vn 0.2222 0.5402 -0.8117
vn 0.3297 0.9179 0.2207
vn 0.1544 0.3458 -0.9255
vn 0.3412 0.9371 0.0736
vn 0.0188 0.1323 0.9910
vn 0.0715 0.1141 -0.9909
vn 0.3450 0.9358 -0.0726
vn 0.1052 0.3628 0.9259
vn 0.3414 0.9139 -0.2197
vn 0.1791 0.5551 0.8123
vn 0.3295 0.8690 -0.3691
vn 0.2370 0.7016 0.6720
vn 0.0466 0.1205 -0.9916
vn 0.1558 0.9847 -0.0781
vn 0.0336 0.3813 0.9238
vn 0.1564 0.9617 -0.2250
vn 0.0684 0.5837 0.8091
vn 0.1532 0.9146 -0.3742
vn 0.0964 0.7380 0.6679
vn 0.1455 0.8383 -0.5254
vn 0.1178 0.8479 0.5169
vn 0.1321 0.7256 -0.6753
vn 0.1335 0.9214 0.3649
vn 0.1116 0.5688 -0.8149
vn 0.1447 0.9658 0.2153
vn 0.0828 0.3643 -0.9276
vn 0.1519 0.9860 0.0681
vn -0.0061 0.1387 0.9903
vn -0.0128 0.7338 -0.6792
vn -0.0482 0.9317 0.3600
vn -0.0025 0.5753 -0.8180
vn -0.0462 0.9766 0.2102
vn 0.0090 0.3685 -0.9296
vn -0.0432 0.9971 0.0628
vn -0.0318 0.1401 0.9896
vn 0.0209 0.1219 -0.9923
vn -0.0393 0.9957 -0.0833
vn -0.0402 0.3855 0.9218
vn -0.0345 0.9725 -0.2302
vn -0.0457 0.5902 0.8060
vn -0.0286 0.9249 -0.3791
vn -0.0485 0.7462 0.6640
vn -0.0214 0.8478 -0.5299
vn -0.0491 0.8574 0.5124
vn -0.1134 0.3752 0.9200
vn -0.2238 0.9459 -0.2350
vn -0.1589 0.5742 0.8031
vn -0.2089 0.8995 -0.3837
vn -0.1922 0.7259 0.6604
vn -0.1870 0.8245 -0.5341
vn -0.2147 0.8340 0.5082
vn -0.1565 0.7136 -0.6828
vn -0.2286 0.9063 0.3555
vn -0.1157 0.5593 -0.8208
vn -0.2355 0.9499 0.2054
vn -0.0642 0.3582 -0.9314
vn -0.2367 0.9698 0.0580
vn -0.0572 0.1366 0.9890
vn -0.0045 0.1184 -0.9930
vn -0.2328 0.9685 -0.0882
vn -0.4005 0.8462 0.3514
vn -0.2236 0.5216 -0.8233
vn -0.4160 0.8869 0.2012
vn -0.1341 0.3338 -0.9331
vn -0.4212 0.9054 0.0536
vn -0.0815 0.1281 0.9884
vn -0.0288 0.1099 -0.9935
vn -0.4174 0.9040 -0.0925
vn -0.1833 0.3508 0.9183
vn -0.4043 0.8828 -0.2392
vn -0.2668 0.5365 0.8006
vn -0.3808 0.8395 -0.3877
vn -0.3292 0.6780 0.6572
vn -0.3449 0.7693 -0.5378
vn -0.3726 0.7789 0.5045
vn -0.2936 0.6657 -0.6860
vn -0.5690 0.7857 -0.2427
vn -0.3653 0.4785 0.7985
vn -0.5377 0.7470 -0.3910
vn -0.4543 0.6043 0.6545
vn -0.4890 0.6844 -0.5408
vn -0.5167 0.6939 0.5014
vn -0.4186 0.5920 -0.6887
vn -0.5574 0.7538 0.3481
vn -0.3221 0.4636 -0.8254
vn -0.5807 0.7898 0.1977
vn -0.1978 0.2963 -0.9344
vn -0.5896 0.8061 0.0501
vn -0.1036 0.1150 0.9879
vn -0.0510 0.0968 -0.9940
vn -0.5858 0.8048 -0.0961
vn -0.2470 0.3133 0.9170
vn -0.4074 0.3874 -0.8270
vn -0.7233 0.6624 0.1951
vn -0.2530 0.2470 -0.9354
vn -0.7355 0.6759 0.0474
vn -0.1228 0.0979 0.9876
vn -0.0701 0.0797 -0.9943
vn -0.7316 0.6746 -0.0988
vn -0.3021 0.2640 0.9160
vn -0.7116 0.6584 -0.2453
vn -0.4505 0.4023 0.7970
vn -0.6736 0.6257 -0.3935
vn -0.5626 0.5076 0.6525
vn -0.6138 0.5730 -0.5431
vn -0.6415 0.5825 0.4992
vn -0.5269 0.4953 -0.6907
vn -0.6932 0.6325 0.3456
vn -0.5193 0.3110 0.7960
vn -0.7832 0.4802 -0.3951
vn -0.6500 0.3917 0.6513
vn -0.7144 0.4394 -0.5446
vn -0.7421 0.4489 0.4977
vn -0.6143 0.3793 -0.6919
vn -0.8028 0.4870 0.3441
vn -0.4762 0.2961 -0.8280
vn -0.8383 0.5097 0.1934
vn -0.2975 0.1879 -0.9361
vn -0.8531 0.5197 0.0457
vn -0.1383 0.0774 0.9874
vn -0.0856 0.0592 -0.9946
vn -0.8492 0.5184 -0.1005
vn -0.3467 0.2049 0.9153
vn -0.8266 0.5057 -0.2470
vn -0.9214 0.3375 0.1928
vn -0.3296 0.1213 -0.9363
vn -0.9380 0.3436 0.0451
vn -0.1494 0.0542 0.9873
vn -0.0968 0.0360 -0.9947
vn -0.9341 0.3423 -0.1011
vn -0.3788 0.1383 0.9151
vn -0.9097 0.3334 -0.2476
vn -0.5690 0.2080 0.7956
vn -0.8623 0.3161 -0.3957
vn -0.7130 0.2609 0.6508
vn -0.7871 0.2887 -0.5451
vn -0.8148 0.2982 0.4972
vn -0.6773 0.2485 -0.6924
vn -0.8819 0.3229 0.3435
vn -0.5259 0.1931 -0.8284
vn -0.9079 0.1398 -0.3953
vn -0.7494 0.1203 0.6511
vn -0.8290 0.1267 -0.5447
vn -0.8567 0.1363 0.4975
vn -0.7137 0.1080 -0.6921
vn -0.9275 0.1466 0.3439
vn -0.5545 0.0824 -0.8281
vn -0.9693 0.1523 0.1932
vn -0.3481 0.0497 -0.9361
vn -0.9870 0.1544 0.0455
vn -0.1559 0.0293 0.9873
vn -0.1032 0.0111 -0.9946
vn -0.9831 0.1530 -0.1007
vn -0.3973 0.0667 0.9153
vn -0.9576 0.1483 -0.2472
vn -0.5976 0.0973 0.7958
vn -0.3523 -0.0242 -0.9356
vn -0.9981 -0.0408 0.0470
vn -0.1573 0.0036 0.9875
vn -0.1047 -0.0146 -0.9944
vn -0.9942 -0.0422 -0.0992
vn -0.4015 -0.0072 0.9158
vn -0.9684 -0.0426 -0.2457
vn -0.6041 -0.0168 0.7967
vn -0.9182 -0.0421 -0.3939
vn -0.7576 -0.0247 0.6522
vn -0.8385 -0.0403 -0.5435
vn -0.8662 -0.0307 0.4988
vn -0.7219 -0.0370 -0.6910
vn -0.9378 -0.0353 0.3453
vn -0.5610 -0.0317 -0.8272
vn -0.9801 -0.0386 0.1947
vn -0.8152 -0.2059 -0.5413
vn -0.8429 -0.1964 0.5010
vn -0.7017 -0.1808 -0.6891
vn -0.9125 -0.2156 0.3476
vn -0.5451 -0.1449 -0.8258
vn -0.9535 -0.2279 0.1971
vn -0.3420 -0.0975 -0.9346
vn -0.9709 -0.2344 0.0495
vn -0.1538 -0.0218 0.9879
vn -0.1011 -0.0400 -0.9941
vn -0.9670 -0.2358 -0.0967
vn -0.3912 -0.0805 0.9168
vn -0.9418 -0.2320 -0.2433
vn -0.5882 -0.1300 0.7982
vn -0.8929 -0.2224 -0.3915
vn -0.7374 -0.1684 0.6541
vn -0.1453 -0.0461 0.9883
vn -0.0926 -0.0643 -0.9936
vn -0.9026 -0.4203 -0.0933
vn -0.3668 -0.1503 0.9181
vn -0.8788 -0.4125 -0.2399
vn -0.5505 -0.2380 0.8002
vn -0.8329 -0.3944 -0.3884
vn -0.6896 -0.3055 0.6566
vn -0.7601 -0.3639 -0.5384
vn -0.7878 -0.3543 0.5039
vn -0.6539 -0.3178 -0.6866
vn -0.8525 -0.3876 0.3508
vn -0.5074 -0.2529 -0.8238
vn -0.8905 -0.4084 0.2004
vn -0.3176 -0.1673 -0.9333
vn -0.9065 -0.4190 0.0529
vn -0.7029 -0.4984 0.5074
vn -0.5802 -0.4429 -0.6835
vn -0.7601 -0.5445 0.3547
vn -0.4494 -0.3514 -0.8213
vn -0.7935 -0.5732 0.2045
vn -0.2801 -0.2310 -0.9318
vn -0.8073 -0.5874 0.0571
vn -0.1322 -0.0682 0.9889
vn -0.0796 -0.0864 -0.9931
vn -0.8034 -0.5888 -0.0891
vn -0.3293 -0.2140 0.9196
vn -0.7818 -0.5772 -0.2358
vn -0.4925 -0.3365 0.8026
vn -0.7405 -0.5513 -0.3845
vn -0.6159 -0.4306 0.6597
vn -0.6752 -0.5080 -0.5348
vn -0.6733 -0.7346 -0.0843
vn -0.2801 -0.2692 0.9215
vn -0.6545 -0.7198 -0.2311
vn -0.4164 -0.4217 0.8054
vn -0.6192 -0.6871 -0.3800
vn -0.5193 -0.5389 0.6633
vn -0.5639 -0.6328 -0.5307
vn -0.5916 -0.6232 0.5115
vn -0.4836 -0.5512 -0.6799
vn -0.6389 -0.6804 0.3591
vn -0.3733 -0.4367 -0.8185
vn -0.6662 -0.7158 0.2092
vn -0.2309 -0.2862 -0.9299
vn -0.6771 -0.7332 0.0619
vn -0.1151 -0.0874 0.9895
vn -0.0625 -0.1056 -0.9924
vn -0.3677 -0.6386 -0.6760
vn -0.4935 -0.7899 0.3640
vn -0.2820 -0.5054 -0.8155
vn -0.5136 -0.8308 0.2143
vn -0.1718 -0.3307 -0.9280
vn -0.5211 -0.8509 0.0671
vn -0.0946 -0.1029 0.9902
vn -0.0419 -0.1211 -0.9918
vn -0.5172 -0.8522 -0.0791
vn -0.2210 -0.3137 0.9234
vn -0.5019 -0.8349 -0.2260
vn -0.3252 -0.4905 0.8085
vn -0.4738 -0.7967 -0.3751
vn -0.4034 -0.6263 0.6672
vn -0.4303 -0.7334 -0.5262
vn -0.4580 -0.7238 0.5160
vn -0.1544 -0.3458 0.9255
vn -0.3297 -0.9179 -0.2207
vn -0.2222 -0.5402 0.8117
vn -0.3098 -0.8758 -0.3700
vn -0.2726 -0.6893 0.6712
vn -0.2797 -0.8060 -0.5216
vn -0.3074 -0.7965 0.5207
vn -0.2370 -0.7016 -0.6720
vn -0.3295 -0.8690 0.3691
vn -0.1791 -0.5551 -0.8123
vn -0.3414 -0.9139 0.2197
vn -0.1052 -0.3628 -0.9259
vn -0.3450 -0.9358 0.0726
vn -0.0714 -0.1141 0.9909
vn -0.0188 -0.1323 -0.9910
vn -0.3412 -0.9371 -0.0736
vn -0.1532 -0.9146 0.3742
vn -0.0684 -0.5837 -0.8091
vn -0.1564 -0.9617 0.2250
vn -0.0336 -0.3813 -0.9238
vn -0.1558 -0.9847 0.0780
vn -0.0466 -0.1205 0.9916
vn 0.0061 -0.1387 -0.9903
vn -0.1519 -0.9860 -0.0681
vn -0.0828 -0.3643 0.9276
vn -0.1447 -0.9658 -0.2153
vn -0.1116 -0.5688 0.8149
vn -0.1335 -0.9214 -0.3649
vn -0.1321 -0.7256 0.6753
vn -0.1178 -0.8479 -0.5169
vn -0.1455 -0.8383 0.5254
vn -0.0964 -0.7380 -0.6679
vn 0.0462 -0.9766 -0.2102
vn 0.0025 -0.5753 0.8180
vn 0.0482 -0.9317 -0.3600
vn 0.0128 -0.7338 0.6792
vn 0.0491 -0.8574 -0.5124
vn 0.0214 -0.8478 0.5299
vn 0.0485 -0.7462 -0.6640
vn 0.0286 -0.9249 0.3791
vn 0.0457 -0.5902 -0.8060
vn 0.0345 -0.9725 0.2302
vn 0.0402 -0.3855 -0.9218
vn 0.0393 -0.9957 0.0833
vn -0.0209 -0.1219 0.9923
vn 0.0318 -0.1401 -0.9896
vn 0.0432 -0.9971 -0.0629
vn -0.0090 -0.3685 0.9296
vt 1.000000 0.500000
vt 1.000000 1.000000
vt 0.968750 1.000000
vt 0.968750 0.500000
vt 0.937500 1.000000
vt 0.937500 0.500000
vt 0.906250 1.000000
vt 0.906250 0.500000
vt 0.875000 1.000000
vt 0.875000 0.500000
vt 0.843750 1.000000
vt 0.843750 0.500000
vt 0.812500 1.000000
vt 0.812500 0.500000
vt 0.781250 1.000000
vt 0.781250 0.500000
vt 0.750000 1.000000
vt 0.750000 0.500000
vt 0.718750 1.000000
vt 0.718750 0.500000
vt 0.687500 1.000000
vt 0.687500 0.500000
vt 0.656250 1.000000
vt 0.656250 0.500000
vt 0.625000 1.000000
vt 0.625000 0.500000
vt 0.593750 1.000000
vt 0.593750 0.500000
vt 0.562500 1.000000
vt 0.562500 0.500000
vt 0.531250 1.000000
vt 0.531250 0.500000
vt 0.500000 1.000000
vt 0.500000 0.500000
vt 0.468750 1.000000
vt 0.468750 0.500000
vt 0.437500 1.000000
vt 0.437500 0.500000
vt 0.406250 1.000000
vt 0.406250 0.500000
vt 0.375000 1.000000
vt 0.375000 0.500000
vt 0.343750 1.000000
vt 0.343750 0.500000
vt 0.312500 1.000000
vt 0.312500 0.500000
vt 0.281250 1.000000
vt 0.281250 0.500000
vt 0.250000 1.000000
vt 0.250000 0.500000
vt 0.218750 1.000000
vt 0.218750 0.500000
vt 0.187500 1.000000
vt 0.187500 0.500000
vt 0.156250 1.000000
vt 0.156250 0.500000
vt 0.125000 1.000000
vt 0.125000 0.500000
vt 0.093750 1.000000
vt 0.093750 0.500000
vt 0.062500 1.000000
vt 0.062500 0.500000
vt 0.296822 0.485388
vt 0.250000 0.490000
vt 0.203178 0.485388
vt 0.158156 0.471731
vt 0.116663 0.449553
vt 0.080294 0.419706
vt 0.050447 0.383337
vt 0.028269 0.341844
vt 0.014612 0.296822
vt 0.010000 0.250000
vt 0.014612 0.203178
vt 0.028269 0.158156
vt 0.050447 0.116663
vt 0.080294 0.080294
vt 0.116663 0.050447
vt 0.158156 0.028269
vt 0.203178 0.014612
vt 0.250000 0.010000
vt 0.296822 0.014612
vt 0.341844 0.028269
vt 0.383337 0.050447
vt 0.419706 0.080294
vt 0.449553 0.116663
vt 0.471731 0.158156
vt 0.485388 0.203178
vt 0.490000 0.250000
vt 0.485388 0.296822
vt 0.471731 0.341844
vt 0.449553 0.383337
vt 0.419706 0.419706
vt 0.383337 0.449553
vt 0.341844 0.471731
vt 0.031250 1.000000
vt 0.031250 0.500000
vt 0.000000 1.000000
vt 0.000000 0.500000
vt 0.750000 0.490000
vt 0.796822 0.485388
vt 0.841844 0.471731
vt 0.883337 0.449553
vt 0.919706 0.419706
vt 0.949553 0.383337
vt 0.971731 0.341844
vt 0.985388 0.296822
vt 0.990000 0.250000
vt 0.985388 0.203178
vt 0.971731 0.158156
vt 0.949553 0.116663
vt 0.919706 0.080294
vt 0.883337 0.050447
vt 0.841844 0.028269
vt 0.796822 0.014612
vt 0.750000 0.010000
vt 0.703178 0.014612
vt 0.658156 0.028269
vt 0.616663 0.050447
vt 0.580294 0.080294
vt 0.550447 0.116663
vt 0.528269 0.158156
vt 0.514612 0.203178
vt 0.510000 0.250000
vt 0.514612 0.296822
vt 0.528269 0.341844
vt 0.550447 0.383337
vt 0.580294 0.419706
vt 0.616663 0.449553
vt 0.658156 0.471731
vt 0.703178 0.485388
vt 0.750000 0.375000
vt 0.750000 0.437500
vt 0.718750 0.437500
vt 0.718750 0.375000
vt 0.750000 0.812500
vt 0.750000 0.875000
vt 0.718750 0.875000
vt 0.718750 0.812500
vt 0.750000 0.312500
vt 0.718750 0.312500
vt 0.750000 0.750000
vt 0.718750 0.750000
vt 0.750000 0.250000
vt 0.718750 0.250000
vt 0.750000 0.687500
vt 0.718750 0.687500
vt 0.750000 0.187500
vt 0.718750 0.187500
vt 0.750000 0.625000
vt 0.718750 0.625000
vt 0.750000 0.125000
vt 0.718750 0.125000
vt 0.750000 0.562500
vt 0.718750 0.562500
vt 0.750000 0.062500
vt 0.718750 0.062500
vt 0.750000 0.937500
vt 0.734375 1.000000
vt 0.718750 0.937500
vt 0.734375 0.000000
vt 0.703125 1.000000
vt 0.687500 0.937500
vt 0.703125 0.000000
vt 0.687500 0.062500
vt 0.687500 0.437500
vt 0.687500 0.875000
vt 0.687500 0.375000
vt 0.687500 0.812500
vt 0.687500 0.312500
vt 0.687500 0.750000
vt 0.687500 0.250000
vt 0.687500 0.687500
vt 0.687500 0.187500
vt 0.687500 0.625000
vt 0.687500 0.125000
vt 0.687500 0.562500
vt 0.656250 0.750000
vt 0.656250 0.687500
vt 0.656250 0.250000
vt 0.656250 0.187500
vt 0.656250 0.625000
vt 0.656250 0.125000
vt 0.656250 0.562500
vt 0.656250 0.062500
vt 0.671875 1.000000
vt 0.656250 0.937500
vt 0.671875 0.000000
vt 0.656250 0.437500
vt 0.656250 0.875000
vt 0.656250 0.375000
vt 0.656250 0.812500
vt 0.656250 0.312500
vt 0.625000 0.437500
vt 0.625000 0.937500
vt 0.625000 0.875000
vt 0.625000 0.375000
vt 0.625000 0.812500
vt 0.625000 0.312500
vt 0.625000 0.750000
vt 0.625000 0.250000
vt 0.625000 0.687500
vt 0.625000 0.187500
vt 0.625000 0.625000
vt 0.625000 0.125000
vt 0.625000 0.562500
vt 0.625000 0.062500
vt 0.640625 1.000000
vt 0.640625 0.000000
vt 0.593750 0.250000
vt 0.593750 0.187500
vt 0.593750 0.687500
vt 0.593750 0.625000
vt 0.593750 0.125000
vt 0.593750 0.562500
vt 0.593750 0.062500
vt 0.609375 1.000000
vt 0.593750 0.937500
vt 0.609375 0.000000
vt 0.593750 0.437500
vt 0.593750 0.875000
vt 0.593750 0.375000
vt 0.593750 0.812500
vt 0.593750 0.312500
vt 0.593750 0.750000
vt 0.562500 0.437500
vt 0.562500 0.375000
vt 0.562500 0.875000
vt 0.562500 0.812500
vt 0.562500 0.312500
vt 0.562500 0.750000
vt 0.562500 0.250000
vt 0.562500 0.687500
vt 0.562500 0.187500
vt 0.562500 0.625000
vt 0.562500 0.125000
vt 0.562500 0.562500
vt 0.562500 0.062500
vt 0.578125 1.000000
vt 0.562500 0.937500
vt 0.578125 0.000000
vt 0.531250 0.187500
vt 0.531250 0.125000
vt 0.531250 0.625000
vt 0.531250 0.562500
vt 0.531250 0.062500
vt 0.546875 1.000000
vt 0.531250 0.937500
vt 0.546875 0.000000
vt 0.531250 0.437500
vt 0.531250 0.875000
vt 0.531250 0.375000
vt 0.531250 0.812500
vt 0.531250 0.312500
vt 0.531250 0.750000
vt 0.531250 0.250000
vt 0.531250 0.687500
vt 0.500000 0.875000
vt 0.500000 0.812500
vt 0.500000 0.375000
vt 0.500000 0.312500
vt 0.500000 0.750000
vt 0.500000 0.250000
vt 0.500000 0.687500
vt 0.500000 0.187500
vt 0.500000 0.625000
vt 0.500000 0.125000
vt 0.500000 0.562500
vt 0.500000 0.062500
vt 0.500000 0.500000
vt 0.515625 1.000000
vt 0.500000 0.937500
vt 0.515625 0.000000
vt 0.500000 0.437500
vt 0.468750 0.625000
vt 0.468750 0.562500
vt 0.468750 0.125000
vt 0.468750 0.062500
vt 0.468750 0.500000
vt 0.484375 1.000000
vt 0.468750 0.937500
vt 0.484375 0.000000
vt 0.468750 0.437500
vt 0.468750 0.875000
vt 0.468750 0.375000
vt 0.468750 0.812500
vt 0.468750 0.312500
vt 0.468750 0.750000
vt 0.468750 0.250000
vt 0.468750 0.687500
vt 0.468750 0.187500
vt 0.437500 0.375000
vt 0.437500 0.312500
vt 0.437500 0.812500
vt 0.437500 0.750000
vt 0.437500 0.250000
vt 0.437500 0.687500
vt 0.437500 0.187500
vt 0.437500 0.625000
vt 0.437500 0.125000
vt 0.437500 0.562500
vt 0.437500 0.062500
vt 0.437500 0.500000
vt 0.453125 1.000000
vt 0.437500 0.937500
vt 0.453125 0.000000
vt 0.437500 0.437500
vt 0.437500 0.875000
vt 0.406250 0.125000
vt 0.406250 0.062500
vt 0.406250 0.562500
vt 0.406250 0.500000
vt 0.421875 1.000000
vt 0.406250 0.937500
vt 0.421875 0.000000
vt 0.406250 0.437500
vt 0.406250 0.875000
vt 0.406250 0.375000
vt 0.406250 0.812500
vt 0.406250 0.312500
vt 0.406250 0.750000
vt 0.406250 0.250000
vt 0.406250 0.687500
vt 0.406250 0.187500
vt 0.406250 0.625000
vt 0.375000 0.812500
vt 0.375000 0.750000
vt 0.375000 0.312500
vt 0.375000 0.250000
vt 0.375000 0.687500
vt 0.375000 0.187500
vt 0.375000 0.625000
vt 0.375000 0.125000
vt 0.375000 0.562500
vt 0.375000 0.062500
vt 0.375000 0.500000
vt 0.390625 1.000000
vt 0.375000 0.937500
vt 0.390625 0.000000
vt 0.375000 0.437500
vt 0.375000 0.875000
vt 0.375000 0.375000
vt 0.343750 0.562500
vt 0.343750 0.500000
vt 0.359375 1.000000
vt 0.343750 0.937500
vt 0.359375 0.000000
vt 0.343750 0.062500
vt 0.343750 0.437500
vt 0.343750 0.875000
vt 0.343750 0.375000
vt 0.343750 0.812500
vt 0.343750 0.312500
vt 0.343750 0.750000
vt 0.343750 0.250000
vt 0.343750 0.687500
vt 0.343750 0.187500
vt 0.343750 0.625000
vt 0.343750 0.125000
vt 0.312500 0.312500
vt 0.312500 0.250000
vt 0.312500 0.750000
vt 0.312500 0.687500
vt 0.312500 0.187500
vt 0.312500 0.625000
vt 0.312500 0.125000
vt 0.312500 0.562500
vt 0.312500 0.062500
vt 0.312500 0.500000
vt 0.328125 1.000000
vt 0.312500 0.937500
vt 0.328125 0.000000
vt 0.312500 0.437500
vt 0.312500 0.875000
vt 0.312500 0.375000
vt 0.312500 0.812500
vt 0.296875 0.000000
vt 0.281250 0.062500
vt 0.281250 0.500000
vt 0.281250 0.437500
vt 0.281250 0.937500
vt 0.281250 0.875000
vt 0.281250 0.375000
vt 0.281250 0.812500
vt 0.281250 0.312500
vt 0.281250 0.750000
vt 0.281250 0.250000
vt 0.281250 0.687500
vt 0.281250 0.187500
vt 0.281250 0.625000
vt 0.281250 0.125000
vt 0.281250 0.562500
vt 0.296875 1.000000
vt 0.250000 0.250000
vt 0.250000 0.187500
vt 0.250000 0.687500
vt 0.250000 0.625000
vt 0.250000 0.125000
vt 0.250000 0.562500
vt 0.250000 0.062500
vt 0.250000 0.500000
vt 0.265625 1.000000
vt 0.250000 0.937500
vt 0.265625 0.000000
vt 0.250000 0.437500
vt 0.250000 0.875000
vt 0.250000 0.375000
vt 0.250000 0.812500
vt 0.250000 0.312500
vt 0.250000 0.750000
vt 0.218750 0.937500
vt 0.218750 0.875000
vt 0.218750 0.437500
vt 0.218750 0.375000
vt 0.218750 0.812500
vt 0.218750 0.312500
vt 0.218750 0.750000
vt 0.218750 0.250000
vt 0.218750 0.687500
vt 0.218750 0.187500
vt 0.218750 0.625000
vt 0.218750 0.125000
vt 0.218750 0.562500
vt 0.218750 0.062500
vt 0.218750 0.500000
vt 0.234375 1.000000
vt 0.234375 0.000000
vt 0.187500 0.687500
vt 0.187500 0.625000
vt 0.187500 0.187500
vt 0.187500 0.125000
vt 0.187500 0.562500
vt 0.187500 0.062500
vt 0.187500 0.500000
vt 0.203125 1.000000
vt 0.187500 0.937500
vt 0.203125 0.000000
vt 0.187500 0.437500
vt 0.187500 0.875000
vt 0.187500 0.375000
vt 0.187500 0.812500
vt 0.187500 0.312500
vt 0.187500 0.750000
vt 0.187500 0.250000
vt 0.156250 0.437500
vt 0.156250 0.375000
vt 0.156250 0.875000
vt 0.156250 0.812500
vt 0.156250 0.312500
vt 0.156250 0.750000
vt 0.156250 0.250000
vt 0.156250 0.687500
vt 0.156250 0.187500
vt 0.156250 0.625000
vt 0.156250 0.125000
vt 0.156250 0.562500
vt 0.156250 0.062500
vt 0.156250 0.500000
vt 0.171875 1.000000
vt 0.156250 0.937500
vt 0.171875 0.000000
vt 0.125000 0.187500
vt 0.125000 0.125000
vt 0.125000 0.625000
vt 0.125000 0.562500
vt 0.125000 0.062500
vt 0.125000 0.500000
vt 0.140625 1.000000
vt 0.125000 0.937500
vt 0.140625 0.000000
vt 0.125000 0.437500
vt 0.125000 0.875000
vt 0.125000 0.375000
vt 0.125000 0.812500
vt 0.125000 0.312500
vt 0.125000 0.750000
vt 0.125000 0.250000
vt 0.125000 0.687500
vt 0.093750 0.875000
vt 0.093750 0.812500
vt 0.093750 0.375000
vt 0.093750 0.312500
vt 0.093750 0.750000
vt 0.093750 0.250000
vt 0.093750 0.687500
vt 0.093750 0.187500
vt 0.093750 0.625000
vt 0.093750 0.125000
vt 0.093750 0.562500
vt 0.093750 0.062500
vt 0.093750 0.500000
vt 0.109375 1.000000
vt 0.093750 0.937500
vt 0.109375 0.000000
vt 0.093750 0.437500
vt 0.062500 0.625000
vt 0.062500 0.562500
vt 0.062500 0.125000
vt 0.062500 0.062500
vt 0.062500 0.500000
vt 0.078125 1.000000
vt 0.062500 0.937500
vt 0.078125 0.000000
vt 0.062500 0.437500
vt 0.062500 0.875000
vt 0.062500 0.375000
vt 0.062500 0.812500
vt 0.062500 0.312500
vt 0.062500 0.750000
vt 0.062500 0.250000
vt 0.062500 0.687500
vt 0.062500 0.187500
vt 0.031250 0.375000
vt 0.031250 0.312500
vt 0.031250 0.812500
vt 0.031250 0.750000
vt 0.031250 0.250000
vt 0.031250 0.687500
vt 0.031250 0.187500
vt 0.031250 0.625000
vt 0.031250 0.125000
vt 0.031250 0.562500
vt 0.031250 0.062500
vt 0.031250 0.500000
vt 0.046875 1.000000
vt 0.031250 0.937500
vt 0.046875 0.000000
vt 0.031250 0.437500
vt 0.031250 0.875000
vt 0.000000 0.125000
vt 0.000000 0.062500
vt 0.000000 0.562500
vt 0.015625 1.000000
vt 0.000000 0.937500
vt 0.015625 0.000000
vt 0.000000 0.437500
vt 0.000000 0.875000
vt 0.000000 0.375000
vt 0.000000 0.812500
vt 0.000000 0.312500
vt 0.000000 0.750000
vt 0.000000 0.250000
vt 0.000000 0.687500
vt 0.000000 0.187500
vt 0.000000 0.625000
vt 1.000000 0.250000
vt 1.000000 0.312500
vt 0.968750 0.312500
vt 0.968750 0.250000
vt 1.000000 0.687500
vt 1.000000 0.750000
vt 0.968750 0.750000
vt 0.968750 0.687500
vt 1.000000 0.187500
vt 0.968750 0.187500
vt 1.000000 0.625000
vt 0.968750 0.625000
vt 1.000000 0.125000
vt 0.968750 0.125000
vt 1.000000 0.562500
vt 0.968750 0.562500
vt 1.000000 0.062500
vt 0.968750 0.062500
vt 0.968750 0.500000
vt 1.000000 0.937500
vt 0.984375 1.000000
vt 0.968750 0.937500
vt 0.984375 0.000000
vt 1.000000 0.437500
vt 0.968750 0.437500
vt 1.000000 0.875000
vt 0.968750 0.875000
vt 1.000000 0.375000
vt 0.968750 0.375000
vt 1.000000 0.812500
vt 0.968750 0.812500
vt 0.953125 1.000000
vt 0.937500 0.937500
vt 0.953125 0.000000
vt 0.937500 0.062500
vt 0.937500 0.500000
vt 0.937500 0.437500
vt 0.937500 0.875000
vt 0.937500 0.375000
vt 0.937500 0.812500
vt 0.937500 0.312500
vt 0.937500 0.750000
vt 0.937500 0.250000
vt 0.937500 0.687500
vt 0.937500 0.187500
vt 0.937500 0.625000
vt 0.937500 0.125000
vt 0.937500 0.562500
vt 0.906250 0.750000
vt 0.906250 0.687500
vt 0.906250 0.250000
vt 0.906250 0.187500
vt 0.906250 0.625000
vt 0.906250 0.125000
vt 0.906250 0.562500
vt 0.906250 0.062500
vt 0.906250 0.500000
vt 0.921875 1.000000
vt 0.906250 0.937500
vt 0.921875 0.000000
vt 0.906250 0.437500
vt 0.906250 0.875000
vt 0.906250 0.375000
vt 0.906250 0.812500
vt 0.906250 0.312500
vt 0.875000 0.500000
vt 0.875000 0.437500
vt 0.875000 0.937500
vt 0.875000 0.875000
vt 0.875000 0.375000
vt 0.875000 0.812500
vt 0.875000 0.312500
vt 0.875000 0.750000
vt 0.875000 0.250000
vt 0.875000 0.687500
vt 0.875000 0.187500
vt 0.875000 0.625000
vt 0.875000 0.125000
vt 0.875000 0.562500
vt 0.875000 0.062500
vt 0.890625 1.000000
vt 0.890625 0.000000
vt 0.843750 0.250000
vt 0.843750 0.187500
vt 0.843750 0.687500
vt 0.843750 0.625000
vt 0.843750 0.125000
vt 0.843750 0.562500
vt 0.843750 0.062500
vt 0.843750 0.500000
vt 0.859375 1.000000
vt 0.843750 0.937500
vt 0.859375 0.000000
vt 0.843750 0.437500
vt 0.843750 0.875000
vt 0.843750 0.375000
vt 0.843750 0.812500
vt 0.843750 0.312500
vt 0.843750 0.750000
vt 0.812500 0.937500
vt 0.812500 0.875000
vt 0.812500 0.437500
vt 0.812500 0.375000
vt 0.812500 0.812500
vt 0.812500 0.312500
vt 0.812500 0.750000
vt 0.812500 0.250000
vt 0.812500 0.687500
vt 0.812500 0.187500
vt 0.812500 0.625000
vt 0.812500 0.125000
vt 0.812500 0.562500
vt 0.812500 0.062500
vt 0.812500 0.500000
vt 0.828125 1.000000
vt 0.828125 0.000000
vt 0.781250 0.687500
vt 0.781250 0.625000
vt 0.781250 0.187500
vt 0.781250 0.125000
vt 0.781250 0.562500
vt 0.781250 0.062500
vt 0.781250 0.500000
vt 0.796875 1.000000
vt 0.781250 0.937500
vt 0.796875 0.000000
vt 0.781250 0.437500
vt 0.781250 0.875000
vt 0.781250 0.375000
vt 0.781250 0.812500
vt 0.781250 0.312500
vt 0.781250 0.750000
vt 0.781250 0.250000
vt 0.765625 1.000000
vt 0.765625 0.000000
s 0
usemtl Material.003
f 1/1/1 3/4/1 4/3/1 2/2/1
f 3/4/2 5/6/2 6/5/2 4/3/2
f 5/6/3 7/8/3 8/7/3 6/5/3
f 7/8/4 9/10/4 10/9/4 8/7/4
f 9/10/5 11/12/5 12/11/5 10/9/5
f 11/12/6 13/14/6 14/13/6 12/11/6
f 13/14/7 15/16/7 16/15/7 14/13/7
f 15/16/8 17/18/8 18/17/8 16/15/8
f 17/18/9 19/20/9 20/19/9 18/17/9
f 19/20/10 21/22/10 22/21/10 20/19/10
f 21/22/11 23/24/11 24/23/11 22/21/11
f 23/24/12 25/26/12 26/25/12 24/23/12
f 25/26/13 27/28/13 28/27/13 26/25/13
f 27/28/14 29/30/14 30/29/14 28/27/14
f 29/30/15 31/32/15 32/31/15 30/29/15
f 31/32/16 33/34/16 34/33/16 32/31/16
f 33/34/17 35/36/17 36/35/17 34/33/17
f 35/36/18 37/38/18 38/37/18 36/35/18
f 37/38/19 39/40/19 40/39/19 38/37/19
f 39/40/20 41/42/20 42/41/20 40/39/20
f 41/42/21 43/44/21 44/43/21 42/41/21
f 43/44/22 45/46/22 46/45/22 44/43/22
f 45/46/23 47/48/23 48/47/23 46/45/23
f 47/48/24 49/50/24 50/49/24 48/47/24
f 49/50/25 51/52/25 52/51/25 50/49/25
f 51/52/26 53/54/26 54/53/26 52/51/26
f 53/54/27 55/56/27 56/55/27 54/53/27
f 55/56/28 57/58/28 58/57/28 56/55/28
f 57/58/29 59/60/29 60/59/29 58/57/29
f 59/60/30 61/62/30 62/61/30 60/59/30
f 4/63/31 6/94/31 8/93/31 10/92/31 12/91/31 14/90/31 16/89/31 18/88/31 20/87/31 22/86/31 24/85/31 26/84/31 28/83/31 30/82/31 32/81/31 34/80/31 36/79/31 38/78/31 40/77/31 42/76/31 44/75/31 46/74/31 48/73/31 50/72/31 52/71/31 54/70/31 56/69/31 58/68/31 60/67/31 62/66/31 64/65/31 2/64/31
f 61/62/32 63/96/32 64/95/32 62/61/32
f 63/96/33 1/98/33 2/97/33 64/95/33
f 1/99/34 63/130/34 61/129/34 59/128/34 57/127/34 55/126/34 53/125/34 51/124/34 49/123/34 47/122/34 45/121/34 43/120/34 41/119/34 39/118/34 37/117/34 35/116/34 33/115/34 31/114/34 29/113/34 27/112/34 25/111/34 23/110/34 21/109/34 19/108/34 17/107/34 15/106/34 13/105/34 11/104/34 9/103/34 7/102/34 5/101/34 3/100/34
f 542/131/35 80/134/35 79/133/35 69/132/35
f 65/135/36 73/138/36 72/137/36 539/136/36
f 70/139/37 81/140/37 80/134/37 542/131/37
f 540/141/38 74/142/38 73/138/38 65/135/38
f 543/143/39 82/144/39 81/140/39 70/139/39
f 66/145/40 75/146/40 74/142/40 540/141/40
f 544/147/41 83/148/41 82/144/41 543/143/41
f 541/149/42 76/150/42 75/146/42 66/145/42
f 545/151/43 84/152/43 83/148/43 544/147/43
f 67/153/44 77/154/44 76/150/44 541/149/44
f 546/155/45 85/156/45 84/152/45 545/151/45
f 68/18/46 78/20/46 77/154/46 67/153/46
f 538/157/47 71/159/47 146/158/47
f 372/160/48 85/156/48 546/155/48
f 69/132/49 79/133/49 78/20/49 68/18/49
f 539/136/50 72/137/50 71/159/50 538/157/50
f 71/159/51 86/162/51 146/161/51
f 372/163/52 100/164/52 85/156/52
f 79/133/53 94/165/53 93/22/53 78/20/53
f 72/137/54 87/166/54 86/162/54 71/159/54
f 80/134/55 95/167/55 94/165/55 79/133/55
f 73/138/56 88/168/56 87/166/56 72/137/56
f 81/140/57 96/169/57 95/167/57 80/134/57
f 74/142/58 89/170/58 88/168/58 73/138/58
f 82/144/59 97/171/59 96/169/59 81/140/59
f 75/146/60 90/172/60 89/170/60 74/142/60
f 83/148/61 98/173/61 97/171/61 82/144/61
f 76/150/62 91/174/62 90/172/62 75/146/62
f 84/152/63 99/175/63 98/173/63 83/148/63
f 77/154/64 92/176/64 91/174/64 76/150/64
f 85/156/65 100/164/65 99/175/65 84/152/65
f 78/20/66 93/22/66 92/176/66 77/154/66
f 90/172/67 105/178/67 104/177/67 89/170/67
f 98/173/68 113/180/68 112/179/68 97/171/68
f 91/174/69 106/181/69 105/178/69 90/172/69
f 99/175/70 114/182/70 113/180/70 98/173/70
f 92/176/71 107/183/71 106/181/71 91/174/71
f 100/164/72 115/184/72 114/182/72 99/175/72
f 93/22/73 108/24/73 107/183/73 92/176/73
f 86/162/74 101/186/74 146/185/74
f 372/187/75 115/184/75 100/164/75
f 94/165/76 109/188/76 108/24/76 93/22/76
f 87/166/77 102/189/77 101/186/77 86/162/77
f 95/167/78 110/190/78 109/188/78 94/165/78
f 88/168/79 103/191/79 102/189/79 87/166/79
f 96/169/80 111/192/80 110/190/80 95/167/80
f 89/170/81 104/177/81 103/191/81 88/168/81
f 97/171/82 112/179/82 111/192/82 96/169/82
f 109/188/83 124/193/83 123/26/83 108/24/83
f 102/189/84 117/195/84 116/194/84 101/186/84
f 110/190/85 125/196/85 124/193/85 109/188/85
f 103/191/86 118/197/86 117/195/86 102/189/86
f 111/192/87 126/198/87 125/196/87 110/190/87
f 104/177/88 119/199/88 118/197/88 103/191/88
f 112/179/89 127/200/89 126/198/89 111/192/89
f 105/178/90 120/201/90 119/199/90 104/177/90
f 113/180/91 128/202/91 127/200/91 112/179/91
f 106/181/92 121/203/92 120/201/92 105/178/92
f 114/182/93 129/204/93 128/202/93 113/180/93
f 107/183/94 122/205/94 121/203/94 106/181/94
f 115/184/95 130/206/95 129/204/95 114/182/95
f 108/24/96 123/26/96 122/205/96 107/183/96
f 101/186/97 116/194/97 146/207/97
f 372/208/98 130/206/98 115/184/98
f 128/202/99 143/210/99 142/209/99 127/200/99
f 121/203/100 136/212/100 135/211/100 120/201/100
f 129/204/101 144/213/101 143/210/101 128/202/101
f 122/205/102 137/214/102 136/212/102 121/203/102
f 130/206/103 145/215/103 144/213/103 129/204/103
f 123/26/104 138/28/104 137/214/104 122/205/104
f 116/194/105 131/217/105 146/216/105
f 372/218/106 145/215/106 130/206/106
f 124/193/107 139/219/107 138/28/107 123/26/107
f 117/195/108 132/220/108 131/217/108 116/194/108
f 125/196/109 140/221/109 139/219/109 124/193/109
f 118/197/110 133/222/110 132/220/110 117/195/110
f 126/198/111 141/223/111 140/221/111 125/196/111
f 119/199/112 134/224/112 133/222/112 118/197/112
f 127/200/113 142/209/113 141/223/113 126/198/113
f 120/201/114 135/211/114 134/224/114 119/199/114
f 140/221/115 156/226/115 155/225/115 139/219/115
f 133/222/116 149/228/116 148/227/116 132/220/116
f 141/223/117 157/229/117 156/226/117 140/221/117
f 134/224/118 150/230/118 149/228/118 133/222/118
f 142/209/119 158/231/119 157/229/119 141/223/119
f 135/211/120 151/232/120 150/230/120 134/224/120
f 143/210/121 159/233/121 158/231/121 142/209/121
f 136/212/122 152/234/122 151/232/122 135/211/122
f 144/213/123 160/235/123 159/233/123 143/210/123
f 137/214/124 153/236/124 152/234/124 136/212/124
f 145/215/125 161/237/125 160/235/125 144/213/125
f 138/28/126 154/30/126 153/236/126 137/214/126
f 131/217/127 147/239/127 146/238/127
f 372/240/128 161/237/128 145/215/128
f 139/219/129 155/225/129 154/30/129 138/28/129
f 132/220/130 148/227/130 147/239/130 131/217/130
f 160/235/131 175/242/131 174/241/131 159/233/131
f 153/236/132 168/244/132 167/243/132 152/234/132
f 161/237/133 176/245/133 175/242/133 160/235/133
f 154/30/134 169/32/134 168/244/134 153/236/134
f 147/239/135 162/247/135 146/246/135
f 372/248/136 176/245/136 161/237/136
f 155/225/137 170/249/137 169/32/137 154/30/137
f 148/227/138 163/250/138 162/247/138 147/239/138
f 156/226/139 171/251/139 170/249/139 155/225/139
f 149/228/140 164/252/140 163/250/140 148/227/140
f 157/229/141 172/253/141 171/251/141 156/226/141
f 150/230/142 165/254/142 164/252/142 149/228/142
f 158/231/143 173/255/143 172/253/143 157/229/143
f 151/232/144 166/256/144 165/254/144 150/230/144
f 159/233/145 174/241/145 173/255/145 158/231/145
f 152/234/146 167/243/146 166/256/146 151/232/146
f 164/252/147 179/258/147 178/257/147 163/250/147
f 172/253/148 187/260/148 186/259/148 171/251/148
f 165/254/149 180/261/149 179/258/149 164/252/149
f 173/255/150 188/262/150 187/260/150 172/253/150
f 166/256/151 181/263/151 180/261/151 165/254/151
f 174/241/152 189/264/152 188/262/152 173/255/152
f 167/243/153 182/265/153 181/263/153 166/256/153
f 175/242/154 190/266/154 189/264/154 174/241/154
f 168/244/155 183/267/155 182/265/155 167/243/155
f 176/245/156 191/268/156 190/266/156 175/242/156
f 169/32/157 184/269/157 183/267/157 168/244/157
f 162/247/158 177/271/158 146/270/158
f 372/272/159 191/268/159 176/245/159
f 170/249/160 185/273/160 184/269/160 169/32/160
f 163/250/161 178/257/161 177/271/161 162/247/161
f 171/251/162 186/259/162 185/273/162 170/249/162
f 183/267/163 198/275/163 197/274/163 182/265/163
f 191/268/164 206/277/164 205/276/164 190/266/164
f 184/269/165 199/278/165 198/275/165 183/267/165
f 177/271/166 192/280/166 146/279/166
f 372/281/167 206/277/167 191/268/167
f 185/273/168 200/282/168 199/278/168 184/269/168
f 178/257/169 193/283/169 192/280/169 177/271/169
f 186/259/170 201/284/170 200/282/170 185/273/170
f 179/258/171 194/285/171 193/283/171 178/257/171
f 187/260/172 202/286/172 201/284/172 186/259/172
f 180/261/173 195/287/173 194/285/173 179/258/173
f 188/262/174 203/288/174 202/286/174 187/260/174
f 181/263/175 196/289/175 195/287/175 180/261/175
f 189/264/176 204/290/176 203/288/176 188/262/176
f 182/265/177 197/274/177 196/289/177 181/263/177
f 190/266/178 205/276/178 204/290/178 189/264/178
f 202/286/179 217/292/179 216/291/179 201/284/179
f 195/287/180 210/294/180 209/293/180 194/285/180
f 203/288/181 218/295/181 217/292/181 202/286/181
f 196/289/182 211/296/182 210/294/182 195/287/182
f 204/290/183 219/297/183 218/295/183 203/288/183
f 197/274/184 212/298/184 211/296/184 196/289/184
f 205/276/185 220/299/185 219/297/185 204/290/185
f 198/275/186 213/300/186 212/298/186 197/274/186
f 206/277/187 221/301/187 220/299/187 205/276/187
f 199/278/188 214/302/188 213/300/188 198/275/188
f 192/280/189 207/304/189 146/303/189
f 372/305/190 221/301/190 206/277/190
f 200/282/191 215/306/191 214/302/191 199/278/191
f 193/283/192 208/307/192 207/304/192 192/280/192
f 201/284/193 216/291/193 215/306/193 200/282/193
f 194/285/194 209/293/194 208/307/194 193/283/194
f 221/301/195 236/309/195 235/308/195 220/299/195
f 214/302/196 229/311/196 228/310/196 213/300/196
f 207/304/197 222/313/197 146/312/197
f 372/314/198 236/309/198 221/301/198
f 215/306/199 230/315/199 229/311/199 214/302/199
f 208/307/200 223/316/200 222/313/200 207/304/200
f 216/291/201 231/317/201 230/315/201 215/306/201
f 209/293/202 224/318/202 223/316/202 208/307/202
f 217/292/203 232/319/203 231/317/203 216/291/203
f 210/294/204 225/320/204 224/318/204 209/293/204
f 218/295/205 233/321/205 232/319/205 217/292/205
f 211/296/206 226/322/206 225/320/206 210/294/206
f 219/297/207 234/323/207 233/321/207 218/295/207
f 212/298/208 227/324/208 226/322/208 211/296/208
f 220/299/209 235/308/209 234/323/209 219/297/209
f 213/300/210 228/310/210 227/324/210 212/298/210
f 225/320/211 240/326/211 239/325/211 224/318/211
f 233/321/212 248/328/212 247/327/212 232/319/212
f 226/322/213 241/329/213 240/326/213 225/320/213
f 234/323/214 249/330/214 248/328/214 233/321/214
f 227/324/215 242/331/215 241/329/215 226/322/215
f 235/308/216 250/332/216 249/330/216 234/323/216
f 228/310/217 243/333/217 242/331/217 227/324/217
f 236/309/218 251/334/218 250/332/218 235/308/218
f 229/311/219 244/335/219 243/333/219 228/310/219
f 222/313/220 237/337/220 146/336/220
f 372/338/221 251/334/221 236/309/221
f 230/315/222 245/339/222 244/335/222 229/311/222
f 223/316/223 238/340/223 237/337/223 222/313/223
f 231/317/224 246/341/224 245/339/224 230/315/224
f 224/318/225 239/325/225 238/340/225 223/316/225
f 232/319/226 247/327/226 246/341/226 231/317/226
f 244/335/227 259/343/227 258/342/227 243/333/227
f 237/337/228 252/345/228 146/344/228
f 372/346/229 266/347/229 251/334/229
f 245/339/230 260/348/230 259/343/230 244/335/230
f 238/340/231 253/349/231 252/345/231 237/337/231
f 246/341/232 261/350/232 260/348/232 245/339/232
f 239/325/233 254/351/233 253/349/233 238/340/233
f 247/327/234 262/352/234 261/350/234 246/341/234
f 240/326/235 255/353/235 254/351/235 239/325/235
f 248/328/236 263/354/236 262/352/236 247/327/236
f 241/329/237 256/355/237 255/353/237 240/326/237
f 249/330/238 264/356/238 263/354/238 248/328/238
f 242/331/239 257/357/239 256/355/239 241/329/239
f 250/332/240 265/358/240 264/356/240 249/330/240
f 243/333/241 258/342/241 257/357/241 242/331/241
f 251/334/242 266/347/242 265/358/242 250/332/242
f 263/354/243 278/360/243 277/359/243 262/352/243
f 256/355/244 271/362/244 270/361/244 255/353/244
f 264/356/245 279/363/245 278/360/245 263/354/245
f 257/357/246 272/364/246 271/362/246 256/355/246
f 265/358/247 280/365/247 279/363/247 264/356/247
f 258/342/248 273/366/248 272/364/248 257/357/248
f 266/347/249 281/367/249 280/365/249 265/358/249
f 259/343/250 274/368/250 273/366/250 258/342/250
f 252/345/251 267/370/251 146/369/251
f 372/371/252 281/367/252 266/347/252
f 260/348/253 275/372/253 274/368/253 259/343/253
f 253/349/254 268/373/254 267/370/254 252/345/254
f 261/350/255 276/374/255 275/372/255 260/348/255
f 254/351/256 269/375/256 268/373/256 253/349/256
f 262/352/257 277/359/257 276/374/257 261/350/257
f 255/353/258 270/361/258 269/375/258 254/351/258
f 372/376/259 296/377/259 281/367/259
f 275/372/260 290/379/260 289/378/260 274/368/260
f 268/373/261 283/381/261 282/380/261 267/370/261
f 276/374/262 291/382/262 290/379/262 275/372/262
f 269/375/263 284/383/263 283/381/263 268/373/263
f 277/359/264 292/384/264 291/382/264 276/374/264
f 270/361/265 285/385/265 284/383/265 269/375/265
f 278/360/266 293/386/266 292/384/266 277/359/266
f 271/362/267 286/387/267 285/385/267 270/361/267
f 279/363/268 294/388/268 293/386/268 278/360/268
f 272/364/269 287/389/269 286/387/269 271/362/269
f 280/365/270 295/390/270 294/388/270 279/363/270
f 273/366/271 288/391/271 287/389/271 272/364/271
f 281/367/272 296/377/272 295/390/272 280/365/272
f 274/368/273 289/378/273 288/391/273 273/366/273
f 267/370/274 282/380/274 146/392/274
f 294/388/275 309/394/275 308/393/275 293/386/275
f 287/389/276 302/396/276 301/395/276 286/387/276
f 295/390/277 310/397/277 309/394/277 294/388/277
f 288/391/278 303/398/278 302/396/278 287/389/278
f 296/377/279 311/399/279 310/397/279 295/390/279
f 289/378/280 304/400/280 303/398/280 288/391/280
f 282/380/281 297/402/281 146/401/281
f 372/403/282 311/399/282 296/377/282
f 290/379/283 305/404/283 304/400/283 289/378/283
f 283/381/284 298/405/284 297/402/284 282/380/284
f 291/382/285 306/406/285 305/404/285 290/379/285
f 284/383/286 299/407/286 298/405/286 283/381/286
f 292/384/287 307/408/287 306/406/287 291/382/287
f 285/385/288 300/409/288 299/407/288 284/383/288
f 293/386/289 308/393/289 307/408/289 292/384/289
f 286/387/290 301/395/290 300/409/290 285/385/290
f 298/405/291 313/411/291 312/410/291 297/402/291
f 306/406/292 321/413/292 320/412/292 305/404/292
f 299/407/293 314/414/293 313/411/293 298/405/293
f 307/408/294 322/415/294 321/413/294 306/406/294
f 300/409/295 315/416/295 314/414/295 299/407/295
f 308/393/296 323/417/296 322/415/296 307/408/296
f 301/395/297 316/418/297 315/416/297 300/409/297
f 309/394/298 324/419/298 323/417/298 308/393/298
f 302/396/299 317/420/299 316/418/299 301/395/299
f 310/397/300 325/421/300 324/419/300 309/394/300
f 303/398/301 318/422/301 317/420/301 302/396/301
f 311/399/302 326/423/302 325/421/302 310/397/302
f 304/400/303 319/424/303 318/422/303 303/398/303
f 297/402/304 312/410/304 146/425/304
f 372/426/305 326/423/305 311/399/305
f 305/404/306 320/412/306 319/424/306 304/400/306
f 317/420/307 332/428/307 331/427/307 316/418/307
f 325/421/308 340/430/308 339/429/308 324/419/308
f 318/422/309 333/431/309 332/428/309 317/420/309
f 326/423/310 341/432/310 340/430/310 325/421/310
f 319/424/311 334/433/311 333/431/311 318/422/311
f 312/410/312 327/435/312 146/434/312
f 372/436/313 341/432/313 326/423/313
f 320/412/314 335/437/314 334/433/314 319/424/314
f 313/411/315 328/438/315 327/435/315 312/410/315
f 321/413/316 336/439/316 335/437/316 320/412/316
f 314/414/317 329/440/317 328/438/317 313/411/317
f 322/415/318 337/441/318 336/439/318 321/413/318
f 315/416/319 330/442/319 329/440/319 314/414/319
f 323/417/320 338/443/320 337/441/320 322/415/320
f 316/418/321 331/427/321 330/442/321 315/416/321
f 324/419/322 339/429/322 338/443/322 323/417/322
f 336/439/323 351/445/323 350/444/323 335/437/323
f 329/440/324 344/447/324 343/446/324 328/438/324
f 337/441/325 352/448/325 351/445/325 336/439/325
f 330/442/326 345/449/326 344/447/326 329/440/326
f 338/443/327 353/450/327 352/448/327 337/441/327
f 331/427/328 346/451/328 345/449/328 330/442/328
f 339/429/329 354/452/329 353/450/329 338/443/329
f 332/428/330 347/453/330 346/451/330 331/427/330
f 340/430/331 355/454/331 354/452/331 339/429/331
f 333/431/332 348/455/332 347/453/332 332/428/332
f 341/432/333 356/456/333 355/454/333 340/430/333
f 334/433/334 349/457/334 348/455/334 333/431/334
f 327/435/335 342/459/335 146/458/335
f 372/460/336 356/456/336 341/432/336
f 335/437/337 350/444/337 349/457/337 334/433/337
f 328/438/338 343/446/338 342/459/338 327/435/338
f 355/454/339 370/462/339 369/461/339 354/452/339
f 348/455/340 363/464/340 362/463/340 347/453/340
f 356/456/341 371/465/341 370/462/341 355/454/341
f 349/457/342 364/466/342 363/464/342 348/455/342
f 342/459/343 357/468/343 146/467/343
f 372/469/344 371/465/344 356/456/344
f 350/444/345 365/470/345 364/466/345 349/457/345
f 343/446/346 358/471/346 357/468/346 342/459/346
f 351/445/347 366/472/347 365/470/347 350/444/347
f 344/447/348 359/473/348 358/471/348 343/446/348
f 352/448/349 367/474/349 366/472/349 351/445/349
f 345/449/350 360/475/350 359/473/350 344/447/350
f 353/450/351 368/476/351 367/474/351 352/448/351
f 346/451/352 361/477/352 360/475/352 345/449/352
f 354/452/353 369/461/353 368/476/353 353/450/353
f 347/453/354 362/463/354 361/477/354 346/451/354
f 359/473/355 375/479/355 374/478/355 358/471/355
f 367/474/356 383/481/356 382/480/356 366/472/356
f 360/475/357 376/482/357 375/479/357 359/473/357
f 368/476/358 384/483/358 383/481/358 367/474/358
f 361/477/359 377/484/359 376/482/359 360/475/359
f 369/461/360 385/485/360 384/483/360 368/476/360
f 362/463/361 378/486/361 377/484/361 361/477/361
f 370/462/362 386/487/362 385/485/362 369/461/362
f 363/464/363 379/488/363 378/486/363 362/463/363
f 371/465/364 387/489/364 386/487/364 370/462/364
f 364/466/365 380/490/365 379/488/365 363/464/365
f 357/468/366 373/492/366 146/491/366
f 372/493/367 387/489/367 371/465/367
f 365/470/368 381/494/368 380/490/368 364/466/368
f 358/471/369 374/478/369 373/492/369 357/468/369
f 366/472/370 382/480/370 381/494/370 365/470/370
f 379/488/371 394/496/371 393/495/371 378/486/371
f 387/489/372 402/498/372 401/497/372 386/487/372
f 380/490/373 395/499/373 394/496/373 379/488/373
f 373/492/374 388/501/374 146/500/374
f 372/502/375 402/498/375 387/489/375
f 381/494/376 396/503/376 395/499/376 380/490/376
f 374/478/377 389/504/377 388/501/377 373/492/377
f 382/480/378 397/505/378 396/503/378 381/494/378
f 375/479/379 390/506/379 389/504/379 374/478/379
f 383/481/380 398/507/380 397/505/380 382/480/380
f 376/482/381 391/508/381 390/506/381 375/479/381
f 384/483/382 399/509/382 398/507/382 383/481/382
f 377/484/383 392/510/383 391/508/383 376/482/383
f 385/485/384 400/511/384 399/509/384 384/483/384
f 378/486/385 393/495/385 392/510/385 377/484/385
f 386/487/386 401/497/386 400/511/386 385/485/386
f 398/507/387 413/513/387 412/512/387 397/505/387
f 391/508/388 406/515/388 405/514/388 390/506/388
f 399/509/389 414/516/389 413/513/389 398/507/389
f 392/510/390 407/517/390 406/515/390 391/508/390
f 400/511/391 415/518/391 414/516/391 399/509/391
f 393/495/392 408/519/392 407/517/392 392/510/392
f 401/497/393 416/520/393 415/518/393 400/511/393
f 394/496/394 409/521/394 408/519/394 393/495/394
f 402/498/395 417/522/395 416/520/395 401/497/395
f 395/499/396 410/523/396 409/521/396 394/496/396
f 388/501/397 403/525/397 146/524/397
f 372/526/398 417/522/398 402/498/398
f 396/503/399 411/527/399 410/523/399 395/499/399
f 389/504/400 404/528/400 403/525/400 388/501/400
f 397/505/401 412/512/401 411/527/401 396/503/401
f 390/506/402 405/514/402 404/528/402 389/504/402
f 417/522/403 432/530/403 431/529/403 416/520/403
f 410/523/404 425/98/404 424/531/404 409/521/404
f 403/525/405 418/533/405 146/532/405
f 372/534/406 432/530/406 417/522/406
f 411/527/407 426/535/407 425/98/407 410/523/407
f 404/528/408 419/536/408 418/533/408 403/525/408
f 412/512/409 427/537/409 426/535/409 411/527/409
f 405/514/410 420/538/410 419/536/410 404/528/410
f 413/513/411 428/539/411 427/537/411 412/512/411
f 406/515/412 421/540/412 420/538/412 405/514/412
f 414/516/413 429/541/413 428/539/413 413/513/413
f 407/517/414 422/542/414 421/540/414 406/515/414
f 415/518/415 430/543/415 429/541/415 414/516/415
f 408/519/416 423/544/416 422/542/416 407/517/416
f 416/520/417 431/529/417 430/543/417 415/518/417
f 409/521/418 424/531/418 423/544/418 408/519/418
f 429/545/419 444/548/419 443/547/419 428/546/419
f 422/549/420 437/552/420 436/551/420 421/550/420
f 430/553/421 445/554/421 444/548/421 429/545/421
f 423/555/422 438/556/422 437/552/422 422/549/422
f 431/557/423 446/558/423 445/554/423 430/553/423
f 424/559/424 439/560/424 438/556/424 423/555/424
f 432/561/425 447/562/425 446/558/425 431/557/425
f 425/1/426 440/563/426 439/560/426 424/559/426
f 418/564/427 433/566/427 146/565/427
f 372/567/428 447/562/428 432/561/428
f 426/568/429 441/569/429 440/563/429 425/1/429
f 419/570/430 434/571/430 433/566/430 418/564/430
f 427/572/431 442/573/431 441/569/431 426/568/431
f 420/574/432 435/575/432 434/571/432 419/570/432
f 428/546/433 443/547/433 442/573/433 427/572/433
f 421/550/434 436/551/434 435/575/434 420/574/434
f 433/566/435 448/577/435 146/576/435
f 372/578/436 462/579/436 447/562/436
f 441/569/437 456/581/437 455/580/437 440/563/437
f 434/571/438 449/582/438 448/577/438 433/566/438
f 442/573/439 457/583/439 456/581/439 441/569/439
f 435/575/440 450/584/440 449/582/440 434/571/440
f 443/547/441 458/585/441 457/583/441 442/573/441
f 436/551/442 451/586/442 450/584/442 435/575/442
f 444/548/443 459/587/443 458/585/443 443/547/443
f 437/552/444 452/588/444 451/586/444 436/551/444
f 445/554/445 460/589/445 459/587/445 444/548/445
f 438/556/446 453/590/446 452/588/446 437/552/446
f 446/558/447 461/591/447 460/589/447 445/554/447
f 439/560/448 454/592/448 453/590/448 438/556/448
f 447/562/449 462/579/449 461/591/449 446/558/449
f 440/563/450 455/580/450 454/592/450 439/560/450
f 452/588/451 467/594/451 466/593/451 451/586/451
f 460/589/452 475/596/452 474/595/452 459/587/452
f 453/590/453 468/597/453 467/594/453 452/588/453
f 461/591/454 476/598/454 475/596/454 460/589/454
f 454/592/455 469/599/455 468/597/455 453/590/455
f 462/579/456 477/600/456 476/598/456 461/591/456
f 455/580/457 470/601/457 469/599/457 454/592/457
f 448/577/458 463/603/458 146/602/458
f 372/604/459 477/600/459 462/579/459
f 456/581/460 471/605/460 470/601/460 455/580/460
f 449/582/461 464/606/461 463/603/461 448/577/461
f 457/583/462 472/607/462 471/605/462 456/581/462
f 450/584/463 465/608/463 464/606/463 449/582/463
f 458/585/464 473/609/464 472/607/464 457/583/464
f 451/586/465 466/593/465 465/608/465 450/584/465
f 459/587/466 474/595/466 473/609/466 458/585/466
f 471/605/467 486/611/467 485/610/467 470/601/467
f 464/606/468 479/613/468 478/612/468 463/603/468
f 472/607/469 487/614/469 486/611/469 471/605/469
f 465/608/470 480/615/470 479/613/470 464/606/470
f 473/609/471 488/616/471 487/614/471 472/607/471
f 466/593/472 481/617/472 480/615/472 465/608/472
f 474/595/473 489/618/473 488/616/473 473/609/473
f 467/594/474 482/619/474 481/617/474 466/593/474
f 475/596/475 490/620/475 489/618/475 474/595/475
f 468/597/476 483/621/476 482/619/476 467/594/476
f 476/598/477 491/622/477 490/620/477 475/596/477
f 469/599/478 484/623/478 483/621/478 468/597/478
f 477/600/479 492/624/479 491/622/479 476/598/479
f 470/601/480 485/610/480 484/623/480 469/599/480
f 463/603/481 478/612/481 146/625/481
f 372/626/482 492/624/482 477/600/482
f 490/620/483 505/628/483 504/627/483 489/618/483
f 483/621/484 498/630/484 497/629/484 482/619/484
f 491/622/485 506/631/485 505/628/485 490/620/485
f 484/623/486 499/632/486 498/630/486 483/621/486
f 492/624/487 507/633/487 506/631/487 491/622/487
f 485/610/488 500/634/488 499/632/488 484/623/488
f 478/612/489 493/636/489 146/635/489
f 372/637/490 507/633/490 492/624/490
f 486/611/491 501/638/491 500/634/491 485/610/491
f 479/613/492 494/639/492 493/636/492 478/612/492
f 487/614/493 502/640/493 501/638/493 486/611/493
f 480/615/494 495/641/494 494/639/494 479/613/494
f 488/616/495 503/642/495 502/640/495 487/614/495
f 481/617/496 496/643/496 495/641/496 480/615/496
f 489/618/497 504/627/497 503/642/497 488/616/497
f 482/619/498 497/629/498 496/643/498 481/617/498
f 494/639/499 509/645/499 508/644/499 493/636/499
f 502/640/500 517/647/500 516/646/500 501/638/500
f 495/641/501 510/648/501 509/645/501 494/639/501
f 503/642/502 518/649/502 517/647/502 502/640/502
f 496/643/503 511/650/503 510/648/503 495/641/503
f 504/627/504 519/651/504 518/649/504 503/642/504
f 497/629/505 512/652/505 511/650/505 496/643/505
f 505/628/506 520/653/506 519/651/506 504/627/506
f 498/630/507 513/654/507 512/652/507 497/629/507
f 506/631/508 521/655/508 520/653/508 505/628/508
f 499/632/509 514/656/509 513/654/509 498/630/509
f 507/633/510 522/657/510 521/655/510 506/631/510
f 500/634/511 515/658/511 514/656/511 499/632/511
f 493/636/512 508/644/512 146/659/512
f 372/660/513 522/657/513 507/633/513
f 501/638/514 516/646/514 515/658/514 500/634/514
f 513/654/515 528/662/515 527/661/515 512/652/515
f 521/655/516 536/664/516 535/663/516 520/653/516
f 514/656/517 529/665/517 528/662/517 513/654/517
f 522/657/518 537/666/518 536/664/518 521/655/518
f 515/658/519 530/667/519 529/665/519 514/656/519
f 508/644/520 523/669/520 146/668/520
f 372/670/521 537/666/521 522/657/521
f 516/646/522 531/671/522 530/667/522 515/658/522
f 509/645/523 524/672/523 523/669/523 508/644/523
f 517/647/524 532/673/524 531/671/524 516/646/524
f 510/648/525 525/674/525 524/672/525 509/645/525
f 518/649/526 533/675/526 532/673/526 517/647/526
f 511/650/527 526/676/527 525/674/527 510/648/527
f 519/651/528 534/677/528 533/675/528 518/649/528
f 512/652/529 527/661/529 526/676/529 511/650/529
f 520/653/530 535/663/530 534/677/530 519/651/530
f 532/673/531 542/131/531 69/132/531 531/671/531
f 525/674/532 65/135/532 539/136/532 524/672/532
f 533/675/533 70/139/533 542/131/533 532/673/533
f 526/676/534 540/141/534 65/135/534 525/674/534
f 534/677/535 543/143/535 70/139/535 533/675/535
f 527/661/536 66/145/536 540/141/536 526/676/536
f 535/663/537 544/147/537 543/143/537 534/677/537
f 528/662/538 541/149/538 66/145/538 527/661/538
f 536/664/539 545/151/539 544/147/539 535/663/539
f 529/665/540 67/153/540 541/149/540 528/662/540
f 537/666/541 546/155/541 545/151/541 536/664/541
f 530/667/542 68/18/542 67/153/542 529/665/542
f 523/669/543 538/157/543 146/678/543
f 372/679/544 546/155/544 537/666/544
f 531/671/545 69/132/545 68/18/545 530/667/545
f 524/672/546 539/136/546 538/157/546 523/669/546
