# Blender 4.3.2
# www.blender.org
mtllib zombie.mtl
o Head
v -0.050718 0.477442 0.048582
v -0.051231 0.565311 0.048582
v -0.050718 0.477442 -0.024551
v -0.050718 0.566730 -0.024551
v 0.051878 0.477442 0.048582
v 0.052391 0.565311 0.048582
v 0.051878 0.477442 -0.024551
v 0.051878 0.566730 -0.024551
v -0.051231 0.574252 0.048582
v -0.050718 0.572833 -0.024551
v 0.051878 0.572833 -0.024551
v 0.052391 0.574252 0.048582
v -0.050718 0.477442 0.050855
v -0.050718 0.566730 0.050855
v 0.051878 0.566730 0.050855
v 0.051878 0.477442 0.050855
v 0.077539 0.001182 -0.084440
v 0.077539 0.058443 -0.024580
v 0.077539 0.001182 0.034373
v 0.077539 0.058443 0.034373
v 0.014941 0.001182 -0.084440
v 0.014941 0.058443 -0.024580
v 0.014941 0.001182 0.034373
v 0.014941 0.058443 0.034373
v 0.077539 0.237065 -0.018466
v 0.077539 0.237065 0.034373
v 0.014941 0.237065 0.034373
v 0.014941 0.237065 -0.018466
v -0.017343 0.001182 -0.084440
v -0.017343 0.058443 -0.024580
v -0.017343 0.001182 0.034373
v -0.017343 0.058443 0.034373
v -0.079941 0.001182 -0.084440
v -0.079941 0.058443 -0.024580
v -0.079941 0.001182 0.034373
v -0.079941 0.058443 0.034373
v -0.017343 0.237065 -0.018466
v -0.017343 0.237065 0.034373
v -0.079941 0.237065 0.034373
v -0.079941 0.237065 -0.018466
v -0.080573 0.236819 0.041961
v -0.080573 0.475529 0.041961
v -0.080573 0.236819 -0.021545
v -0.080573 0.475529 -0.021545
v 0.077630 0.236819 0.041961
v 0.077630 0.475529 0.041961
v 0.077630 0.236819 -0.021545
v 0.077630 0.475529 -0.021545
v 0.077662 0.430133 -0.170262
v 0.077662 0.429983 0.043079
v 0.077662 0.474366 -0.170231
v 0.077662 0.474216 0.043110
v 0.118042 0.430133 -0.170262
v 0.118042 0.429983 0.043079
v 0.118042 0.474366 -0.170231
v 0.118042 0.474216 0.043110
v -0.121925 0.431051 -0.169136
v -0.121925 0.433359 0.044192
v -0.121925 0.475281 -0.169615
v -0.121925 0.477588 0.043714
v -0.081545 0.431051 -0.169136
v -0.081545 0.433359 0.044192
v -0.081545 0.475281 -0.169615
v -0.081545 0.477588 0.043714
vn -1.0000 -0.0029 -0.0035
vn -1.0000 -0.0015 -0.0053
vn -1.0000 -0.0014 -0.0053
vn -0.0000 -0.0000 -1.0000
vn 1.0000 -0.0029 -0.0035
vn 1.0000 -0.0014 -0.0053
vn 1.0000 -0.0015 -0.0053
vn 0.9936 -0.0029 0.1130
vn -0.0000 -1.0000 -0.0000
vn -0.0000 0.9998 -0.0194
vn 1.0000 -0.0000 -0.0070
vn -1.0000 -0.0000 -0.0070
vn -0.0000 -0.0000 1.0000
vn -0.9936 -0.0029 0.1130
vn -0.0000 0.8483 -0.5296
vn 1.0000 -0.0000 -0.0000
vn -1.0000 -0.0000 -0.0000
vn -0.0000 0.7226 -0.6912
vn -0.0000 1.0000 -0.0000
vn -0.0000 0.0342 -0.9994
vn -0.0000 1.0000 0.0007
vn -0.0000 -1.0000 -0.0007
vn -0.0000 0.0007 -1.0000
vn -0.0000 -0.0007 1.0000
vn -0.0000 0.9999 -0.0108
vn -0.0000 -0.9999 0.0108
vn -0.0000 -0.0108 -0.9999
vn -0.0000 0.0108 0.9999
vt 0.862646 0.376460
vt 0.862656 0.211421
vt 1.000000 0.208757
vt 1.000000 0.376461
vt 0.699453 0.825423
vt 0.531754 0.825423
vt 0.531754 0.632723
vt 0.699453 0.632723
vt 0.858378 0.544165
vt 0.858377 0.376461
vt 0.995741 0.379124
vt 0.995739 0.544165
vt 0.581706 0.670025
vt 0.831706 0.670025
vt 0.615000 0.703015
vt 0.673985 0.703015
vt 0.673985 0.762000
vt 0.615000 0.762000
vt 0.520292 0.825423
vt 0.520292 0.632723
vt 0.995754 0.000964
vt 0.995754 0.193664
vt 0.858377 0.194627
vt 0.858377 0.000000
vt 0.388765 0.839819
vt 0.388765 0.589819
vt 0.862656 0.194627
vt 1.000000 0.197294
vt 0.273108 0.857275
vt 0.273108 0.607275
vt 0.732970 0.762000
vt 0.732970 0.820985
vt 0.673985 0.820985
vt 0.858377 0.376460
vt 0.858377 0.208756
vt 0.125000 0.750000
vt 0.375000 0.750000
vt 0.625000 0.750000
vt 0.625000 1.000000
vt 0.256882 0.510272
vt 0.377246 0.510272
vt 0.377246 0.630636
vt 0.256882 0.630636
vt 0.377246 0.751000
vt 0.256882 0.751000
vt 0.297144 0.443045
vt 0.297144 0.335495
vt 0.407866 0.335496
vt 0.520292 0.443047
vt 0.971599 0.661739
vt 0.858377 0.661739
vt 0.858377 0.544165
vt 0.971599 0.544165
vt 0.136518 0.751000
vt 0.256882 0.871364
vt 0.136518 0.871364
vt 0.297144 -0.000000
vt 0.396383 0.000001
vt 0.625000 0.500000
vt 0.875000 0.500000
vt 0.875000 0.750000
vt 0.215280 0.158722
vt 0.215280 0.067214
vt 0.459996 0.783919
vt 0.342421 0.783919
vt 0.342421 0.448340
vt 0.459996 0.448340
vt 0.215280 0.250231
vt 0.000000 0.891385
vt 0.000000 0.783835
vt 0.110722 0.783836
vt 0.223148 0.891386
vt 0.971599 0.779314
vt 0.858377 0.779314
vt 0.858377 0.661739
vt 0.971599 0.661739
vt -0.000000 0.448340
vt 0.099239 0.448340
vt 0.637866 0.335579
vt 0.520292 0.335579
vt 0.520292 0.000000
vt 0.637866 0.000000
vt 0.223148 0.896695
vt 0.223148 0.448340
vt 0.342421 0.448340
vt 0.342421 0.896696
vt 0.000000 0.448340
vt 0.000000 0.000000
vt 0.297144 0.000000
vt 0.297144 0.448340
vt 0.651407 0.175456
vt 0.901407 0.175456
vt 0.901407 0.425456
vt 0.651407 0.425456
vt 0.645255 0.167074
vt 0.895255 0.167074
vt 0.895255 0.417074
vt 0.645255 0.417074
vt 0.673323 0.163152
vt 0.923323 0.163152
vt 0.923323 0.413152
vt 0.673323 0.413152
vt 0.639568 0.335580
vt 0.639568 0.632723
vt 0.520292 0.632723
vt 0.520292 0.335579
vt 0.699453 0.400686
vt 0.699453 0.000000
vt 0.782533 -0.000000
vt 0.782533 0.400685
vt 0.782533 0.801397
vt 0.782533 0.400704
vt 0.858377 0.400704
vt 0.858377 0.801397
vt 0.712242 0.694402
vt 0.755307 0.694402
vt 0.755307 0.737467
vt 0.712242 0.737467
vt 0.755307 0.780532
vt 0.712242 0.780532
vt 0.858377 0.779314
vt 0.934220 0.779314
vt 0.934220 0.862392
vt 0.858377 0.862392
vt 0.798372 0.694402
vt 0.798372 0.737467
vt 0.699453 0.801372
vt 0.699453 0.400686
vt 0.782531 0.400685
vt 0.782531 0.801371
vt 0.782533 0.000000
vt 0.858377 0.000000
vt 0.858377 0.400704
vt 0.658915 0.709167
vt 0.747114 0.709167
vt 0.747114 0.797365
vt 0.658915 0.797365
vt 0.747114 0.885563
vt 0.658915 0.885563
vt 0.000000 0.896696
vt 0.075843 0.896696
vt 0.075843 0.979759
vt 0.000000 0.979759
vt 0.835312 0.709167
vt 0.835312 0.797365
s 1
usemtl Material.015
f 1/1/1 2/2/2 4/3/3 3/4/1
f 3/5/4 4/6/4 8/7/4 7/8/4
f 7/9/5 8/10/6 6/11/7 5/12/5
f 5/13/8 6/14/8 15/14/8 16/13/8
f 3/15/9 7/16/9 5/17/9 1/18/9
f 8/7/4 4/6/4 10/19/4 11/20/4
f 11/21/10 10/22/10 9/23/10 12/24/10
f 6/25/7 8/26/6 11/26/11 12/25/11
f 4/3/3 2/2/2 9/27/12 10/28/12
f 2/29/13 6/30/13 12/30/13 9/29/13
f 16/17/13 15/31/13 14/32/13 13/33/13
f 2/2/14 1/1/14 13/34/14 14/35/14
f 1/36/9 5/37/9 16/37/9 13/36/9
f 6/38/15 2/39/15 14/39/15 15/38/15
f 17/40/16 18/41/16 20/42/16 19/43/16
f 19/43/13 20/42/13 24/44/13 23/45/13
f 23/46/17 24/47/17 22/48/17 21/49/17
f 21/50/18 22/51/18 18/52/18 17/53/18
f 19/54/9 23/45/9 21/55/9 17/56/9
f 22/48/17 24/47/17 27/57/17 28/58/17
f 27/59/19 26/60/19 25/61/19 28/38/19
f 20/62/16 18/63/16 25/63/16 26/62/16
f 18/64/20 22/65/20 28/66/20 25/67/20
f 24/68/13 20/62/13 26/62/13 27/68/13
f 29/40/16 30/41/16 32/42/16 31/43/16
f 31/43/13 32/42/13 36/44/13 35/45/13
f 35/69/17 36/70/17 34/71/17 33/72/17
f 33/73/18 34/74/18 30/75/18 29/76/18
f 31/54/9 35/45/9 33/55/9 29/56/9
f 34/71/17 36/70/17 39/77/17 40/78/17
f 39/59/19 38/60/19 37/61/19 40/38/19
f 32/62/16 30/63/16 37/63/16 38/62/16
f 30/79/20 34/80/20 40/81/20 37/82/20
f 36/68/13 32/62/13 38/62/13 39/68/13
f 41/83/17 42/84/17 44/85/17 43/86/17
f 43/87/4 44/88/4 48/89/4 47/90/4
f 47/91/16 48/92/16 46/93/16 45/94/16
f 45/95/13 46/96/13 42/97/13 41/98/13
f 43/99/9 47/100/9 45/101/9 41/102/9
f 48/103/19 44/104/19 42/105/19 46/106/19
f 49/107/17 50/108/17 52/109/17 51/110/17
f 51/111/21 52/112/21 56/113/21 55/114/21
f 55/115/16 56/116/16 54/117/16 53/118/16
f 53/118/22 54/117/22 50/119/22 49/120/22
f 51/121/23 55/122/23 53/123/23 49/124/23
f 56/116/24 52/125/24 50/126/24 54/117/24
f 57/127/17 58/128/17 60/129/17 59/130/17
f 59/112/25 60/131/25 64/132/25 63/133/25
f 63/134/16 64/135/16 62/136/16 61/137/16
f 61/137/26 62/136/26 58/138/26 57/139/26
f 59/140/27 63/141/27 61/142/27 57/143/27
f 64/135/28 60/144/28 58/145/28 62/136/28
